<svg width="159" height="37" viewBox="0 0 159 37" fill="none" xmlns="http://www.w3.org/2000/svg">
<path d="M23.1947 14.6883C21.9185 14.3341 20.6504 14.2375 19.3742 14.3019C19.1093 14.318 18.8445 14.3341 18.5796 14.3582C18.4672 14.3663 18.411 14.3502 18.3789 14.2214C18.2425 13.537 18.098 12.8527 17.9535 12.1684C17.9295 12.0638 17.9535 12.0316 18.0579 12.0235C20.2651 11.8222 22.4403 11.9269 24.5592 12.6193C24.6957 12.6676 24.7679 12.6354 24.8401 12.5227C25.9237 11.0091 26.9832 9.47948 28.0185 7.93374C28.0507 7.88543 28.0667 7.82908 28.1389 7.79688C28.3075 8.6261 28.452 9.45532 28.6607 10.2684C28.781 10.7273 28.7008 11.0655 28.4279 11.4439C27.9142 12.1362 27.4647 12.8769 26.9109 13.537C26.8146 13.6498 26.8547 13.682 26.9591 13.7464C28.155 14.5192 29.1743 15.4612 29.977 16.6527C30.8438 17.9408 31.3334 19.3658 31.5341 20.9035C31.7026 22.1996 31.6465 23.4797 31.213 24.7276C30.5468 26.6517 29.1984 27.8754 27.3042 28.5436C25.6829 29.1152 24.1499 28.8576 22.6489 28.125C21.5172 27.5695 20.4979 26.8288 19.5428 26.0076C19.0612 25.597 18.5796 25.1864 18.106 24.7598C17.9937 24.6551 17.9375 24.6712 17.8331 24.7759C16.8058 25.8144 15.7222 26.7885 14.4942 27.5856C13.7076 28.0928 12.8809 28.5114 11.9579 28.6563C10.2804 28.922 8.85971 28.3987 7.67984 27.1911C6.74076 26.233 6.27523 25.0496 6.05852 23.7454C5.84984 22.4653 5.99431 21.2335 6.60431 20.0823C7.38287 18.6251 8.58682 17.7234 10.2322 17.4899C11.1793 17.3531 12.0863 17.5705 12.9612 17.9247C14.0206 18.3514 14.9597 18.9793 15.8506 19.6797C16.4526 20.1628 17.0466 20.6539 17.6084 21.1772C17.7288 21.2899 17.785 21.306 17.9054 21.1691C19.4464 19.4302 20.9072 17.6107 22.3439 15.7832C22.6168 15.4209 22.8978 15.0667 23.1947 14.6883ZM29.1422 22.0064C29.1422 19.3738 27.85 17.1035 25.6026 15.759C25.3699 15.6141 25.3618 15.6141 25.2013 15.8396C23.4275 18.2226 21.6216 20.5895 19.6391 22.8115C19.5508 22.9161 19.5749 22.9644 19.6631 23.0449C20.2571 23.5682 20.843 24.0915 21.461 24.5826C22.2637 25.2267 23.1145 25.7822 24.0857 26.1445C25.7551 26.7644 27.4808 26.225 28.4279 24.7517C28.9657 23.9225 29.1422 22.9886 29.1422 22.0064ZM8.31392 22.731C8.3059 22.8437 8.32997 23.0369 8.35405 23.2301C8.4584 24.0593 8.71524 24.8242 9.27708 25.4602C9.96734 26.233 10.8101 26.4987 11.8214 26.2008C12.311 26.0559 12.7525 25.8224 13.1779 25.5487C14.2614 24.8564 15.2005 23.9949 16.1235 23.1174C16.2199 23.0288 16.1717 22.9886 16.0995 22.9242C15.5697 22.425 15.0239 21.9501 14.4541 21.4992C13.6354 20.8632 12.7766 20.2997 11.7652 20.034C10.786 19.7764 9.85498 19.8971 9.08445 20.6136C8.4905 21.153 8.31392 21.8695 8.31392 22.731Z" fill="#5563FF"/>
<path d="M33.7057 13.3334C33.7298 12.5122 33.7539 11.6911 33.786 10.8618C33.794 10.6767 33.8101 10.4915 33.9144 10.3224C34.0669 10.089 34.3238 10.0246 34.5565 10.1936C34.6769 10.2822 34.8054 10.3868 34.9097 10.4995C35.9852 11.6105 37.0607 12.7296 38.1283 13.8487C38.2085 13.9292 38.2808 14.0258 38.3369 14.1224C38.5777 14.5088 38.4172 14.8308 37.9597 14.863C37.5905 14.8952 37.2213 14.855 36.8521 14.8469C36.539 14.8389 36.539 14.8389 36.5952 15.1529C36.9484 17.0448 37.0126 18.9528 36.7718 20.8608C36.5471 22.64 36.0735 24.3548 35.3431 25.9972C34.9418 26.8989 34.4682 27.7684 33.9305 28.5976C33.5693 29.1531 33.168 29.6844 32.7426 30.2077C32.0363 31.0853 31.2176 31.8662 30.3748 32.6068C29.6364 33.2589 28.8338 33.8225 27.991 34.3377C26.6426 35.1589 25.2139 35.7869 23.713 36.2377C22.3405 36.6483 20.9439 36.8898 19.5152 36.9703C16.7301 37.1313 14.0412 36.6725 11.4568 35.6259C10.3893 35.1911 9.36993 34.6517 8.39874 34.0238C6.82558 32.9933 5.43703 31.7615 4.2411 30.3124C3.45452 29.3543 2.76426 28.3319 2.17834 27.237C1.14294 25.3048 0.484784 23.2519 0.179784 21.0863C-0.0931114 19.146 -0.0529797 17.2139 0.284126 15.2817C0.629258 13.3576 1.25531 11.5381 2.15426 9.81524C2.65992 8.84915 3.26189 7.93137 3.9361 7.07799C4.43374 6.45003 4.96347 5.84623 5.53334 5.28268C6.1915 4.62252 6.9219 4.04287 7.66835 3.49542C8.30243 3.03653 8.96058 2.60984 9.65085 2.2395C10.3251 1.86917 11.0314 1.55519 11.7537 1.26537C13.2386 0.677663 14.7716 0.299279 16.3528 0.122163C17.9661 -0.0630036 19.5794 -0.0388514 21.1847 0.20267C22.9264 0.452243 24.5798 0.959439 26.1771 1.684C26.5944 1.86917 26.9957 2.08654 27.3971 2.31196C27.7261 2.49713 27.8225 2.84331 27.67 3.17339C27.5255 3.47932 27.2044 3.60813 26.8513 3.48737C26.474 3.3505 26.1369 3.13313 25.7757 2.96407C25.0132 2.60179 24.2267 2.29586 23.416 2.05434C21.3292 1.42638 19.1941 1.20096 17.019 1.38613C15.486 1.51494 14.0011 1.84502 12.5644 2.37637C11.537 2.75475 10.5498 3.22974 9.61072 3.80134C8.23821 4.63057 7.01019 5.62886 5.91861 6.80427C4.94742 7.85086 4.12071 9.00211 3.43847 10.258C1.9215 13.0597 1.23926 16.0546 1.35965 19.2346C1.43189 21.0782 1.79308 22.8574 2.45123 24.5883C2.79637 25.5142 3.21373 26.3997 3.71137 27.2451C4.58624 28.7344 5.66979 30.0628 6.954 31.2221C9.23348 33.2992 11.8822 34.6517 14.892 35.2958C17.7414 35.9076 20.5586 35.7869 23.3518 34.9738C24.6199 34.6034 25.8239 34.0801 26.9636 33.42C28.5609 32.4941 29.9735 31.3429 31.2176 29.9743C32.0523 29.0565 32.7747 28.0582 33.3927 26.9794C34.075 25.7798 34.6047 24.5159 34.9739 23.1875C35.3431 21.8511 35.5518 20.4985 35.6 19.1058C35.6401 17.9143 35.5438 16.7389 35.3511 15.5715C35.3431 15.5393 35.3672 15.4829 35.319 15.4668C35.2629 15.4507 35.2388 15.499 35.2067 15.5313C34.9338 15.7647 34.709 16.0384 34.4201 16.2558C34.2596 16.3766 34.091 16.4329 33.9144 16.3524C33.7379 16.2719 33.6736 16.0948 33.6576 15.9016C33.6175 15.3863 33.6817 14.863 33.6817 14.3478C33.6817 14.0097 33.6817 13.6715 33.6817 13.3334C33.6897 13.3334 33.6977 13.3334 33.7057 13.3334Z" fill="#0B0C0C"/>
<path d="M10.0194 16.576C8.63888 16.576 7.53125 15.465 7.53125 14.0883C7.53125 12.7278 8.64691 11.6248 10.0274 11.6329C11.3999 11.6329 12.5076 12.7439 12.4995 14.1125C12.4995 15.4731 11.3839 16.576 10.0194 16.576ZM10.7899 15.2637C11.103 15.2557 11.432 15.1752 11.6568 14.8451C11.6809 14.8129 11.7611 14.7726 11.6969 14.7243C11.6327 14.668 11.6166 14.7565 11.5845 14.7887C11.4641 14.9417 11.3197 15.0383 11.1351 15.1027C10.7819 15.2154 10.4528 15.1671 10.1157 15.0383C10.0676 15.0222 10.0114 14.9659 9.97928 15.0303C9.93915 15.1027 10.0274 15.1108 10.0676 15.1269C10.2843 15.2154 10.501 15.2637 10.7899 15.2637Z" fill="#0B0C0C"/>
<path d="M22.2407 11.0892C20.9645 11.0892 19.9451 10.0587 19.9532 8.77859C19.9532 7.51463 20.9886 6.49219 22.2567 6.49219C23.5169 6.49219 24.5362 7.52268 24.5362 8.7947C24.5362 10.0587 23.5088 11.0892 22.2407 11.0892ZM22.8186 10.1553C23.3002 10.1231 23.7255 10.0023 23.9663 9.52731C23.9824 9.48706 24.0386 9.4468 23.9824 9.40655C23.9182 9.3663 23.9021 9.4307 23.878 9.47901C23.7255 9.77688 23.4767 9.9379 23.1637 10.0104C22.9309 10.0667 22.6902 10.0506 22.4574 10.0104C22.4092 10.0023 22.3611 9.9862 22.353 10.0506C22.345 10.107 22.3932 10.107 22.4333 10.107C22.5537 10.1231 22.6821 10.1714 22.8186 10.1553Z" fill="#0B0C0C"/>
<path d="M29.5348 11.4972C29.5187 11.5052 29.4866 11.5133 29.4866 11.5133C29.278 11.1832 29.0051 10.9095 28.9248 10.4908C28.7241 9.4523 28.4914 8.4218 28.2747 7.38326C28.2506 7.2786 28.2265 7.2625 28.1222 7.28665C27.7128 7.38326 27.3035 7.45572 26.8941 7.55233C26.7818 7.57648 26.7336 7.55233 26.6774 7.46377C26.4206 7.09343 26.4126 7.09343 26.854 6.99683C27.3516 6.89217 27.8493 6.78751 28.3469 6.6748C28.4753 6.64259 28.5155 6.68285 28.5315 6.79556C28.7643 7.91461 29.0051 9.03366 29.2378 10.1527C29.3341 10.6036 29.4305 11.0544 29.5348 11.4972Z" fill="#0B0C0C"/>
<path d="M30.0082 10.2891C30.0082 10.3052 30.0082 10.3132 30.0082 10.3293H30.0002C29.9922 10.3132 29.9842 10.2971 30.0082 10.2891Z" fill="#0B0C0C"/>
<path d="M54.0004 8.456V17.672L61.1044 8.456H64.7284L58.9204 15.944L64.8004 26H61.2484L56.9044 18.536L54.0004 22.256V26H50.9284V8.456H54.0004ZM74.1083 14.096V16.808H73.0283C70.9163 16.808 69.5963 17.936 69.5963 20.24V26H66.6683V14.168H69.4283L69.5963 15.896C70.1003 14.72 71.2283 13.928 72.8123 13.928C73.2203 13.928 73.6283 13.976 74.1083 14.096ZM77.5541 11.768C76.5461 11.768 75.7541 10.976 75.7541 9.992C75.7541 9.008 76.5461 8.24 77.5541 8.24C78.5141 8.24 79.3061 9.008 79.3061 9.992C79.3061 10.976 78.5141 11.768 77.5541 11.768ZM76.0901 26V14.144H79.0181V26H76.0901ZM81.1313 22.4H83.9153C83.9393 23.432 84.7073 24.08 86.0513 24.08C87.4193 24.08 88.1633 23.528 88.1633 22.664C88.1633 22.064 87.8513 21.632 86.7953 21.392L84.6593 20.888C82.5233 20.408 81.4913 19.4 81.4913 17.504C81.4913 15.176 83.4593 13.784 86.1953 13.784C88.8593 13.784 90.6593 15.32 90.6833 17.624H87.8993C87.8753 16.616 87.2033 15.968 86.0753 15.968C84.9233 15.968 84.2513 16.496 84.2513 17.384C84.2513 18.056 84.7793 18.488 85.7873 18.728L87.9233 19.232C89.9153 19.688 90.9233 20.6 90.9233 22.424C90.9233 24.824 88.8833 26.312 85.9553 26.312C83.0033 26.312 81.1313 24.728 81.1313 22.4ZM94.6166 11.768C93.6086 11.768 92.8166 10.976 92.8166 9.992C92.8166 9.008 93.6086 8.24 94.6166 8.24C95.5766 8.24 96.3686 9.008 96.3686 9.992C96.3686 10.976 95.5766 11.768 94.6166 11.768ZM93.1526 26V14.144H96.0806V26H93.1526Z" fill="#5563FF"/>
<path d="M98.0738 31.496V29.048H99.8258C100.978 29.048 101.698 28.784 102.202 27.392L102.538 26.504L97.7618 14.144H100.858L103.906 22.784L107.122 14.144H110.146L104.338 28.64C103.45 30.848 102.202 31.76 100.258 31.76C99.4418 31.76 98.7218 31.664 98.0738 31.496ZM119.849 14.144H122.777V26H120.065L119.849 24.416C119.129 25.544 117.593 26.312 116.009 26.312C113.273 26.312 111.665 24.464 111.665 21.56V14.144H114.593V20.528C114.593 22.784 115.481 23.696 117.113 23.696C118.961 23.696 119.849 22.616 119.849 20.36V14.144ZM128.753 26H125.849V8.144H128.753V19.112L133.361 14.144H137.033L132.521 18.848L136.937 26H133.577L130.481 21.008L128.753 22.808V26ZM142.747 26H139.819V16.592H137.539V14.144H139.819V10.448H142.747V14.144H145.051V16.592H142.747V26ZM150.329 26.312C147.809 26.312 146.273 24.848 146.273 22.616C146.273 20.432 147.857 19.064 150.665 18.848L154.217 18.584V18.32C154.217 16.712 153.257 16.064 151.769 16.064C150.041 16.064 149.081 16.784 149.081 18.032H146.585C146.585 15.464 148.697 13.784 151.913 13.784C155.105 13.784 157.073 15.512 157.073 18.8V26H154.505L154.289 24.248C153.785 25.472 152.177 26.312 150.329 26.312ZM151.289 24.104C153.089 24.104 154.241 23.024 154.241 21.2V20.576L151.769 20.768C149.945 20.936 149.249 21.536 149.249 22.496C149.249 23.576 149.969 24.104 151.289 24.104Z" fill="#0B0C0C"/>
</svg>
