<svg width="62" height="62" viewBox="0 0 62 62" fill="none" xmlns="http://www.w3.org/2000/svg">
<path d="M2.51862 20.7578H59.4814C60.7327 20.7578 61.75 21.7751 61.75 23.0264V38.9777C61.75 40.2291 60.7327 41.2463 59.4814 41.2463H2.51862C1.26725 41.2463 0.25 40.2291 0.25 38.9777V23.0264C0.25 21.7751 1.26725 20.7578 2.51862 20.7578Z" fill="black" stroke="#8E8E8E" stroke-width="0.5"/>
<path d="M7.56429 30.5832C7.56429 30.5832 3.28684 28.2115 3.03497 28.073C2.78311 27.9345 2.53125 28.0184 2.53125 28.3081V38.5295C2.53125 38.7478 2.71175 38.8401 2.93003 38.7226C3.14831 38.6008 7.56429 36.1536 7.56429 36.1536C7.56429 36.1536 8.16456 35.822 8.4626 35.6541C8.94533 35.3854 9.9108 34.8523 9.9108 34.8523C9.9108 34.8523 11.9047 33.7483 12.1692 33.6014C12.4336 33.4545 12.4084 33.253 12.186 33.1396C11.9635 33.0263 9.915 31.8803 9.915 31.8803L7.56429 30.5832Z" fill="url(#paint0_linear_2277_5544)"/>
<path d="M8.35042 33.3545L2.72551 28.0234C2.59538 28.0528 2.51562 28.1536 2.51562 28.3173V38.5177C2.51562 38.6562 2.5702 38.7402 2.64156 38.7695L8.35042 33.3545Z" fill="url(#paint1_linear_2277_5544)"/>
<path d="M7.55286 30.5869C7.54447 30.6079 3.26701 28.232 3.01935 28.1102C2.76749 27.9507 2.51562 28.0389 2.51562 28.3201V38.5625C2.51562 38.7892 2.69613 38.8815 2.89342 38.7724C3.13269 38.6381 7.54447 36.1908 7.55286 36.1698L9.90357 34.8685C9.89098 34.8853 11.8807 33.7813 12.1284 33.6512C12.4138 33.4875 12.3844 33.286 12.1703 33.1894C11.9395 33.0551 9.89098 31.9091 9.90357 31.8882L7.55286 30.5869Z" fill="url(#paint2_linear_2277_5544)"/>
<path d="M3.02098 28.0669C2.91184 28.0124 2.8069 27.9956 2.71875 28.0166L8.34786 33.356L9.90521 31.8826L7.5587 30.5814C7.5587 30.5814 5.34651 29.3556 4.01164 28.6168L3.02098 28.0669Z" fill="url(#paint3_linear_2277_5544)"/>
<path d="M42.4583 35.1575L41.9924 35.5982C41.8832 35.657 41.7783 35.7284 41.6733 35.7745C41.3501 35.9215 41.0227 35.9592 40.7289 35.9592C40.4182 35.9592 39.9313 35.9382 39.436 35.5772C38.7475 35.0903 38.4453 34.2466 38.4453 33.5162C38.4453 32.0008 39.671 31.2578 40.6743 31.2578C41.0227 31.2578 41.3837 31.346 41.6733 31.5307C42.1603 31.8539 42.2862 32.2737 42.3534 32.5003L40.0698 33.428L39.3226 33.4868C39.5661 34.7293 40.4014 35.4513 41.3249 35.4513C41.7867 35.4513 42.1267 35.3002 42.4415 35.1449C42.4415 35.1449 42.5045 35.1113 42.4583 35.1575ZM41.0647 32.664C41.2494 32.5969 41.3417 32.5381 41.3417 32.3996C41.3417 32.005 40.9094 31.5517 40.3888 31.5517C40.0069 31.5517 39.2849 31.8581 39.2849 32.9201C39.2849 33.088 39.3058 33.2643 39.3142 33.4406L41.0647 32.664Z" fill="white"/>
<path d="M37.6947 35.0991C37.6947 35.4769 37.7619 35.5357 38.0809 35.5651C38.2488 35.5861 38.4125 35.5945 38.5762 35.6113L38.2194 35.8253H36.511C36.7334 35.5315 36.7754 35.5021 36.7754 35.309V35.0907L36.7712 29.2979H36.0156L36.7418 28.9453H38.1271C37.8248 29.1216 37.7367 29.2266 37.6989 29.5666L37.6947 35.0991Z" fill="white"/>
<path d="M35.0397 31.7354C35.2622 31.9201 35.7239 32.3105 35.7239 33.0493C35.7239 33.7713 35.321 34.1113 34.9138 34.4345C34.7878 34.5605 34.6409 34.699 34.6409 34.9131C34.6409 35.1272 34.7878 35.2447 34.8928 35.3328L35.2412 35.6057C35.6652 35.9667 36.0514 36.2983 36.0514 36.9699C36.0514 37.885 35.1698 38.8127 33.5075 38.8127C32.1055 38.8127 31.4297 38.1411 31.4297 37.4191C31.4297 37.0665 31.6018 36.5712 32.1769 36.2312C32.7771 35.8618 33.5873 35.8114 34.0239 35.782C33.8895 35.6057 33.7342 35.421 33.7342 35.1188C33.7342 34.9551 33.7846 34.8543 33.8308 34.7368C33.7258 34.7452 33.6167 34.7578 33.5201 34.7578C32.4959 34.7578 31.9166 33.9854 31.9166 33.2256C31.9166 32.7764 32.1181 32.2811 32.5379 31.9201C33.0878 31.4626 33.7468 31.3828 34.2673 31.3828H36.2612L35.64 31.7354H35.0397ZM34.3597 36.0549C34.2799 36.0423 34.2337 36.0423 34.1372 36.0423C34.0491 36.0423 33.5201 36.0632 33.113 36.2018C32.8989 36.2815 32.2734 36.5208 32.2734 37.226C32.2734 37.9312 32.9451 38.4391 33.9903 38.4391C34.9264 38.4391 35.4217 37.9816 35.4217 37.3687C35.4217 36.8566 35.0985 36.588 34.3597 36.0549ZM34.6325 34.1743C34.855 33.9518 34.876 33.6412 34.876 33.4649C34.876 32.7639 34.4646 31.6767 33.6629 31.6767C33.4152 31.6767 33.1423 31.8026 32.987 31.9999C32.8233 32.2014 32.7771 32.4658 32.7771 32.7177C32.7771 33.3683 33.1549 34.4471 33.9819 34.4471C34.2212 34.4471 34.4814 34.3296 34.6325 34.1743Z" fill="white"/>
<path d="M29.0117 35.9592C27.4712 35.9592 26.6484 34.7419 26.6484 33.6421C26.6484 32.3576 27.6853 31.2578 29.1587 31.2578C30.5817 31.2578 31.4758 32.387 31.4758 33.5749C31.4758 34.7335 30.5943 35.9592 29.0117 35.9592ZM30.2165 35.1659C30.4516 34.851 30.5103 34.4565 30.5103 34.0745C30.5103 33.2055 30.1031 31.5517 28.8942 31.5517C28.5752 31.5517 28.252 31.6776 28.0169 31.8875C27.6391 32.2317 27.5677 32.664 27.5677 33.088C27.5677 34.0619 28.0421 35.6654 29.2216 35.6654C29.6078 35.6654 29.994 35.4807 30.2165 35.1659Z" fill="white"/>
<path d="M23.8555 35.9592C22.3149 35.9592 21.4922 34.7419 21.4922 33.6421C21.4922 32.3576 22.529 31.2578 24.0024 31.2578C25.4254 31.2578 26.3195 32.387 26.3195 33.5749C26.3195 34.7335 25.438 35.9592 23.8555 35.9592ZM25.0602 35.1659C25.2953 34.851 25.3541 34.4565 25.3541 34.0745C25.3541 33.2055 24.9427 31.5517 23.738 31.5517C23.4147 31.5517 23.0957 31.6776 22.8606 31.8875C22.4786 32.2317 22.4115 32.664 22.4115 33.088C22.4115 34.0619 22.89 35.6654 24.0654 35.6654C24.4516 35.6654 24.8378 35.4807 25.0602 35.1659Z" fill="white"/>
<path d="M20.8507 35.6679L19.5452 35.9702C19.0163 36.0541 18.5419 36.1297 18.0382 36.1297C15.5196 36.1255 14.5625 34.2617 14.5625 32.8009C14.5625 31.0211 15.9226 29.3672 18.2481 29.3672C18.7392 29.3672 19.2135 29.4385 19.6459 29.5603C20.3301 29.7534 20.6492 29.9926 20.8507 30.1312L20.0909 30.8574L19.7718 30.9287L19.9985 30.5635C19.6879 30.2613 19.1212 29.6988 18.0466 29.6988C16.6068 29.6988 15.5196 30.7986 15.5196 32.4063C15.5196 34.1316 16.7579 35.7561 18.7476 35.7561C19.3311 35.7561 19.6333 35.6385 19.9062 35.5294V34.0476L18.5293 34.1232L19.2597 33.7286H21.1949L20.9598 33.9595C20.8968 34.014 20.8884 34.0308 20.8674 34.1064C20.859 34.1903 20.8507 34.4548 20.8507 34.5513V35.6679Z" fill="white"/>
<path d="M45.2802 35.1995V37.6803H44.7891V31.3712H45.2802V32.089C45.5992 31.623 46.1869 31.2578 46.8627 31.2578C48.0801 31.2578 48.9028 32.1855 48.9028 33.6505C48.9028 35.1071 48.0843 36.0516 46.8627 36.0516C46.2247 36.0516 45.6496 35.72 45.2802 35.1995ZM48.3991 33.6883C48.3991 32.5717 47.824 31.7196 46.7998 31.7196C46.1659 31.7196 45.5572 32.2233 45.2928 32.664V34.7041C45.5572 35.1449 46.1659 35.6654 46.7998 35.6654C47.824 35.6654 48.3991 34.8049 48.3991 33.6883Z" fill="white"/>
<path d="M49.5703 29.6172H50.074V35.9557H49.5703V29.6172Z" fill="white"/>
<path d="M55.553 37.2379C55.658 37.2841 55.8385 37.3135 55.9518 37.3135C56.2541 37.3135 56.4597 37.1917 56.6486 36.7552L57.0055 35.9408L55.0703 31.3359H55.6202L57.2783 35.3279L58.9238 31.3359H59.4779L57.1188 36.9063C56.8753 37.4814 56.4891 37.7584 55.9602 37.7584C55.8007 37.7584 55.5908 37.729 55.4691 37.6913L55.553 37.2379Z" fill="white"/>
<path d="M54.1653 35.955C54.1317 35.7955 54.1065 35.657 54.0897 35.5395C54.0729 35.4219 54.0645 35.3044 54.0645 35.1827C53.8966 35.4303 53.6574 35.6402 53.3467 35.8039C53.0403 35.9676 52.7465 36.0474 52.3477 36.0474C51.865 36.0474 51.4914 35.9299 51.2269 35.6864C50.9625 35.4471 50.8281 35.1197 50.8281 34.7083C50.8281 34.2969 51.0212 33.9611 51.4074 33.7051C51.7936 33.449 52.2931 33.3189 52.9102 33.3189H54.0604V32.748C54.0604 32.4206 53.947 32.1603 53.7245 31.9756C53.5021 31.7867 53.1872 31.6944 52.7801 31.6944C52.4065 31.6944 52.1042 31.7825 51.8734 31.9504C51.6467 32.1225 51.5291 32.3366 51.5291 32.5927H51.0254L51.017 32.5675C51.0002 32.2191 51.1555 31.9169 51.4956 31.6524C51.8314 31.3879 52.2679 31.2578 52.8094 31.2578C53.3467 31.2578 53.7833 31.3879 54.1107 31.6482C54.4381 31.9043 54.6019 32.2779 54.6019 32.7606V35.0273C54.6019 35.1911 54.6103 35.3464 54.6312 35.5017C54.6522 35.657 54.6858 35.8081 54.7278 35.955H54.1653ZM52.4107 35.6234C52.8304 35.6234 53.1327 35.5269 53.4391 35.3422C53.7455 35.1575 53.9512 34.914 54.0604 34.6202V33.7345H52.9018C52.461 33.7345 52.0958 33.831 51.8062 34.0325C51.5165 34.2298 51.3738 34.4691 51.3738 34.7503C51.3738 35.0148 51.4662 35.2246 51.6509 35.3842C51.8398 35.5437 52.0916 35.6234 52.4107 35.6234Z" fill="white"/>
<path d="M14.3984 25.3454C14.3984 24.4429 15.1204 23.8594 16.0187 23.8594C16.619 23.8594 17.0136 24.128 17.2613 24.4554L16.8205 24.6905C16.6526 24.4764 16.363 24.3085 16.0187 24.3085C15.4101 24.3085 14.9525 24.7409 14.9525 25.3454C14.9567 25.9456 15.4101 26.3822 16.0187 26.3822C16.3336 26.3822 16.6106 26.2479 16.7491 26.1219V25.6812H15.8257V25.2362H17.2865V26.3066C16.9842 26.6215 16.5519 26.8313 16.0187 26.8313C15.1204 26.8355 14.3984 26.2479 14.3984 25.3454Z" fill="white"/>
<path d="M17.9844 26.7943V23.9062H20.1294V24.3512H18.5343V25.0942H20.0958V25.5434H18.5343V26.3493H20.1294V26.7943H17.9844Z" fill="white"/>
<path d="M21.5881 26.7943V24.3512H20.6562V23.9062H23.0615V24.3512H22.1296V26.7943H21.5881Z" fill="white"/>
<path d="M24.9922 23.9062H25.5169V26.7943H24.9922V23.9062Z" fill="white"/>
<path d="M27.0178 26.7943V24.3512H26.0859V23.9062H28.4912V24.3512H27.5593V26.7943H27.0178Z" fill="white"/>
<path d="M30.2891 25.3532C30.2891 24.4968 30.9481 23.8672 31.8884 23.8672C32.8203 23.8672 33.4835 24.4968 33.4835 25.3532C33.4835 26.2095 32.8161 26.8392 31.8884 26.8392C30.9481 26.8392 30.2891 26.2095 30.2891 25.3532ZM32.9126 25.328C32.9126 24.7403 32.5096 24.2996 31.8842 24.2996C31.2545 24.2996 30.8558 24.7403 30.8558 25.328C30.8558 25.9115 31.2545 26.3564 31.8842 26.3564C32.5096 26.3564 32.9126 25.9157 32.9126 25.328Z" fill="white"/>
<path d="M36.2352 26.7943L34.6274 24.729V26.7943H34.0859V23.9062H34.64L36.2142 25.9086V23.9062H36.7557V26.7943H36.2352Z" fill="white"/>
<defs>
<linearGradient id="paint0_linear_2277_5544" x1="4.85155" y1="31.4064" x2="8.41621" y2="36.6375" gradientUnits="userSpaceOnUse">
<stop stop-color="#FF177B"/>
<stop offset="1" stop-color="#FFEC73"/>
</linearGradient>
<linearGradient id="paint1_linear_2277_5544" x1="6.3658" y1="24.0833" x2="-0.0370143" y2="37.6802" gradientUnits="userSpaceOnUse">
<stop stop-color="#064AA2"/>
<stop offset="1" stop-color="#63FFD4"/>
</linearGradient>
<linearGradient id="paint2_linear_2277_5544" x1="8.30476" y1="30.1902" x2="0.424572" y2="34.9044" gradientUnits="userSpaceOnUse">
<stop stop-color="#FF4521"/>
<stop offset="1" stop-color="#8A33DB"/>
</linearGradient>
<linearGradient id="paint3_linear_2277_5544" x1="3.78314" y1="26.3056" x2="6.6044" y2="33.639" gradientUnits="userSpaceOnUse">
<stop stop-color="#00A3B5"/>
<stop offset="1" stop-color="#D6FFA1"/>
</linearGradient>
</defs>
</svg>
