<svg width="1600" height="1600" viewBox="0 0 1600 1600" fill="none" xmlns="http://www.w3.org/2000/svg">
<g clip-path="url(#clip0_4630_12839)">
<mask id="mask0_4630_12839" style="mask-type:luminance" maskUnits="userSpaceOnUse" x="0" y="0" width="1600" height="1600">
<path d="M1600 0H0V1600H1600V0Z" fill="white"/>
</mask>
<g mask="url(#mask0_4630_12839)">
<path d="M1600 0H0V1600H1600V0Z" fill="white"/>
<mask id="mask1_4630_12839" style="mask-type:luminance" maskUnits="userSpaceOnUse" x="-400" y="0" width="2400" height="1600">
<path d="M2000 0H-400V1600H2000V0Z" fill="white"/>
</mask>
<g mask="url(#mask1_4630_12839)">
<path d="M2000 0H-400V1600H2000V0Z" fill="white"/>
<path d="M800 186.352L819.956 247.762L884.526 247.764L832.289 285.72L852.24 347.131L800 309.179L747.76 347.13L767.711 285.719L715.474 247.763L780.044 247.761L800 186.352Z" fill="#FFCC00"/>
<path d="M800 1252.87L819.956 1314.28H884.526L832.289 1352.24L852.24 1413.65L800 1375.7L747.76 1413.65L767.711 1352.24L715.474 1314.28H780.044L800 1252.87Z" fill="#FFCC00"/>
<path d="M1333.26 719.609L1353.21 781.019L1417.78 781.021L1365.55 818.977L1385.5 880.388L1333.26 842.437L1281.02 880.388L1300.97 818.977L1248.73 781.021L1313.3 781.019L1333.26 719.609Z" fill="#FFCC00"/>
<path d="M266.743 719.609L286.699 781.019L351.269 781.021L299.032 818.977L318.983 880.388L266.743 842.437L214.503 880.388L234.454 818.977L182.217 781.021L246.787 781.019L266.743 719.609Z" fill="#FFCC00"/>
<path d="M1262.16 452.984L1282.11 514.394L1346.68 514.396L1294.44 552.352L1314.4 613.763L1262.16 575.812L1209.92 613.763L1229.87 552.352L1177.63 514.396L1242.2 514.394L1262.16 452.984Z" fill="#FFCC00"/>
<path d="M1066.63 257.453L1086.58 318.863L1151.16 318.865L1098.92 356.821L1118.87 418.232L1066.63 380.281L1014.39 418.232L1034.34 356.821L982.104 318.865L1046.67 318.863L1066.63 257.453Z" fill="#FFCC00"/>
<path d="M533.371 1181.77L553.327 1243.17L617.897 1243.18L565.66 1281.13L585.611 1342.55L533.371 1304.59L481.131 1342.55L501.082 1281.13L448.845 1243.18L513.415 1243.17L533.371 1181.77Z" fill="#FFCC00"/>
<path d="M337.844 986.234L357.8 1047.64L422.37 1047.65L370.133 1085.6L390.084 1147.01L337.844 1109.06L285.604 1147.01L305.555 1085.6L253.318 1047.65L317.888 1047.64L337.844 986.234Z" fill="#FFCC00"/>
<path d="M337.844 452.984L357.8 514.394L422.37 514.396L370.133 552.352L390.084 613.763L337.844 575.812L285.604 613.763L305.555 552.352L253.318 514.396L317.888 514.394L337.844 452.984Z" fill="#FFCC00"/>
<path d="M1262.16 986.234L1282.11 1047.64L1346.68 1047.65L1294.44 1085.6L1314.4 1147.01L1262.16 1109.06L1209.92 1147.01L1229.87 1085.6L1177.63 1047.65L1242.2 1047.64L1262.16 986.234Z" fill="#FFCC00"/>
<path d="M533.371 257.453L553.327 318.863L617.897 318.865L565.66 356.821L585.611 418.232L533.371 380.281L481.131 418.232L501.082 356.821L448.845 318.865L513.415 318.863L533.371 257.453Z" fill="#FFCC00"/>
<path d="M1066.63 1181.77L1086.58 1243.17L1151.16 1243.18L1098.92 1281.13L1118.87 1342.55L1066.63 1304.59L1014.39 1342.55L1034.34 1281.13L982.104 1243.18L1046.67 1243.17L1066.63 1181.77Z" fill="#FFCC00"/>
<path d="M999.445 721.617H600.554C566.452 721.617 538.806 749.262 538.806 783.365V1077.78C538.806 1111.88 566.451 1139.53 600.554 1139.53H999.445C1033.55 1139.53 1061.19 1111.88 1061.19 1077.78V783.365C1061.19 749.262 1033.55 721.617 999.445 721.617ZM826.708 935.942C827.203 938.003 827.472 940.15 827.472 942.358V995.175C827.472 1010.38 815.03 1022.82 799.823 1022.82C784.616 1022.82 772.174 1010.38 772.174 995.175V942.358C772.174 940.085 772.458 937.875 772.981 935.758C757.736 926.58 747.538 909.872 747.538 890.781C747.538 861.807 771.027 838.318 800.001 838.318C828.975 838.318 852.464 861.806 852.464 890.781C852.463 910.002 842.125 926.805 826.708 935.942Z" fill="black"/>
<path d="M861.738 470.858C842.011 463.682 821.835 460.445 801.388 460.477C780.941 460.445 757.988 463.681 738.261 470.858C646.347 504.296 612.961 586.81 617.561 696.04H693.862C689.578 620.768 709.025 570.048 756.558 548.384C784.096 535.833 815.901 535.833 843.439 548.384C890.972 570.049 910.42 620.769 906.135 696.04H982.436C987.038 586.809 953.652 504.295 861.738 470.858Z" fill="black"/>
<path d="M1437.38 800C1437.38 802.027 1437.37 804.052 1437.35 806.074" stroke="black" stroke-width="0.7967" stroke-miterlimit="10"/>
<path d="M868.4 102.045L866.496 138.549L853.565 137.874L853.227 130.975C842.779 143.033 820.449 140.53 810.289 126.241C800.057 111.88 802.079 89.2088 814.48 77.4398C832.006 60.8058 866.002 68.8248 867.748 95.4288L848.154 94.4068C846.216 83.1528 832.999 83.0998 827.804 90.6518C824.147 96.0098 818.753 121.497 837.314 122.465C843.613 122.794 847.528 120.404 849.058 115.298L840.305 114.841L841.047 100.618L868.4 102.045Z" fill="black"/>
<path d="M885.548 73.8984C916.589 78.8294 927.87 78.8324 936.759 89.8984C950.809 107.507 943.905 150.433 904.145 144.117L875.126 139.508L885.548 73.8984ZM902.975 93.7104L897.834 126.073C905.755 127.331 911.707 129.051 916.659 125.13C924.284 119.004 928.435 97.7554 908.752 94.6284L902.975 93.7104Z" fill="black"/>
<path d="M961.325 86.9297C988.916 94.2447 1001.13 96.5167 1007 103.161C1019.07 116.83 1010.16 147.379 981.391 139.752L969.198 136.519L963.939 156.351L944.299 151.144L961.325 86.9297ZM976.829 107.733L973.18 121.5C982.497 123.971 990.123 127.549 992.295 119.355C994.538 110.898 985.891 110.136 976.829 107.733Z" fill="black"/>
<path d="M1029.67 105.789C1063.13 118.391 1070.26 120.181 1075.43 126.429C1085.38 138.615 1076.43 155.983 1063.48 156.733C1074.13 165.251 1062.37 182.885 1063.95 189.689L1045.07 182.58C1045.75 171.913 1054.64 161.172 1041.52 156.228L1033.52 153.216L1025.27 175.12L1006.25 167.959L1029.67 105.789ZM1043.24 127.398L1038.47 140.074C1048.78 143.957 1056.12 148.31 1059.07 140.488C1061.94 132.847 1052.05 130.716 1043.24 127.398Z" fill="black"/>
<path d="M1164.32 200.694L1146.72 232.732L1135.37 226.498L1138.07 220.139C1123.42 226.448 1104.4 214.482 1101.47 197.193C1098.51 179.839 1110.16 160.289 1126.48 155.078C1149.64 147.683 1176.57 169.867 1166.61 194.453L1149.42 185.006C1152.57 174.027 1140.69 168.232 1132.73 172.771C1127.15 175.98 1111.11 196.578 1127.45 205.553C1132.98 208.59 1137.54 208.142 1141.14 204.211L1133.46 199.991L1140.32 187.508L1164.32 200.694Z" fill="black"/>
<path d="M1191.98 182.812C1217.51 200.58 1227.93 205.668 1231.12 219.515C1236.07 241.344 1211.34 277.228 1178.15 254.126L1154.03 237.342L1191.98 182.812ZM1199.04 208.234L1180.33 235.132C1186.91 239.713 1191.52 243.854 1197.68 242.48C1207.22 240.286 1220.2 222.96 1203.84 211.577L1199.04 208.234Z" fill="black"/>
<path d="M1254.5 227.516C1276.24 246.151 1286.18 253.448 1288.58 261.981C1293.54 279.623 1272.11 303.09 1249.62 283.81L1240.04 275.599L1226.69 291.176L1211.26 277.951L1254.5 227.516ZM1259.43 252.99L1250.16 263.803C1257.48 270.082 1262.79 276.611 1268.3 270.178C1274.02 263.515 1266.48 259.04 1259.43 252.99Z" fill="black"/>
<path d="M1307.82 274.141C1332.32 299.795 1338.15 304.658 1340.12 312.572C1343.81 327.908 1328.18 339.629 1316.22 334.707C1322.12 346.979 1303.88 357.836 1302.36 364.61L1288.43 350.024C1293.64 340.71 1306.33 334.877 1296.64 324.733L1290.74 318.553L1273.81 334.72L1259.78 320.027L1307.82 274.141ZM1310.69 299.498L1300.89 308.853C1308.51 316.829 1313.23 323.922 1319.28 318.151C1325.19 312.501 1317.13 306.24 1310.69 299.498Z" fill="black"/>
<path d="M1388.12 417.926L1358.41 439.215L1350.87 428.69L1356.05 424.121C1340.11 423.481 1328.13 404.47 1332.96 387.613C1337.8 370.657 1356.77 358.091 1373.71 360.439C1397.68 363.762 1412.57 395.341 1392.89 413.29L1381.46 397.34C1389.05 388.804 1380.84 378.444 1371.7 379.095C1365.27 379.576 1341.91 391.224 1352.77 406.377C1356.44 411.504 1360.75 413.073 1365.7 411.083L1360.59 403.958L1372.17 395.663L1388.12 417.926Z" fill="black"/>
<path d="M1420.81 413.766C1436.32 441.105 1443.35 449.923 1440.25 463.773C1435.25 485.734 1397.39 507.119 1377.52 472.102L1363.03 446.546L1420.81 413.766ZM1416.19 439.744L1387.69 455.913C1391.65 462.889 1394.02 468.615 1400.17 470.039C1409.57 472.147 1428.96 462.251 1419.08 444.832L1416.19 439.744Z" fill="black"/>
<path d="M1457.89 481.125C1469.62 507.789 1475.22 518.253 1473.7 526.944C1470.53 545.002 1441.06 556.881 1429.13 529.762L1424.05 518.215L1405.27 526.479L1397.08 507.881L1457.89 481.125ZM1451.3 506.221L1438.27 511.958C1442.15 520.78 1444.11 528.974 1451.87 525.559C1459.84 522.053 1455.13 514.922 1451.3 506.221Z" fill="black"/>
<path d="M1485.79 546.266C1496.73 580.01 1499.87 586.921 1498.21 594.904C1494.9 610.246 1475.77 614.157 1467.08 604.479C1467.06 618.094 1445.91 619.969 1441.62 625.407L1435.39 606.22C1444.14 600.087 1458.09 600.337 1453.76 586.996L1451.13 578.867L1428.86 586.089L1422.59 566.762L1485.79 546.266ZM1477.37 570.356L1464.48 574.535C1467.89 585.032 1469.07 593.467 1477.01 590.889C1484.78 588.371 1480.28 579.321 1477.37 570.356Z" fill="black"/>
<path d="M1495.62 710.727L1459.6 716.957L1457.4 704.198L1464.05 702.34C1449.98 694.825 1447.47 672.493 1459.15 659.42C1470.87 646.284 1493.42 643.191 1507.67 652.696C1528 666.252 1527.25 701.097 1501.93 708.625L1498.59 689.291C1509.13 684.909 1506.26 672.01 1497.74 668.615C1491.84 666.289 1465.63 666.49 1468.82 684.937C1469.9 691.152 1473.1 694.44 1478.42 694.801L1476.92 686.164L1490.95 683.737L1495.62 710.727Z" fill="black"/>
<path d="M1526.85 721.211C1528.92 752.576 1531.41 763.575 1522.59 774.693C1508.6 792.194 1465.15 795.224 1462.49 754.892L1460.56 725.574L1526.85 721.211ZM1511.39 742.591L1478.69 744.743C1479.22 752.728 1478.86 758.933 1483.78 762.893C1491.33 768.886 1513.09 768.419 1511.78 748.429L1511.39 742.591Z" fill="black"/>
<path d="M1530.93 797.895C1529.95 827.009 1530.45 838.866 1525.31 846.038C1514.69 860.864 1482.92 859.001 1483.93 829.256L1484.35 816.649L1463.85 815.955L1464.54 795.648L1530.93 797.895ZM1514.12 817.656L1499.88 817.174C1499.56 826.815 1497.78 835.041 1506.24 835.327C1514.94 835.622 1513.8 827.176 1514.12 817.656Z" fill="black"/>
<path d="M1527.85 868.644C1523.13 903.798 1522.98 911.392 1518.03 917.873C1508.45 930.225 1489.48 925.588 1485.81 913.046C1479.9 925.336 1460.08 917.844 1453.8 920.91L1456.49 900.919C1467.03 899.171 1479.5 905.428 1481.36 891.526L1482.5 883.056L1459.3 879.943L1462.01 859.805L1527.85 868.644ZM1509.85 886.728L1496.42 884.925C1494.96 895.83 1492.36 903.977 1500.65 905.089C1508.73 906.174 1508.59 896.095 1509.85 886.728Z" fill="black"/>
<path d="M1465.66 1021.18L1430.48 1011.23L1434.01 998.773L1440.81 999.972C1431.37 987.11 1438.76 965.891 1454.94 959.15C1471.18 952.366 1492.85 959.319 1501.6 974.05C1513.95 994.84 1498.57 1026.2 1472.25 1022.01L1477.59 1003.13C1489 1003.73 1491.98 990.858 1485.76 984.115C1481.45 979.468 1457.73 968.325 1452.63 986.34C1450.92 992.409 1452.38 996.756 1457.02 999.38L1459.41 990.945L1473.11 994.821L1465.66 1021.18Z" fill="black"/>
<path d="M1489.28 1044.16C1477.56 1073.32 1475.04 1084.32 1462.28 1090.52C1441.98 1100.3 1401.67 1084.01 1416.68 1046.65L1427.63 1019.39L1489.28 1044.16ZM1466.08 1056.74L1435.68 1044.52C1432.72 1051.88 1429.68 1057.38 1432.41 1063.08C1436.67 1071.87 1456.47 1080.67 1463.9 1062.17L1466.08 1056.74Z" fill="black"/>
<path d="M1459.69 1115.14C1446.41 1140.41 1441.48 1151.81 1433.7 1156.06C1417.52 1164.87 1389.97 1149.12 1403.72 1122.95L1409.59 1111.78L1391.43 1102.24L1400.88 1084.25L1459.69 1115.14ZM1435.95 1125.63L1423.35 1119C1418.86 1127.54 1413.68 1134.18 1421.18 1138.12C1428.89 1142.17 1431.53 1134.04 1435.95 1125.63Z" fill="black"/>
<path d="M1426.11 1177.55C1406.59 1207.08 1403.12 1213.9 1395.83 1217.59C1381.73 1224.58 1366.79 1212.01 1368.93 1199.21C1358.27 1207.7 1343.65 1192.33 1336.69 1192.35L1347.81 1175.53C1358.07 1178.55 1366.57 1189.61 1374.3 1177.91L1379.01 1170.78L1359.48 1157.87L1370.69 1140.92L1426.11 1177.55ZM1402.03 1185.99L1390.72 1178.52C1384.65 1187.71 1378.78 1193.9 1385.75 1198.51C1392.56 1203.01 1396.83 1193.85 1402.03 1185.99Z" fill="black"/>
<path d="M1303.78 1287.81L1276.42 1263.57L1285 1253.88L1290.61 1257.92C1287.69 1242.23 1303.56 1226.33 1321.07 1227.28C1338.65 1228.23 1355.14 1243.91 1356.63 1260.97C1358.71 1285.06 1331.25 1306.63 1309.36 1291.42L1322.37 1276.73C1332.38 1282.23 1340.66 1271.93 1337.99 1263.16C1336.08 1256.98 1319.52 1236.84 1307.18 1250.77C1303 1255.49 1302.43 1260.04 1305.47 1264.42L1311.28 1257.86L1321.94 1267.3L1303.78 1287.81Z" fill="black"/>
<path d="M1315.14 1318.72C1291.95 1339.93 1284.92 1348.75 1270.72 1348.81C1248.38 1348.83 1218.74 1316.85 1248.62 1289.53L1270.31 1269.7L1315.14 1318.72ZM1288.79 1320.01L1266.67 1295.83C1260.92 1301.09 1255.7 1304.77 1255.68 1311.14C1255.73 1320.79 1269.69 1337.47 1284.47 1323.96L1288.79 1320.01Z" fill="black"/>
<path d="M1257.76 1369.88C1234.71 1387.05 1225.47 1395.08 1216.64 1395.54C1198.33 1396.49 1180.16 1370.42 1203.92 1352.73L1214.04 1345.19L1201.78 1328.74L1218.08 1316.6L1257.76 1369.88ZM1231.83 1369.08L1223.32 1357.65C1215.58 1363.42 1208.05 1367.16 1213.11 1373.95C1218.33 1380.96 1224.28 1374.7 1231.83 1369.08Z" fill="black"/>
<path d="M1200.53 1411.63C1169.87 1430.02 1164.04 1434.49 1155.93 1434.66C1140.21 1434.88 1132.14 1417.1 1139.61 1406.47C1126.35 1409.52 1119.75 1389.32 1113.5 1386.36L1130.8 1375.99C1138.71 1383.11 1141.63 1396.78 1153.65 1389.57L1160.98 1385.18L1148.95 1365.11L1166.37 1354.66L1200.53 1411.63ZM1175.17 1408.84L1168.2 1397.22C1158.76 1402.89 1150.78 1405.94 1155.08 1413.11C1159.29 1420.12 1167.17 1413.64 1175.17 1408.84Z" fill="black"/>
<path d="M1042.52 1458.18L1028.35 1424.49L1040.28 1419.47L1043.59 1425.53C1047.75 1410.13 1068.94 1402.66 1084.31 1411.1C1099.77 1419.58 1107.82 1440.87 1101.78 1456.87C1093.23 1479.47 1059.14 1487.04 1045.99 1463.85L1064.07 1456.25C1070.72 1465.54 1082.64 1459.83 1084.03 1450.77C1084.97 1444.5 1078.88 1419.01 1061.62 1426.27C1055.81 1428.71 1053.32 1432.57 1054.17 1437.83L1062.25 1434.43L1067.77 1447.56L1042.52 1458.18Z" fill="black"/>
<path d="M1039.31 1490.97C1009.21 1500.01 999.048 1504.91 986.235 1498.8C965.947 1489.04 953.492 1447.38 992.067 1435.79L1020.21 1427.34L1039.31 1490.97ZM1015.01 1480.69L1005.59 1449.31C997.907 1451.61 991.797 1452.65 989.04 1458.33C984.893 1467.03 990.216 1488.13 1009.41 1482.37L1015.01 1480.69Z" fill="black"/>
<path d="M965.369 1512.15C937.251 1517.55 925.352 1520.79 917.179 1517.35C900.282 1510.24 895.267 1478.86 924.361 1473.27L936.75 1470.89L932.877 1450.74L952.83 1446.91L965.369 1512.15ZM942.37 1500.14L939.682 1486.15C930.217 1487.97 921.793 1488.06 923.392 1496.38C925.043 1504.97 933.147 1501.91 942.37 1500.14Z" fill="black"/>
<path d="M895.651 1524.82C860.038 1528.02 852.844 1529.51 845.468 1526.13C831.172 1519.47 831.744 1499.94 843.049 1493.65C829.788 1490.61 832.634 1469.56 828.3 1464.17L848.39 1462.37C852.423 1472.25 849.084 1485.81 863.052 1484.55L871.563 1483.79L869.468 1460.47L889.705 1458.66L895.651 1524.82ZM874.033 1511.27L872.82 1497.78C861.847 1498.76 853.343 1498.03 854.091 1506.36C854.823 1514.49 864.655 1512.11 874.033 1511.27Z" fill="black"/>
<path d="M733.17 1498.1L734.993 1461.59L747.925 1462.24L748.279 1469.14C758.699 1457.06 781.036 1459.51 791.228 1473.78C801.473 1488.09 799.545 1510.76 787.145 1522.59C769.658 1539.26 735.645 1531.32 733.837 1504.72L753.434 1505.7C755.396 1516.95 768.612 1516.97 773.792 1509.4C777.379 1504.13 782.88 1478.55 764.211 1477.61C757.911 1477.3 754.002 1479.7 752.483 1484.8L761.237 1485.24L760.526 1499.47L733.17 1498.1Z" fill="black"/>
<path d="M716.125 1526.3C685.068 1521.44 673.792 1521.46 664.877 1510.41C650.968 1493.06 657.225 1449.84 697.366 1456.12L726.395 1460.66L716.125 1526.3ZM698.653 1506.52L703.718 1474.15C695.794 1472.91 689.837 1471.2 684.895 1475.14C677.398 1481.19 673.082 1502.52 692.873 1505.62L698.653 1506.52Z" fill="black"/>
<path d="M640.295 1513.43C612.602 1506.16 600.471 1503.93 594.586 1497.3C582.418 1483.59 591.452 1453.13 620.108 1460.65L632.309 1463.86L637.522 1444.02L657.174 1449.18L640.295 1513.43ZM624.743 1492.66L628.362 1478.89C619.033 1476.44 611.404 1472.88 609.251 1481.08C607.04 1489.49 615.529 1490.24 624.743 1492.66Z" fill="black"/>
<path d="M571.924 1494.73C538.75 1482.33 531.34 1480.48 526.116 1474.2C516.138 1462.03 525.046 1444.65 537.991 1443.87C527.342 1435.39 539.029 1417.65 537.449 1410.91L556.342 1417.98C555.7 1428.64 546.826 1439.41 559.962 1444.32L567.966 1447.32L576.165 1425.39L595.196 1432.51L571.924 1494.73ZM558.3 1473.16L563.045 1460.47C552.656 1456.58 545.374 1452.27 542.446 1460.1C539.587 1467.75 549.481 1469.86 558.3 1473.16Z" fill="black"/>
<path d="M437.063 1400.15L454.587 1368.07L465.95 1374.28L463.267 1380.64C477.905 1374.3 496.95 1386.23 499.92 1403.5C502.923 1420.88 491.284 1440.44 475.008 1445.68C452.006 1453.08 424.838 1431.13 434.784 1406.4L452.003 1415.8C448.875 1426.78 460.763 1432.56 468.719 1428C474.295 1424.78 490.282 1404.14 473.923 1395.2C468.388 1392.18 463.825 1392.64 460.234 1396.58L467.926 1400.78L461.098 1413.28L437.063 1400.15Z" fill="black"/>
<path d="M409.412 1418.07C383.575 1400.18 373.408 1395.28 370.194 1381.46C365.165 1359.51 389.984 1323.81 423.083 1346.73L447.237 1363.46L409.412 1418.07ZM402.292 1392.67L420.949 1365.73C414.549 1361.3 409.789 1357.02 403.574 1358.42C394.179 1360.6 381.019 1377.93 397.482 1389.33L402.292 1392.67Z" fill="black"/>
<path d="M346.812 1373.52C325.033 1354.94 315.074 1347.66 312.652 1339.13C307.653 1321.5 329.031 1297.99 351.565 1317.21L361.161 1325.4L374.479 1309.8L389.935 1322.98L346.812 1373.52ZM341.83 1348.06L351.075 1337.22C343.743 1330.97 338.414 1324.44 332.912 1330.89C327.198 1337.58 334.812 1342.07 341.83 1348.06Z" fill="black"/>
<path d="M293.392 1327.02C268.636 1301.22 262.98 1296.53 261.007 1288.66C257.29 1273.38 272.845 1261.56 284.853 1266.47C278.93 1254.22 297.147 1243.3 298.645 1236.54L312.61 1251.09C307.412 1260.42 294.746 1266.28 304.457 1276.4L310.374 1282.57L327.263 1266.37L341.33 1281.03L293.392 1327.02ZM290.464 1301.67L300.238 1292.29C292.631 1284.36 287.872 1277.24 281.833 1283.04C275.924 1288.71 284.04 1294.98 290.464 1301.67Z" fill="black"/>
<path d="M212.759 1183.42L242.425 1162.06L249.99 1172.57L244.82 1177.15C260.758 1177.75 272.785 1196.74 267.996 1213.61C263.195 1230.57 244.248 1243.18 227.307 1240.88C203.232 1237.59 188.443 1205.99 208.007 1188.07L219.471 1203.99C211.902 1212.55 220.135 1222.89 229.276 1222.22C235.595 1221.73 259.085 1210.09 248.14 1194.89C244.454 1189.77 240.142 1188.21 235.201 1190.21L240.322 1197.33L228.763 1205.65L212.759 1183.42Z" fill="black"/>
<path d="M180.09 1187.67C164.516 1160.36 157.464 1151.56 160.536 1137.71C165.44 1115.93 203.156 1094.02 223.239 1129.23L237.796 1154.75L180.09 1187.67ZM184.645 1161.68L213.109 1145.45C209.251 1138.68 206.805 1132.77 200.596 1131.35C191.203 1129.27 171.816 1139.19 181.746 1156.6L184.645 1161.68Z" fill="black"/>
<path d="M142.855 1120.41C131.263 1094.23 125.431 1083.36 126.938 1074.62C130.055 1056.58 159.499 1044.6 171.503 1071.7L176.611 1083.24L195.371 1074.93L203.598 1093.5L142.855 1120.41ZM149.381 1095.29L162.404 1089.53C158.501 1080.71 156.52 1072.52 148.77 1075.96C140.779 1079.5 145.573 1086.69 149.381 1095.29Z" fill="black"/>
<path d="M114.789 1055.27C103.702 1021.35 100.62 1014.59 102.253 1006.66C105.535 991.271 124.681 987.391 133.365 997.017C133.346 983.394 154.473 981.502 158.78 976.031L165.047 995.204C156.323 1001.35 142.363 1001.14 146.72 1014.47L149.375 1022.59L171.623 1015.32L177.936 1034.63L114.789 1055.27ZM123.15 1031.16L136.025 1026.96C132.602 1016.48 131.403 1008.03 123.459 1010.63C115.705 1013.16 120.214 1022.18 123.15 1031.16Z" fill="black"/>
<path d="M104.582 890.868L140.586 884.555L142.822 897.309L136.174 899.182C150.262 906.666 152.824 928.988 141.17 942.091C129.461 955.276 106.915 958.381 92.6675 948.926C72.5425 935.574 72.7355 900.643 98.2795 892.984L101.669 912.311C91.1325 916.716 94.0365 929.607 102.564 932.985C108.584 935.342 134.655 934.924 131.442 916.595C130.353 910.383 127.148 907.102 121.829 906.753L123.343 915.386L109.314 917.846L104.582 890.868Z" fill="black"/>
<path d="M73.3268 880.452C71.1918 849.091 68.6718 838.098 77.4718 826.96C91.3628 809.493 134.857 806.185 137.611 846.624L139.607 875.938L73.3268 880.452ZM88.7398 859.037L121.433 856.81C120.888 848.809 121.234 842.622 116.305 838.672C108.765 832.715 86.9818 833.193 88.3428 853.199L88.7398 859.037Z" fill="black"/>
<path d="M69.0771 803.792C69.9971 774.676 69.4612 762.82 74.5832 755.636C85.1392 740.837 116.95 742.521 116.009 772.324L115.611 784.933L136.118 785.58L135.477 805.888L69.0771 803.792ZM85.8452 783.993L100.081 784.442C100.385 774.8 102.147 766.57 93.6782 766.303C84.9322 766.026 86.1412 774.622 85.8452 783.993Z" fill="black"/>
<path d="M72 733.007C76.677 697.557 76.803 690.211 81.712 683.755C91.333 671.288 110.269 676.08 113.936 688.508C119.814 676.206 139.661 683.652 145.925 680.572L143.287 700.57C132.771 702.336 120.266 696.124 118.432 710.018L117.314 718.49L140.519 721.551L137.862 741.695L72 733.007ZM89.963 714.882L103.392 716.653C104.835 705.712 107.402 697.592 99.119 696.499C91.025 695.433 91.196 705.538 89.963 714.882Z" fill="black"/>
<path d="M133.844 580.334L169.04 590.199L165.545 602.667L158.74 601.483C168.211 614.318 160.877 635.557 144.703 642.337C128.475 649.157 106.789 642.254 98.0094 627.543C85.6254 606.796 100.905 575.388 127.245 579.518L121.949 598.411C110.544 597.832 107.594 610.714 113.823 617.442C118.216 622.15 141.917 633.09 146.948 615.141C148.65 609.067 147.177 604.724 142.531 602.111L140.165 610.55L126.451 606.706L133.844 580.334Z" fill="black"/>
<path d="M110.167 557.416C121.82 528.221 124.309 517.223 137.063 510.992C157.316 501.181 197.695 517.337 182.76 554.756L171.867 582.045L110.167 557.416ZM133.333 544.785L163.767 556.933C166.74 549.484 169.731 544.057 166.997 538.363C162.689 529.545 142.875 520.881 135.502 539.352L133.333 544.785Z" fill="black"/>
<path d="M139.599 486.348C152.856 460.974 157.727 449.639 165.498 445.378C181.569 436.57 209.263 452.163 195.545 478.419L189.704 489.6L207.89 499.1L198.482 517.109L139.599 486.348ZM163.308 475.81L175.932 482.405C180.399 473.855 185.564 467.21 178.054 463.286C170.298 459.235 167.649 467.501 163.308 475.81Z" fill="black"/>
<path d="M173.021 423.896C192.627 394.081 195.992 387.457 203.211 383.788C217.287 376.761 232.262 389.304 230.149 402.1C240.789 393.592 255.441 408.929 262.402 408.886L251.319 425.739C241.082 422.748 232.53 411.711 224.83 423.421L220.135 430.561L239.691 443.422L228.527 460.398L173.021 423.896ZM197.084 415.401L208.401 422.843C214.474 413.608 220.305 407.425 213.331 402.84C206.51 398.354 202.263 407.527 197.084 415.401Z" fill="black"/>
<path d="M295.1 313.349L322.518 337.523L313.955 347.235L308.339 343.213C311.296 358.891 295.459 374.833 277.95 373.915C260.341 373.008 243.834 357.338 242.318 340.308C240.176 316.259 267.57 294.581 289.511 309.749L276.534 324.467C266.512 318.991 258.259 329.312 260.948 338.078C262.829 344.13 279.395 364.445 291.784 350.393C295.955 345.662 296.516 341.11 293.466 336.739L287.669 343.313L276.986 333.894L295.1 313.349Z" fill="black"/>
<path d="M283.694 282.437C306.842 261.171 313.849 252.335 328.043 252.242C350.47 252.17 380.013 284.16 350.276 311.48L328.639 331.358L283.694 282.437ZM310.044 281.086L332.213 305.217C337.946 299.95 343.165 296.248 343.168 289.878C343.105 280.241 329.098 263.58 314.352 277.129L310.044 281.086Z" fill="black"/>
<path d="M340.929 231.179C363.85 214.026 373.142 205.909 381.991 205.426C400.296 204.429 418.528 230.457 394.807 248.208L384.707 255.767L397 272.194L380.732 284.368L340.929 231.179ZM366.864 231.923L375.398 243.326C383.122 237.546 390.651 233.786 385.574 227.002C380.363 220.039 374.493 226.214 366.864 231.923Z" fill="black"/>
<path d="M398.083 189.28C428.708 170.823 434.528 166.34 442.637 166.151C458.361 165.894 466.457 183.673 459.021 194.303C472.282 191.23 478.915 211.406 485.178 214.357L467.902 224.769C459.952 217.64 457.021 204 445.013 211.235L437.694 215.646L449.775 235.693L432.373 246.181L398.083 189.28ZM423.455 192.015L430.447 203.617C439.914 197.912 447.843 194.855 443.534 187.706C439.319 180.712 431.527 187.15 423.455 192.015Z" fill="black"/>
<path d="M555.979 142.37L570.229 176.031L558.306 181.079L554.985 175.022C550.863 190.435 529.685 197.949 514.3 189.543C498.818 181.102 490.723 159.831 496.728 143.822C505.223 121.178 539.301 113.56 552.499 136.705L534.43 144.355C527.766 135.08 515.859 140.811 514.488 149.877C513.542 156.294 519.835 181.575 536.953 174.328C542.761 171.869 545.237 168.009 544.38 162.747L536.309 166.164L530.757 153.048L555.979 142.37Z" fill="black"/>
<path d="M559.124 109.564C589.207 100.456 599.357 95.5368 612.184 101.616C632.488 111.32 645.055 152.957 606.496 164.633L578.374 173.147L559.124 109.564ZM583.448 119.787L592.943 151.149C600.619 148.825 606.727 147.776 609.471 142.086C613.595 133.385 608.227 112.284 589.047 118.091L583.448 119.787Z" fill="black"/>
<path d="M632.999 88.2363C661.1 82.7673 672.998 79.5043 681.176 82.9203C698.091 89.9893 703.179 121.357 674.096 127.016L661.713 129.426L665.632 149.566L645.688 153.447L632.999 88.2363ZM656.025 100.193L658.746 114.173C668.207 112.332 676.631 112.226 675.012 103.905C673.349 95.3613 665.356 98.3773 656.025 100.193Z" fill="black"/>
<path d="M702.697 75.3924C738.23 72.1184 745.506 70.6154 752.877 73.9694C767.145 80.5854 766.694 100.114 755.37 106.447C768.591 109.441 765.915 130.601 770.185 135.889L750.1 137.74C746.052 127.876 749.342 114.305 735.388 115.591L726.879 116.375L729.026 139.682L708.794 141.546L702.697 75.3924ZM724.346 88.9004L725.589 102.389C736.56 101.378 745.065 102.087 744.298 93.7644C743.549 85.6334 733.723 88.0364 724.346 88.9004Z" fill="black"/>
</g>
</g>
</g>
<defs>
<clipPath id="clip0_4630_12839">
<rect width="1600" height="1600" fill="white"/>
</clipPath>
</defs>
</svg>
