<svg width="1656" height="1601" viewBox="0 0 1656 1601" fill="none" xmlns="http://www.w3.org/2000/svg">
<mask id="mask0_4650_13968" style="mask-type:luminance" maskUnits="userSpaceOnUse" x="0" y="0" width="1656" height="1600">
<path d="M1655.95 0H0V1600H1655.95V0Z" fill="white"/>
</mask>
<g mask="url(#mask0_4650_13968)">
<path fill-rule="evenodd" clip-rule="evenodd" d="M770.741 2.0867C978.757 -12.6581 1174.22 52.7484 1325.96 171.841L1210.54 311.16C1093.41 220.423 943.2 170.707 783.481 182.049C440.464 206.246 181.871 502.654 206.209 843.864C230.737 1185.26 528.88 1442.16 872.087 1417.97C1215.48 1393.58 1473.89 1097.17 1449.55 755.962C1441.18 639.516 1400.87 532.711 1337.75 443.675L1456.39 300.385C1555.08 422.692 1618.59 574.866 1630.56 743.108C1662.13 1183.75 1328.24 1566.55 885.207 1597.93C441.985 1629.31 56.9477 1297.36 25.3841 856.907C-6.1796 416.264 327.71 33.4667 770.741 2.0867Z" fill="#727271"/>
<path fill-rule="evenodd" clip-rule="evenodd" d="M431.794 708.887C411.448 688.472 422.096 669.379 447.385 652.366L539.604 588.85C584.288 559.549 605.203 582.422 636.387 613.046C676.887 655.579 716.056 737.621 755.796 839.511C764.162 856.525 777.282 858.415 788.881 841.78C1045.19 477.129 1319.95 231.95 1571.7 92.6296C1591.09 81.8546 1608.58 95.2761 1588.62 118.339C1274.12 379.587 1028.08 720.797 864.748 1158.41C853.719 1184.5 850.487 1197.55 821.205 1200.19L728.606 1200C693.429 1201.7 678.028 1174.48 659.964 1123.82C592.654 965.22 520.4 779.02 431.794 708.887Z" fill="#0D8B04"/>
<path d="M431.794 708.887C411.448 688.472 422.096 669.379 447.385 652.366L539.604 588.85C584.288 559.549 605.203 582.422 636.387 613.046C676.887 655.579 716.056 737.621 755.796 839.511C764.162 856.525 777.282 858.415 788.881 841.78C1045.19 477.129 1319.95 231.95 1571.7 92.6296C1591.09 81.8546 1608.58 95.2761 1588.62 118.339C1274.12 379.587 1028.08 720.797 864.748 1158.41C853.719 1184.5 850.487 1197.55 821.205 1200.19L728.606 1200C693.429 1201.7 678.028 1174.48 659.964 1123.82C592.654 965.22 520.4 779.02 431.794 708.887Z" fill="#0D8B04"/>
<path d="M827.099 361.258C949.361 361.447 1060.02 410.785 1140.07 490.18C1220.12 569.575 1269.56 679.783 1269.56 801.144H1269.75V801.522H1269.56C1269.56 923.073 1219.93 1033.09 1139.88 1112.49C1059.83 1192.07 949.361 1241.22 827.099 1241.22V1241.41H826.719V1241.22C704.458 1241.22 593.985 1191.88 513.935 1112.3C433.885 1032.71 384.448 922.883 384.448 801.333H384.258V800.955H384.448C384.448 679.405 434.076 569.386 514.125 489.991C594.175 410.596 704.838 361.447 827.099 361.258ZM827.099 410.785L826.909 410.974V410.785C718.718 410.785 620.605 454.642 549.492 525.152C478.379 595.851 434.266 693.394 434.266 801.144H434.456V801.522H434.266C434.266 909.084 478.189 1006.63 549.302 1077.33V1077.51C620.415 1148.21 718.528 1191.88 826.909 1191.88V1191.69H827.29V1191.88C935.481 1191.88 1033.59 1148.21 1104.71 1077.51C1175.82 1006.82 1219.93 909.273 1219.93 801.522H1219.74V801.144H1219.93C1219.93 693.583 1175.82 596.04 1104.9 525.341C1033.59 454.642 935.481 410.785 827.099 410.785Z" fill="#FE0000" stroke="#FEFEFE" stroke-miterlimit="10"/>
<path d="M317.898 862.101C302.307 856.997 293.75 845.655 292.229 828.264H294.511C296.603 837.338 299.455 843.954 303.258 848.302C306.87 852.838 312.384 857.375 319.42 861.534L317.898 862.101ZM319.039 863.424C320.751 863.613 322.272 863.613 323.603 863.613C324.934 863.803 327.025 864.181 330.068 864.559C338.814 863.803 344.138 863.235 346.23 862.857C353.075 861.534 358.399 858.32 362.202 853.027C366.004 847.923 367.906 842.063 367.906 835.636C367.906 829.209 366.195 823.349 362.962 818.434C359.73 813.708 355.166 810.116 349.272 808.037C343.378 805.769 334.061 803.311 321.321 800.476C308.391 797.829 298.504 794.615 291.469 791.024C284.243 787.432 278.539 780.816 274.356 771.553C272.264 767.016 270.933 761.345 270.363 754.729C270.933 746.033 273.215 737.905 277.588 729.776C287.095 715.787 302.117 708.793 322.842 708.793C328.737 708.793 337.103 710.116 347.561 712.574C358.209 715.031 364.673 716.355 366.575 716.733C370.378 716.544 373.8 715.976 376.652 715.031C379.314 714.086 381.216 713.708 382.357 713.33C375.512 724.861 368.666 738.85 361.441 755.107C359.349 744.899 354.976 736.581 348.321 729.587C341.666 722.782 333.49 719.19 323.793 719.19C314.096 719.19 306.87 722.404 300.976 728.264C296.412 733.179 294.131 739.417 294.131 747.167C294.131 749.436 294.321 751.704 294.701 754.351C295.462 760.022 299.074 764.559 305.539 767.583C312.004 770.797 321.321 773.443 333.87 776.279C346.04 779.114 352.504 780.816 353.265 780.816C365.624 784.218 374.371 790.268 379.505 798.585C384.448 807.281 387.11 816.544 387.11 826.751C387.11 841.307 381.786 852.649 370.948 861.156C360.11 869.474 347.371 873.821 332.73 874.2C328.927 874.01 323.983 873.632 318.089 872.876C313.335 872.12 305.729 870.041 294.891 866.827C284.243 863.614 277.588 862.101 274.736 861.912C268.081 861.912 263.138 863.614 259.715 867.016L259.145 866.449C267.321 853.406 274.546 838.283 280.821 821.269C285.194 845.088 297.743 859.077 319.039 863.424ZM381.976 793.481L383.117 794.048C393.005 799.53 397.948 810.305 397.948 826.184C397.948 843.765 391.864 857.753 379.314 868.339C366.955 879.114 351.744 884.407 334.061 884.407C328.356 884.407 319.039 882.706 306.49 879.303C293.75 876.09 284.053 874.389 277.398 874.389C272.074 874.389 268.271 874.956 265.99 876.468L264.659 873.821C267.701 871.931 272.074 870.986 277.778 870.986C284.053 870.986 292.8 872.498 303.638 875.145C314.476 878.358 321.701 879.871 325.694 880.249C328.166 880.438 330.638 880.438 332.92 880.438C347.18 880.438 359.349 877.413 369.427 871.553C381.216 864.748 389.202 854.162 393.385 839.228C394.526 835.447 395.096 831.099 395.096 826.373C394.716 813.708 390.533 802.744 381.976 793.481ZM316.758 768.907C312.574 767.583 308.772 764.748 305.729 760.778C302.307 756.997 300.405 752.649 300.405 747.735C303.448 732.801 311.624 725.239 324.934 725.239C331.018 725.239 337.103 726.941 343.378 730.154C349.462 733.368 353.455 737.905 355.356 743.576L354.216 742.631C345.659 733.557 336.152 729.209 325.694 729.209C313.335 729.209 305.92 735.636 303.448 748.869C303.828 751.893 304.779 754.54 306.11 756.619C307.441 758.888 309.342 761.156 311.434 763.235C313.525 765.315 315.617 767.205 317.518 768.907H316.758ZM365.624 758.888C376.082 735.258 383.117 721.269 386.73 717.111L388.441 719.757C383.878 728.831 380.265 736.581 377.413 742.631C374.371 749.058 371.328 755.296 367.906 761.723L365.624 758.888ZM408.977 712.952H462.787L448.526 729.398V857.564L462.787 872.12H408.977L425.899 857.564V729.398L408.977 712.952ZM466.209 716.544L468.491 718.245L456.892 730.532V855.863L477.998 880.438H417.913L415.061 877.035H472.104L454.23 857.375V730.343L466.209 716.544ZM539.794 862.29C524.203 857.186 515.646 845.844 514.125 828.453H516.407C518.498 837.527 521.351 844.143 525.153 848.491C528.766 853.027 534.28 857.564 541.316 861.723L539.794 862.29ZM540.935 863.613C542.647 863.803 544.168 863.803 545.499 863.803C546.83 863.992 548.921 864.37 551.964 864.748C560.71 863.992 566.034 863.424 568.126 863.046C574.971 861.723 580.295 858.51 584.098 853.217C587.9 848.113 589.802 842.252 589.802 835.825C589.802 829.398 588.091 823.538 584.858 818.623C581.626 813.897 577.062 810.305 571.168 808.226C565.273 805.958 555.956 803.5 543.217 800.665C530.287 798.018 520.4 794.804 513.365 791.213C506.139 787.621 500.435 781.005 496.252 771.742C494.16 767.205 492.829 761.534 492.259 754.918C492.829 746.222 495.111 738.094 499.484 729.965C508.991 715.977 524.013 708.982 544.738 708.982C550.632 708.982 558.999 710.305 569.457 712.763C580.105 715.22 586.569 716.544 588.471 716.922C592.274 716.733 595.696 716.166 598.548 715.22C601.21 714.275 603.112 713.897 604.253 713.519C597.408 725.05 590.562 739.039 583.337 755.296C581.245 745.088 576.872 736.77 570.217 729.776C563.562 722.971 555.386 719.379 545.689 719.379C535.992 719.379 528.766 722.593 522.872 728.453C518.308 733.368 516.027 739.606 516.027 747.356C516.027 749.625 516.217 751.893 516.597 754.54C517.358 760.211 520.97 764.748 527.435 767.772C533.9 770.986 543.217 773.632 555.766 776.468C567.935 779.303 574.4 781.005 575.161 781.005C587.52 784.407 596.267 790.457 601.4 798.774C606.344 807.47 609.006 816.733 609.006 826.941C609.006 841.496 603.682 852.838 592.844 861.345C582.006 869.663 569.266 874.01 554.625 874.389C550.823 874.2 545.879 873.821 539.985 873.065C535.231 872.309 527.625 870.23 516.787 867.016C506.139 863.803 499.484 862.29 496.632 862.101C489.977 862.101 485.033 863.803 481.611 867.205L481.04 866.638C489.217 853.595 496.442 838.472 502.717 821.459C506.9 844.899 519.639 858.888 540.555 863.235L540.935 863.613ZM603.872 793.67L605.013 794.237C614.901 799.719 619.844 810.494 619.844 826.373C619.844 843.954 613.76 857.942 601.21 868.528C588.851 879.303 573.64 884.596 555.957 884.596C550.252 884.596 540.935 882.895 528.386 879.492C515.646 876.279 505.949 874.578 499.294 874.578C493.97 874.578 490.167 875.145 487.886 876.657L486.555 874.01C489.597 872.12 493.97 871.175 499.674 871.175C505.949 871.175 514.696 872.687 525.534 875.334C536.372 878.547 543.597 880.06 547.59 880.438C550.062 880.627 552.534 880.627 554.816 880.627C569.076 880.627 581.245 877.602 591.323 871.742C603.112 864.937 611.098 854.351 615.281 839.417C616.422 835.636 616.992 831.288 616.992 826.562C616.802 813.708 612.429 802.744 603.872 793.67ZM538.654 769.096C534.47 767.772 530.668 764.937 527.625 760.967C524.203 757.186 522.301 752.838 522.301 747.924C525.344 732.99 533.52 725.428 546.83 725.428C552.914 725.428 558.999 727.13 565.273 730.343C571.358 733.557 575.351 738.094 577.252 743.765L576.112 742.82C567.555 733.746 558.048 729.398 547.59 729.398C535.231 729.398 527.815 735.825 525.344 749.058C525.724 752.082 526.675 754.729 528.006 756.808C529.337 759.077 531.238 761.345 533.33 763.424C535.421 765.504 537.513 767.394 539.414 769.096H538.654ZM587.52 758.888C597.978 735.258 605.013 721.269 608.626 717.111L610.337 719.757C605.774 728.831 602.161 736.581 599.309 742.631C596.267 749.058 593.224 755.296 589.802 761.723L587.52 758.888ZM814.17 761.156C820.825 743.198 827.289 728.831 833.564 718.245L834.705 720.324C830.712 727.886 824.818 742.252 816.832 763.235L814.17 761.156ZM809.036 758.321C804.853 729.398 793.634 714.653 775.19 714.653C764.162 714.653 755.796 718.056 750.092 725.239C744.197 732.612 740.204 741.118 738.493 751.137C736.592 761.345 735.451 772.498 735.07 784.597C735.451 785.92 735.641 787.432 735.641 789.889C735.641 795.372 735.451 800.097 735.07 803.689C735.451 821.837 737.923 836.959 742.486 849.436C747.049 861.723 756.176 867.772 770.057 867.772C783.937 867.772 795.155 865.882 802.191 862.101C809.036 858.321 813.409 848.302 815.691 832.045C816.451 825.995 816.832 822.026 816.832 820.324C817.402 818.812 818.733 817.867 820.825 817.867C823.867 817.867 825.388 819.946 825.388 824.294C825.388 830.343 824.057 837.716 821.585 846.222C817.782 857.375 812.268 865.126 805.043 869.474C797.627 873.821 786.979 876.279 773.099 877.035H770.817C749.711 877.035 732.979 869.096 720.62 853.027C708.831 837.337 702.936 818.245 702.936 795.372V791.969C702.936 767.772 709.021 747.356 721.19 730.721C733.549 713.897 750.662 705.579 772.528 705.579C778.233 705.579 786.029 707.47 795.726 711.062C805.613 714.653 813.219 716.733 818.543 717.3C823.867 716.733 828.05 715.598 830.712 713.897V715.031C820.254 736.392 813.219 751.326 809.606 759.644L809.036 759.077V758.321ZM787.359 725.995C783.367 723.727 778.993 722.593 773.859 722.593C763.782 722.593 756.937 728.453 753.324 739.984C751.042 745.277 749.521 750.759 748.761 756.808C747.81 762.668 747.24 769.096 747.049 775.712C746.859 782.517 746.669 787.243 746.479 790.079C746.479 806.903 747.81 820.702 750.282 831.855C752.563 843.009 757.697 853.784 765.683 863.613C758.458 860.589 752.754 852.46 748.38 839.039C744.768 827.13 743.056 810.872 743.056 790.079C743.247 787.999 743.437 785.164 743.627 781.383C743.627 777.98 743.817 773.821 744.197 768.718C744.578 763.803 745.148 759.455 745.909 755.485C746.479 751.704 747.62 746.789 749.711 741.118C751.993 735.069 755.416 729.965 759.979 725.617C764.352 721.648 768.916 719.568 773.669 719.568C779.374 719.568 783.937 721.648 787.55 725.995H787.359ZM738.493 878.169L736.021 876.468C751.042 881.761 763.972 884.407 775.19 884.407C792.874 884.407 806.564 878.736 816.451 867.583C826.149 856.43 831.472 841.118 832.423 821.648L835.275 824.483C833.374 845.277 827.289 860.589 817.402 870.608C807.134 881.005 793.824 886.109 777.472 886.109C765.874 886.298 752.754 883.651 738.493 878.169ZM960.959 757.375C961.34 752.838 963.241 746.411 966.664 738.094C970.086 729.776 973.509 724.105 976.551 721.08L977.882 723.349C972.748 729.776 967.804 741.685 963.051 759.266L960.959 757.375ZM968.185 839.039C971.417 849.436 977.882 860.589 987.769 872.309L982.826 880.627H858.853L856.001 877.224H981.114L984.537 872.309C980.734 868.339 976.741 862.668 972.558 855.674C968.375 848.491 965.903 842.252 965.142 836.959L968.185 839.039ZM899.734 801.232V857.753H915.515C925.973 857.753 934.91 856.052 941.945 852.838C948.98 849.625 953.924 842.631 956.966 831.855C957.727 840.173 959.438 846.411 961.91 850.381C964.382 854.729 969.326 861.912 976.741 872.309H849.536L866.268 857.564V801.043H863.987C859.804 801.043 855.24 802.366 850.487 805.39L848.776 803.689C853.909 800.097 859.043 798.207 864.557 798.207H866.268V793.292H861.705C854.099 793.292 848.205 795.939 844.022 801.232V800.665C844.973 791.969 847.254 786.676 850.487 784.407C853.909 782.139 859.233 781.005 866.268 781.005V729.02L848.966 713.33H974.269C970.086 716.733 966.283 722.404 962.671 730.154C958.868 737.905 956.966 744.899 956.966 751.137C952.783 739.039 947.079 731.666 940.424 729.02C933.579 726.563 922.361 725.239 906.769 725.239H889.086V781.194H896.691V731.099H918.367C926.924 731.099 933.199 731.666 937.192 732.423C940.994 733.368 943.276 735.636 944.037 738.85V739.417C941.755 735.636 935.861 733.746 926.353 733.746H899.543V780.816H922.931L938.713 758.888V813.33L922.931 791.969H889.086V857.564H896.691V798.207H924.642L926.924 801.043H899.543H899.734V801.232ZM947.079 820.702L944.227 817.867V763.235L947.079 766.638V820.702ZM1105.09 895.939C1111.55 891.591 1120.49 886.865 1132.28 882.139C1143.69 877.413 1151.48 874.767 1155.66 874.2C1141.59 863.803 1129.43 852.082 1119.16 839.039C1108.7 825.806 1099.95 811.629 1092.92 796.317C1106.8 792.536 1117.07 786.487 1123.91 778.547C1129.62 771.742 1132.47 763.803 1132.47 754.729C1132.47 753.027 1132.28 751.515 1132.28 749.814C1131.71 743.009 1129.05 736.77 1124.67 731.477L1124.1 730.343C1131.14 737.148 1134.56 745.655 1134.56 756.43C1134.56 766.26 1131.33 774.767 1124.48 782.328C1117.83 789.889 1108.89 795.183 1097.67 798.774C1104.52 813.897 1113.83 828.264 1125.62 841.874C1137.22 855.485 1149.77 866.449 1163.08 875.145C1153 878.358 1143.12 881.572 1133.42 885.164C1123.72 888.944 1115.35 893.292 1108.32 898.207L1105.09 895.939ZM1048.42 790.646C1081.7 786.298 1098.24 773.632 1098.24 752.649C1098.24 741.685 1094.44 732.99 1087.21 727.13C1079.8 721.459 1070.29 718.434 1059.07 718.434C1051.28 718.434 1044.81 719.757 1040.06 722.215V791.024C1042.91 791.024 1044.62 790.835 1045.76 790.835V728.075C1048.8 727.886 1051.66 727.697 1054.32 727.508H1064.02C1076.95 727.508 1086.45 730.721 1092.54 736.959C1085.88 732.612 1077.52 730.343 1067.44 730.343H1057.55C1054.89 730.532 1051.85 730.721 1048.81 730.91L1048.42 790.646ZM1006.97 719.946C1018.95 709.549 1035.88 704.445 1057.74 704.445C1075.04 704.445 1090.45 708.604 1103.95 716.733C1117.07 725.05 1123.72 737.148 1123.72 753.217C1123.72 771.742 1110.41 785.164 1083.79 793.481C1089.5 808.604 1098.81 824.105 1111.74 839.984C1124.67 855.863 1135.51 866.638 1144.26 872.498C1138.17 873.821 1129.43 877.035 1118.21 881.95C1106.61 887.243 1099.38 891.024 1096.53 893.103C1096.53 887.999 1095.2 879.303 1092.35 867.205C1089.31 855.296 1085.88 843.576 1082.08 831.666C1078.28 819.757 1075.23 811.062 1072.57 805.58C1066.87 808.793 1058.69 810.116 1048.42 810.116V856.052L1069.53 880.627H1009.26L1006.4 877.224H1063.07L1045.38 857.753V807.281C1048.42 807.092 1052.61 806.714 1058.12 806.147C1063.45 805.579 1068.01 804.445 1071.62 802.933L1068.77 797.262C1063.26 798.963 1053.56 800.476 1039.68 801.799V857.753L1054.7 871.931H1000.51L1016.67 857.753V814.086C1012.3 814.086 1007.16 815.409 1001.65 817.867L999.558 815.598C1005.26 812.574 1010.97 810.683 1016.67 810.116V804.445H1015.34C1013.25 804.445 1010.02 804.823 1005.83 805.39C1000.7 806.336 996.706 807.281 993.854 808.037L1000.13 793.481C1009.26 793.481 1014.77 793.292 1016.67 792.914V729.209L1006.97 719.946ZM1272.03 731.288H1289.14C1297.7 731.288 1303.79 731.666 1307.59 732.423C1311.39 733.368 1313.67 735.636 1314.81 739.039V739.606C1312.34 735.825 1306.45 733.935 1296.94 733.935H1274.69V856.052L1295.99 880.627H1235.9L1233.05 877.224H1289.72L1272.03 857.564V731.288ZM1266.33 725.05V857.753L1280.97 872.309H1226.78L1243.51 857.753V733.935H1226.21C1216.13 733.935 1209.29 735.069 1205.67 737.338C1201.87 739.795 1199.78 746.411 1199.21 757.375H1195.78C1195.98 748.869 1197.12 742.82 1199.59 739.228C1201.87 735.636 1204.91 733.179 1208.71 732.423C1212.52 731.666 1218.41 731.288 1226.4 731.288H1243.7V724.861H1226.4C1211.19 724.861 1201.3 726.184 1196.74 728.642C1192.17 731.099 1189.89 738.472 1189.89 750.759L1172.59 713.141H1338.58L1321.28 750.759C1321.28 742.252 1320.14 736.203 1317.86 732.612C1315.38 729.02 1311.77 726.941 1307.4 725.995C1302.64 725.239 1295.04 724.861 1284.77 724.861H1266.9L1266.33 725.05ZM1325.84 754.351C1332.12 736.77 1337.82 724.672 1342.76 717.867L1344.1 719.946C1339.53 726.752 1334.21 738.661 1328.12 755.863L1325.84 754.351ZM1368.43 880.627C1364.25 880.627 1360.45 879.114 1357.41 876.09C1354.36 872.876 1352.84 869.285 1352.84 864.937C1352.84 860.589 1354.55 856.808 1357.79 853.784C1360.83 850.948 1364.44 849.625 1368.62 849.625C1372.81 849.625 1376.23 850.948 1379.46 853.784C1382.5 856.808 1384.03 860.589 1384.03 864.937C1384.03 869.285 1382.5 873.065 1379.46 876.09C1376.42 879.114 1372.81 880.627 1368.43 880.627ZM1380.03 850.948L1381.17 850.759C1390.3 854.162 1394.86 860.589 1394.86 869.663C1394.86 874.2 1393.15 878.547 1390.11 882.328C1386.69 886.109 1382.12 887.999 1376.61 887.999C1371.1 887.999 1366.15 886.298 1361.59 882.706V881.383C1365.77 884.218 1369.96 885.542 1374.33 885.542C1379.27 885.542 1383.27 883.84 1386.31 880.438C1389.16 877.224 1390.49 873.254 1390.49 868.528C1390.68 860.778 1387.07 854.918 1380.03 850.948Z" fill="#880304"/>
<path d="M1548.12 216.93V234.657H1546.38C1545.34 230.567 1544.19 227.637 1542.93 225.865C1541.66 224.062 1539.93 222.629 1537.73 221.567C1536.5 220.986 1534.34 220.697 1531.26 220.697H1526.36V271.221C1526.36 274.571 1526.54 276.663 1526.89 277.501C1527.28 278.338 1528.01 279.079 1529.08 279.722C1530.18 280.334 1531.67 280.64 1533.55 280.64H1535.73V282.427H1501.24V280.64H1503.43C1505.34 280.64 1506.87 280.302 1508.04 279.625C1508.88 279.175 1509.55 278.402 1510.03 277.308C1510.39 276.535 1510.57 274.506 1510.57 271.221V220.697H1505.81C1501.37 220.697 1498.15 221.631 1496.14 223.499C1493.32 226.107 1491.54 229.826 1490.79 234.657H1488.95V216.93H1548.12ZM1599.14 260.111L1617.02 216.93H1643.84V218.716H1641.7C1639.75 218.716 1638.2 219.054 1637.03 219.731C1636.22 220.183 1635.58 220.939 1635.09 222.002C1634.73 222.775 1634.56 224.786 1634.56 228.039V271.221C1634.56 274.571 1634.73 276.663 1635.09 277.501C1635.45 278.338 1636.18 279.079 1637.28 279.722C1638.38 280.334 1639.85 280.64 1641.7 280.64H1643.84V282.427H1609.44V280.64H1611.57C1613.52 280.64 1615.07 280.302 1616.24 279.625C1617.05 279.175 1617.7 278.402 1618.18 277.308C1618.54 276.535 1618.72 274.506 1618.72 271.221V222.678L1593.45 282.427H1592.29L1566.63 223.113V269.242C1566.63 272.461 1566.71 274.442 1566.88 275.181C1567.3 276.792 1568.21 278.113 1569.6 279.143C1571.02 280.141 1573.24 280.64 1576.25 280.64V282.427H1553.71V280.64H1554.39C1555.85 280.673 1557.21 280.448 1558.47 279.964C1559.73 279.45 1560.69 278.773 1561.34 277.935C1561.99 277.098 1562.49 275.922 1562.85 274.41C1562.91 274.054 1562.94 272.414 1562.94 269.482V228.039C1562.94 224.722 1562.76 222.661 1562.41 221.856C1562.05 221.019 1561.32 220.295 1560.22 219.684C1559.12 219.039 1557.65 218.716 1555.8 218.716H1553.71V216.93H1580.63L1599.14 260.111Z" fill="#2B2A29"/>
<path d="M355.965 292.041L312.651 239.858L323.249 231.164L366.564 283.347L355.965 292.041Z" fill="white"/>
<path d="M360.051 259.711L370.087 250.834C373.382 253.967 376.635 255.662 379.853 255.921C383.093 256.159 386.399 255.055 389.776 252.607C393.351 250.016 395.492 247.32 396.197 244.522C396.91 241.683 396.528 239.256 395.051 237.243C394.102 235.951 392.912 235.139 391.48 234.806C390.056 234.43 388.147 234.594 385.753 235.301C384.125 235.798 380.579 237.15 375.114 239.362C368.089 242.21 362.59 243.437 358.621 243.04C353.039 242.481 348.662 240.038 345.488 235.713C343.446 232.929 342.326 229.761 342.132 226.207C341.946 222.609 342.874 219.099 344.92 215.674C346.99 212.229 350.137 208.976 354.362 205.912C361.262 200.908 367.554 198.649 373.238 199.135C378.944 199.606 383.728 202.286 387.586 207.18L376.841 215.717C374.304 213.252 371.802 211.982 369.334 211.906C366.872 211.787 364.078 212.861 360.953 215.127C357.728 217.468 355.686 219.957 354.828 222.598C354.273 224.295 354.514 225.853 355.554 227.269C356.503 228.562 357.865 229.269 359.639 229.392C361.896 229.545 366.191 228.295 372.521 225.647C378.853 222.999 383.806 221.424 387.384 220.923C390.97 220.379 394.353 220.762 397.536 222.072C400.726 223.339 403.588 225.7 406.123 229.156C408.422 232.286 409.699 235.855 409.954 239.859C410.211 243.863 409.232 247.694 407.016 251.358C404.782 254.997 401.278 258.547 396.502 262.01C389.552 267.052 383.047 269.331 376.987 268.851C370.908 268.347 365.263 265.301 360.051 259.711Z" fill="white"/>
<path d="M406.676 212.063C403.117 206.148 401.022 200.655 400.387 195.583C399.936 191.836 400.145 188.109 401.016 184.401C401.913 180.677 403.389 177.434 405.44 174.672C408.158 170.977 411.894 167.716 416.649 164.889C425.255 159.773 433.73 158.337 442.075 160.581C450.447 162.809 457.477 168.65 463.162 178.104C468.802 187.478 470.654 196.343 468.72 204.698C466.771 213.027 461.506 219.742 452.927 224.842C444.243 230.006 435.757 231.485 427.468 229.277C419.167 227.044 412.234 221.305 406.676 212.063ZM418.589 204.443C422.544 211.018 427.073 215.101 432.176 216.691C437.265 218.256 442.159 217.64 446.859 214.844C451.561 212.05 454.404 208.084 455.387 202.946C456.383 197.764 454.855 191.808 450.805 185.075C446.802 178.42 442.341 174.332 437.424 172.811C432.532 171.273 427.657 171.95 422.797 174.839C417.935 177.729 415.018 181.722 414.044 186.818C413.056 191.887 414.571 197.762 418.589 204.443Z" fill="white"/>
<path d="M483.861 207.328L466.866 137.397L475.588 132.969L492.419 202.982L483.861 207.328Z" fill="white"/>
<path d="M512.424 191.78L483.63 130.475L496.081 124.695L524.874 185.999L512.424 191.78Z" fill="white"/>
<path d="M535.878 180.699L510.836 117.787L557.757 99.3281L561.994 109.971L527.85 123.403L533.402 137.35L565.171 124.852L569.39 135.451L537.619 147.95L544.436 165.072L579.787 151.164L584.006 161.764L535.878 180.699Z" fill="white"/>
<path d="M628.509 122.212L642.484 122.475C642.637 130.132 640.942 136.359 637.402 141.157C633.882 145.917 628.621 149.328 621.618 151.392C612.953 153.945 604.958 153.108 597.63 148.882C590.292 144.626 585.101 137.394 582.059 127.188C578.84 116.391 579.146 107.187 582.978 99.5755C586.801 91.9347 593.281 86.7678 602.42 84.0748C610.402 81.7228 617.583 82.1574 623.968 85.3789C627.762 87.2774 631.175 90.6041 634.206 95.3587L622.088 102.299C620.314 99.1633 617.905 96.985 614.862 95.7638C611.849 94.5338 608.592 94.4347 605.091 95.4665C600.254 96.8916 596.837 99.7759 594.839 104.119C592.871 108.454 593.04 114.485 595.344 122.214C597.79 130.415 601.014 135.818 605.019 138.425C609.023 141.031 613.4 141.635 618.148 140.236C621.649 139.204 624.33 137.211 626.193 134.255C628.055 131.299 628.828 127.285 628.509 122.212Z" fill="white"/>
<path d="M722.624 115.754L724.681 127.624L679.621 135.346C679.33 130.775 680.059 126.279 681.804 121.859C683.546 117.408 687.438 111.246 693.485 103.372C698.348 97.0128 701.271 92.7655 702.25 90.6305C703.562 87.6895 703.996 84.9303 703.549 82.3532C703.054 79.5031 701.898 77.4532 700.079 76.2037C698.286 74.9188 696.032 74.5088 693.319 74.974C690.634 75.4339 688.64 76.6031 687.332 78.4819C686.025 80.3608 685.573 83.1857 685.976 86.957L672.945 87.8785C672.487 80.7135 674.006 75.2549 677.501 71.5027C680.996 67.7504 685.763 65.3568 691.802 64.322C698.419 63.188 703.927 64.0706 708.323 66.97C712.721 69.8695 715.376 73.957 716.29 79.2328C716.811 82.2345 716.76 85.1939 716.134 88.1109C715.535 90.9923 714.318 94.1199 712.485 97.4939C711.272 99.7311 708.958 103.047 705.543 107.441C702.128 111.835 699.976 114.733 699.088 116.134C698.232 117.53 697.567 118.861 697.095 120.128L722.624 115.754Z" fill="white"/>
<path d="M727.006 72.1336L725.805 60.1473L770.195 55.75L771.135 65.1186C767.83 69.0636 764.618 74.5763 761.502 81.6562C758.387 88.7364 756.207 96.1566 754.963 103.917C753.748 111.644 753.451 118.476 754.079 124.412L741.56 125.652C740.843 116.323 741.817 106.642 744.48 96.6071C747.175 86.5695 751.191 77.4369 756.524 69.2095L727.006 72.1336Z" fill="white"/>
<path d="M804.252 53.1748C810.84 52.9906 816.058 55.184 819.903 59.7551C824.481 65.1674 826.953 74.2861 827.316 87.1112C827.678 99.9054 825.71 109.164 821.414 114.886C817.862 119.602 812.793 122.052 806.203 122.236C799.584 122.421 794.176 120.048 789.98 115.117C785.785 110.156 783.504 101.186 783.137 88.2073C782.775 75.4744 784.745 66.2472 789.041 60.5252C792.593 55.809 797.662 53.3589 804.252 53.1748ZM804.554 63.9237C802.978 63.9678 801.584 64.5146 800.375 65.5642C799.166 66.5829 798.257 68.3935 797.65 70.9959C796.848 74.3732 796.559 80.0294 796.783 87.9644C797.008 95.8993 797.563 101.347 798.453 104.308C799.341 107.238 800.402 109.178 801.636 110.129C802.9 111.078 804.322 111.531 805.901 111.487C807.477 111.443 808.871 110.911 810.08 109.893C811.289 108.843 812.198 107.017 812.805 104.415C813.609 101.068 813.898 95.4273 813.674 87.4923C813.449 79.5576 812.894 74.125 812.006 71.195C811.116 68.2341 810.04 66.2789 808.774 65.3294C807.54 64.3481 806.133 63.8797 804.554 63.9237Z" fill="white"/>
<path d="M860.897 53.5561C867.484 53.8363 872.532 56.3915 876.04 61.2217C880.223 66.9429 882.039 76.2126 881.488 89.031C880.938 101.819 878.316 110.915 873.623 116.32C869.744 120.775 864.514 122.862 857.927 122.582C851.31 122.3 846.085 119.553 842.252 114.339C838.42 109.095 836.783 99.9865 837.34 87.0145C837.888 74.2884 840.508 65.2227 845.203 59.8176C849.08 55.3631 854.313 53.276 860.897 53.5561ZM860.435 64.2996C858.859 64.2325 857.429 64.6799 856.149 65.6417C854.87 66.5727 853.835 68.3149 853.044 70.868C852.002 74.1805 851.312 79.802 850.97 87.7329C850.629 95.6637 850.797 101.137 851.472 104.153C852.149 107.138 853.069 109.148 854.233 110.183C855.427 111.219 856.813 111.771 858.389 111.838C859.965 111.905 861.393 111.473 862.673 110.542C863.955 109.58 864.989 107.823 865.782 105.27C866.82 101.988 867.51 96.3818 867.853 88.451C868.193 80.5202 868.026 75.0622 867.349 72.0771C866.674 69.0612 865.738 67.0349 864.544 65.9988C863.382 64.9331 862.011 64.3667 860.435 64.2996Z" fill="white"/>
<path d="M920.941 126.68L907.981 125.217L913.527 76.6549C908.289 80.5224 902.337 83.1479 895.669 84.5317L897.004 72.8383C900.512 72.1196 904.425 70.4557 908.741 67.8466C913.061 65.2067 916.193 61.9221 918.136 57.9922L928.653 59.1797L920.941 126.68Z" fill="white"/>
<path d="M950.972 94.5926L953.278 81.8281L966.117 84.1204L963.812 96.8846L950.972 94.5926ZM944.564 130.069L946.87 117.305L959.709 119.597L957.404 132.361L944.564 130.069Z" fill="white"/>
<path d="M1015.58 132.35L1012.89 144.094L968.305 133.984C969.807 129.654 972.218 125.783 975.54 122.371C978.869 118.928 984.849 114.73 993.476 109.775C1000.43 105.766 1004.77 102.964 1006.5 101.368C1008.85 99.1552 1010.31 96.774 1010.9 94.2242C1011.55 91.4046 1011.27 89.0702 1010.08 87.2214C1008.92 85.3494 1007 84.1089 1004.31 83.4999C1001.66 82.8978 999.364 83.2137 997.431 84.4477C995.497 85.6817 993.985 88.1161 992.898 91.7511L980.516 87.6172C982.866 80.829 986.38 76.3717 991.059 74.2452C995.736 72.1188 1001.06 71.7329 1007.04 73.0878C1013.58 74.5726 1018.33 77.4942 1021.26 81.8524C1024.2 86.2104 1025.07 90.9993 1023.87 96.2188C1023.19 99.1885 1022 101.9 1020.29 104.353C1018.62 106.784 1016.29 109.205 1013.29 111.618C1011.3 113.219 1007.88 115.394 1003.03 118.144C998.178 120.893 995.071 122.745 993.71 123.698C992.379 124.659 991.251 125.634 990.325 126.623L1015.58 132.35Z" fill="white"/>
<path d="M1061.42 87.4096C1067.72 89.3135 1071.97 93.0394 1074.16 98.5871C1076.77 105.165 1076.21 114.592 1072.46 126.868C1068.72 139.115 1063.9 147.275 1058 151.345C1053.12 154.698 1047.53 155.422 1041.23 153.518C1034.89 151.605 1030.52 147.649 1028.11 141.65C1025.72 135.621 1026.42 126.395 1030.21 113.971C1033.93 101.783 1038.75 93.6528 1044.65 89.582C1049.52 86.2296 1055.11 85.5056 1061.42 87.4096ZM1058.27 97.699C1056.76 97.243 1055.27 97.322 1053.79 97.936C1052.31 98.5205 1050.87 99.9509 1049.47 102.227C1047.63 105.177 1045.55 110.45 1043.23 118.045C1040.91 125.641 1039.7 130.983 1039.6 134.071C1039.5 137.13 1039.89 139.304 1040.76 140.595C1041.65 141.895 1042.86 142.773 1044.37 143.228C1045.88 143.684 1047.37 143.62 1048.84 143.036C1050.32 142.422 1051.77 140.976 1053.17 138.7C1055 135.78 1057.08 130.522 1059.4 122.926C1061.72 115.331 1062.92 110.003 1063.02 106.945C1063.12 103.857 1062.72 101.663 1061.83 100.363C1060.97 99.0428 1059.78 98.1549 1058.27 97.699Z" fill="white"/>
<path d="M1115.51 165.698L1111.17 176.947L1068.47 160.685C1070.57 156.609 1073.51 153.115 1077.28 150.203C1081.07 147.262 1087.58 143.944 1096.83 140.249C1104.28 137.255 1108.97 135.09 1110.91 133.753C1113.55 131.891 1115.34 129.74 1116.28 127.297C1117.32 124.597 1117.38 122.247 1116.46 120.249C1115.58 118.234 1113.86 116.736 1111.29 115.757C1108.74 114.788 1106.43 114.779 1104.34 115.729C1102.25 116.68 1100.41 118.878 1098.81 122.324L1087.14 116.495C1090.43 110.104 1094.54 106.184 1099.47 104.735C1104.41 103.286 1109.74 103.651 1115.46 105.83C1121.73 108.219 1126.01 111.776 1128.3 116.502C1130.59 121.229 1130.77 126.092 1128.84 131.091C1127.74 133.935 1126.18 136.453 1124.14 138.642C1122.15 140.814 1119.49 142.884 1116.18 144.852C1113.99 146.159 1110.29 147.832 1105.1 149.874C1099.9 151.915 1096.57 153.313 1095.08 154.066C1093.63 154.83 1092.37 155.637 1091.32 156.486L1115.51 165.698Z" fill="white"/>
<path d="M1163.42 187.574L1158.29 198.487L1116.86 179.247C1119.25 175.329 1122.43 172.052 1126.4 169.414C1130.38 166.748 1137.12 163.9 1146.61 160.868C1154.25 158.408 1159.09 156.58 1161.12 155.384C1163.89 153.714 1165.83 151.695 1166.94 149.325C1168.17 146.705 1168.4 144.366 1167.62 142.308C1166.89 140.235 1165.28 138.619 1162.78 137.46C1160.31 136.314 1158 136.141 1155.85 136.942C1153.7 137.742 1151.7 139.804 1149.87 143.129L1138.64 136.489C1142.38 130.347 1146.76 126.728 1151.79 125.631C1156.81 124.535 1162.1 125.276 1167.65 127.854C1173.74 130.68 1177.75 134.531 1179.7 139.408C1181.64 144.284 1181.47 149.147 1179.19 153.997C1177.9 156.757 1176.15 159.157 1173.96 161.197C1171.82 163.222 1169.02 165.099 1165.58 166.828C1163.3 167.976 1159.5 169.384 1154.17 171.053C1148.84 172.722 1145.41 173.88 1143.88 174.526C1142.37 175.185 1141.06 175.901 1139.95 176.674L1163.42 187.574Z" fill="white"/>
<path d="M263.277 348.523L298.423 376.327L292.777 383.382L257.629 355.578L263.277 348.523Z" fill="white"/>
<path d="M234.516 386.26L239.61 379.36L252.996 389.129C255.829 391.195 257.764 392.383 258.804 392.689C259.863 393.006 260.869 392.999 261.826 392.664C262.771 392.345 263.586 391.719 264.277 390.787C265.159 389.592 265.621 388.279 265.663 386.849C265.707 385.418 265.317 384.127 264.495 382.974C263.663 381.838 261.78 380.199 258.85 378.061L246.97 369.392L252.064 362.492L278.294 381.632L273.561 388.042L269.709 385.229C270.992 389.668 270.359 393.615 267.81 397.069C266.686 398.59 265.378 399.778 263.889 400.63C262.413 401.494 261.014 401.933 259.685 401.946C258.346 401.976 257.042 401.717 255.774 401.169C254.494 400.64 252.842 399.634 250.817 398.156L234.516 386.26Z" fill="white"/>
<path d="M258.511 408.747L255.846 412.69L257.88 414.049C260.152 415.567 261.689 416.936 262.489 418.155C263.276 419.391 263.586 420.883 263.415 422.628C263.25 424.401 262.501 426.274 261.168 428.246C259.801 430.268 258.158 432.045 256.237 433.575L251.902 429.285C252.936 428.337 253.807 427.34 254.513 426.295C255.209 425.267 255.463 424.361 255.279 423.578C255.1 422.822 254.324 421.987 252.952 421.068L251.044 419.794L247.456 425.104L241.836 421.35L245.424 416.04L224.039 401.752L228.84 394.648L250.227 408.936L252.893 404.992L258.511 408.747Z" fill="white"/>
<path d="M232.821 418.392C235.259 419.878 237.25 421.914 238.794 424.5C240.339 427.084 241.039 429.834 240.895 432.747C240.741 435.677 239.83 438.494 238.164 441.193C235.59 445.365 232.114 447.951 227.737 448.951C223.375 449.961 219.114 449.197 214.954 446.658C210.757 444.101 208.107 440.628 207.006 436.239C205.909 431.878 206.622 427.655 209.141 423.57C210.7 421.042 212.765 418.978 215.334 417.377C217.893 415.793 220.646 415.078 223.594 415.231C226.56 415.396 229.634 416.449 232.821 418.392ZM227.817 425.632C225.065 423.953 222.559 423.318 220.295 423.725C218.032 424.131 216.313 425.286 215.138 427.191C213.963 429.095 213.712 431.133 214.385 433.307C215.047 435.496 216.769 437.441 219.557 439.139C222.272 440.795 224.763 441.42 227.026 441.014C229.279 440.624 230.992 439.477 232.167 437.573C233.342 435.67 233.597 433.623 232.935 431.432C232.274 429.243 230.568 427.309 227.817 425.632Z" fill="white"/>
<path d="M193.572 451.605L197.746 444.117L226.204 459.801L222.327 466.754L218.281 464.524C219.529 466.767 220.194 468.527 220.276 469.803C220.35 471.096 220.05 472.348 219.375 473.556C218.424 475.261 217.036 476.643 215.207 477.701L209.934 471.766C211.459 470.958 212.524 470.011 213.128 468.928C213.712 467.881 213.912 466.83 213.729 465.777C213.564 464.733 212.839 463.58 211.56 462.318C210.269 461.072 207.202 459.115 202.361 456.448L193.572 451.605Z" fill="white"/>
<path d="M214.878 479.588L211.429 486.692L207.428 484.771C209.303 488.805 209.386 492.578 207.681 496.089C206.776 497.954 205.604 499.387 204.165 500.389C202.726 501.389 201.013 501.953 199.024 502.081C199.965 504.111 200.463 506.053 200.516 507.903C200.57 509.756 200.187 511.523 199.37 513.206C198.332 515.346 197.01 516.945 195.409 518.002C193.825 519.068 192.009 519.561 189.961 519.48C188.453 519.41 186.301 518.703 183.505 517.363L164.771 508.37L168.513 500.661L185.261 508.701C188.168 510.096 190.173 510.731 191.275 510.607C192.726 510.423 193.81 509.592 194.531 508.109C195.054 507.03 195.215 505.856 195.015 504.588C194.816 503.319 194.173 502.166 193.089 501.126C192.025 500.098 190.113 498.92 187.354 497.595L173.282 490.843L177.025 483.134L193.084 490.841C195.934 492.21 197.841 492.956 198.801 493.079C199.761 493.202 200.587 493.068 201.275 492.677C201.956 492.304 202.536 491.624 203.015 490.637C203.593 489.448 203.791 488.223 203.608 486.964C203.425 485.703 202.83 484.573 201.821 483.569C200.802 482.584 198.885 481.416 196.071 480.064L181.834 473.232L185.577 465.523L214.878 479.588Z" fill="white"/>
<path d="M179.882 531.3L184.127 524.631C186.711 526.616 188.3 528.88 188.893 531.421C189.487 533.962 188.988 537.179 187.397 541.073C185.953 544.61 184.451 547.073 182.892 548.461C181.353 549.856 179.788 550.637 178.198 550.807C176.619 551.001 174.098 550.4 170.635 549.001L161.358 545.158C158.709 544.088 156.7 543.421 155.332 543.153C153.976 542.913 152.436 542.85 150.713 542.965L153.918 535.119C154.532 535.126 155.421 535.189 156.585 535.31C157.112 535.368 157.463 535.4 157.637 535.404C156.866 533.516 156.464 531.665 156.432 529.856C156.399 528.045 156.741 526.264 157.455 524.516C158.716 521.429 160.553 519.332 162.967 518.226C165.374 517.138 167.864 517.113 170.438 518.151C172.141 518.839 173.49 519.854 174.484 521.198C175.497 522.55 176.058 524.09 176.167 525.822C176.287 527.58 176.05 529.939 175.458 532.901C174.645 536.89 174.249 539.722 174.27 541.396L175.065 541.716C176.598 542.336 177.84 542.398 178.791 541.905C179.76 541.421 180.672 540.134 181.525 538.045C182.101 536.635 182.267 535.419 182.022 534.4C181.796 533.387 181.082 532.355 179.882 531.3ZM169.075 539.298C169.15 538.145 169.4 536.372 169.826 533.981C170.252 531.587 170.376 529.962 170.198 529.1C169.883 527.767 169.158 526.873 168.022 526.414C166.906 525.964 165.771 525.988 164.619 526.487C163.468 526.986 162.63 527.875 162.108 529.154C161.524 530.585 161.44 532.139 161.856 533.82C162.183 535.069 162.805 536.056 163.723 536.776C164.32 537.258 165.574 537.886 167.486 538.657L169.075 539.298Z" fill="white"/>
<path d="M173.906 574.466L167.45 572.151L169.447 566.65L157.112 562.224C154.614 561.328 153.137 560.852 152.679 560.795C152.234 560.767 151.811 560.884 151.411 561.151C151.003 561.436 150.702 561.846 150.508 562.381C150.238 563.126 150.105 564.298 150.111 565.897L143.579 564.332C143.451 562.172 143.817 559.905 144.677 557.536C145.204 556.085 145.919 554.863 146.822 553.871C147.744 552.884 148.691 552.253 149.66 551.973C150.642 551.722 151.834 551.727 153.236 551.994C154.239 552.16 156.173 552.756 159.036 553.782L172.379 558.568L173.72 554.873L180.176 557.189L178.835 560.884L184.915 563.066L186.71 572.841L175.902 568.965L173.906 574.466Z" fill="white"/>
<path d="M176.403 580.887L183.966 583.374L181.263 591.499L173.7 589.013L176.403 580.887ZM141.322 569.352L172.214 579.51L169.511 587.635L138.619 577.478L141.322 569.352Z" fill="white"/>
<path d="M152.33 588.918C155.078 589.702 157.543 591.135 159.725 593.218C161.907 595.299 163.32 597.763 163.964 600.609C164.601 603.475 164.48 606.43 163.599 609.475C162.239 614.178 159.584 617.592 155.633 619.717C151.701 621.846 147.39 622.241 142.698 620.901C137.967 619.547 134.481 616.902 132.24 612.967C130.014 609.056 129.566 604.797 130.898 600.192C131.722 597.341 133.157 594.804 135.203 592.579C137.244 590.373 139.706 588.954 142.588 588.318C145.49 587.691 148.737 587.889 152.33 588.918ZM149.45 597.222C146.348 596.335 143.761 596.388 141.689 597.381C139.617 598.373 138.27 599.942 137.65 602.09C137.029 604.235 137.334 606.267 138.565 608.182C139.791 610.118 141.974 611.534 145.115 612.432C148.177 613.307 150.745 613.248 152.817 612.256C154.883 611.282 156.227 609.723 156.848 607.575C157.469 605.43 157.166 603.388 155.941 601.454C154.715 599.519 152.551 598.108 149.45 597.222Z" fill="white"/>
<path d="M118.575 652.056L120.506 643.713L136.688 647.417C140.112 648.199 142.363 648.526 143.441 648.398C144.538 648.275 145.459 647.87 146.205 647.186C146.945 646.523 147.446 645.627 147.707 644.498C148.042 643.054 147.944 641.666 147.413 640.337C146.883 639.007 146.011 637.974 144.798 637.239C143.58 636.523 141.2 635.759 137.657 634.948L123.295 631.662L125.226 623.32L156.935 630.576L155.142 638.324L150.484 637.258C153.43 640.829 154.42 644.7 153.453 648.876C153.027 650.717 152.299 652.322 151.27 653.691C150.26 655.063 149.149 656.018 147.935 656.553C146.717 657.109 145.416 657.383 144.034 657.379C142.647 657.396 140.729 657.124 138.281 656.564L118.575 652.056Z" fill="white"/>
<path d="M128.309 678.339L127.878 687.142C124.87 687.237 122.562 687.978 120.954 689.366C119.343 690.772 118.337 692.832 117.937 695.545C117.514 698.417 117.801 700.666 118.801 702.29C119.817 703.935 121.144 704.878 122.781 705.116C123.832 705.269 124.767 705.088 125.586 704.572C126.423 704.076 127.227 703.107 127.997 701.659C128.515 700.668 129.513 698.381 130.991 694.798C132.888 690.192 134.848 687.05 136.871 685.373C139.716 683.018 142.897 682.095 146.413 682.609C148.677 682.938 150.695 683.88 152.469 685.43C154.26 687.004 155.494 689.063 156.173 691.604C156.848 694.165 156.935 697.144 156.434 700.539C155.617 706.084 153.779 710.076 150.922 712.511C148.062 714.969 144.58 715.969 140.477 715.515L141.399 706.538C143.739 706.488 145.497 705.902 146.674 704.781C147.868 703.683 148.65 701.878 149.021 699.367C149.403 696.774 149.166 694.668 148.312 693.044C147.764 692.001 146.914 691.394 145.762 691.226C144.711 691.073 143.747 691.384 142.869 692.16C141.753 693.146 140.36 695.734 138.689 699.923C137.018 704.112 135.475 707.161 134.058 709.069C132.658 710.999 130.913 712.407 128.821 713.294C126.747 714.201 124.305 714.451 121.496 714.042C118.949 713.67 116.668 712.621 114.653 710.889C112.637 709.159 111.273 706.929 110.561 704.197C109.869 701.469 109.806 698.188 110.372 694.349C111.196 688.764 113.122 684.662 116.15 682.046C119.198 679.432 123.251 678.197 128.309 678.339Z" fill="white"/>
<path d="M116.302 739.794L114.076 748.155C111.046 746.773 108.818 744.824 107.391 742.308C105.983 739.811 105.444 736.794 105.774 733.257C106.296 727.656 108.524 723.681 112.456 721.331C115.603 719.48 119.424 718.762 123.919 719.176C129.288 719.671 133.358 721.454 136.128 724.524C138.918 727.596 140.114 731.263 139.716 735.53C139.269 740.322 137.319 743.957 133.868 746.431C130.437 748.909 125.442 749.785 118.884 749.057L120.877 727.705C118.329 727.531 116.282 728.036 114.735 729.219C113.209 730.405 112.355 731.978 112.172 733.938C112.047 735.272 112.309 736.429 112.956 737.407C113.603 738.384 114.719 739.18 116.302 739.794ZM124.921 741.08C127.408 741.248 129.349 740.785 130.743 739.688C132.158 738.596 132.947 737.18 133.109 735.441C133.282 733.581 132.744 731.981 131.495 730.643C130.246 729.303 128.45 728.537 126.11 728.34L124.921 741.08Z" fill="white"/>
<path d="M126.371 784.341L125.189 775.848C126.894 775.634 128.196 775.037 129.095 774.058C129.994 773.097 130.476 771.818 130.542 770.215C130.63 768.084 129.955 766.349 128.518 765.01C127.101 763.691 124.658 762.961 121.188 762.821C117.331 762.663 114.58 763.192 112.935 764.404C111.29 765.638 110.422 767.341 110.333 769.511C110.266 771.135 110.67 772.483 111.546 773.555C112.442 774.627 114.014 775.423 116.261 775.942L114.476 784.283C110.634 783.252 107.775 781.458 105.898 778.903C104.02 776.347 103.167 772.99 103.339 768.829C103.534 764.103 105.19 760.39 108.306 757.691C111.422 755.014 115.633 753.784 120.939 754.001C126.306 754.218 130.421 755.799 133.285 758.742C136.168 761.683 137.511 765.559 137.312 770.368C137.15 774.303 136.164 777.394 134.354 779.636C132.564 781.901 129.903 783.47 126.371 784.341Z" fill="white"/>
<path d="M103.416 811.599L108.287 811.571C106.544 810.403 105.167 808.856 104.155 806.934C103.143 805.03 102.631 803.013 102.618 800.881C102.606 798.709 103.075 796.756 104.025 795.024C104.974 793.293 106.315 792.036 108.047 791.255C109.779 790.472 112.176 790.074 115.24 790.057L135.829 789.938L135.878 798.497L120.927 798.582C116.352 798.609 113.544 798.777 112.504 799.089C111.485 799.419 110.671 800.002 110.063 800.839C109.476 801.675 109.186 802.731 109.193 804.011C109.202 805.472 109.608 806.781 110.411 807.934C111.235 809.087 112.24 809.873 113.427 810.293C114.635 810.712 117.567 810.909 122.224 810.881L135.949 810.803L135.999 819.363L103.462 819.548L103.416 811.599Z" fill="white"/>
<path d="M104.287 837.03L103.862 828.48L136.36 826.883L136.755 834.824L132.134 835.051C134.385 836.302 135.884 837.448 136.631 838.49C137.379 839.55 137.787 840.771 137.856 842.149C137.952 844.096 137.505 846 136.514 847.858L128.885 845.58C129.752 844.093 130.154 842.732 130.093 841.495C130.033 840.299 129.646 839.301 128.932 838.503C128.238 837.703 127.011 837.102 125.253 836.699C123.496 836.319 119.853 836.265 114.324 836.537L104.287 837.03Z" fill="white"/>
<path d="M142.13 850.497L150.071 849.875L150.748 858.406L142.807 859.03L142.13 850.497ZM105.294 853.385L137.731 850.841L138.408 859.374L105.971 861.918L105.294 853.385Z" fill="white"/>
<path d="M140.718 882.251L133.893 882.969L133.273 877.153L120.233 878.527C117.593 878.805 116.055 879.018 115.619 879.168C115.205 879.332 114.876 879.623 114.633 880.037C114.392 880.47 114.301 880.969 114.361 881.535C114.445 882.323 114.841 883.434 115.549 884.871L108.984 886.298C107.92 884.41 107.255 882.213 106.988 879.708C106.824 878.173 106.931 876.763 107.307 875.48C107.704 874.19 108.277 873.211 109.027 872.54C109.8 871.888 110.875 871.376 112.253 871.007C113.229 870.72 115.23 870.417 118.256 870.098L132.363 868.612L131.946 864.705L138.771 863.984L139.188 867.892L145.616 867.215L151.523 875.23L140.098 876.434L140.718 882.251Z" fill="white"/>
<path d="M140.676 883.273L141.997 892.287L120.259 903.255L144.214 907.417L145.5 916.188L112.858 909.374L106.954 908.168C104.965 907.695 103.425 907.19 102.335 906.65C101.247 906.132 100.336 905.474 99.5995 904.676C98.8463 903.903 98.2037 902.899 97.6716 901.663C97.1425 900.445 96.7601 899.033 96.5245 897.427C96.2859 895.799 96.2235 894.177 96.3374 892.559L102.897 890.841C102.829 892.204 102.872 893.419 103.029 894.483C103.317 896.453 104.117 897.825 105.428 898.599C106.718 899.377 108.3 899.886 110.172 900.128L140.676 883.273Z" fill="white"/>
<path d="M122.121 920.273L123.62 928.701L117.556 929.767C115.102 930.2 113.134 930.328 111.651 930.156C110.149 929.988 108.729 929.411 107.393 928.43C106.06 927.468 104.912 926.145 103.948 924.459L107.154 922.194C108.02 923.793 109.01 924.867 110.123 925.413C111.237 925.962 112.652 926.103 114.369 925.842L113.643 921.763L122.121 920.273Z" fill="white"/>
<path d="M143.31 980.576L142.729 989.729C137.646 989.604 133.566 988.313 130.487 985.852C127.432 983.407 125.323 979.859 124.159 975.207C122.718 969.455 123.506 964.237 126.522 959.557C129.559 954.871 134.506 951.678 141.364 949.982C148.618 948.186 154.713 948.655 159.65 951.389C164.606 954.116 167.844 958.515 169.363 964.585C170.691 969.886 170.193 974.581 167.871 978.67C166.501 981.103 164.196 983.243 160.954 985.092L156.704 976.946C158.835 975.874 160.35 974.36 161.249 972.4C162.152 970.46 162.313 968.328 161.731 966.003C160.926 962.791 159.113 960.466 156.291 959.031C153.473 957.615 149.468 957.549 144.275 958.835C138.765 960.198 135.087 962.154 133.242 964.704C131.397 967.254 130.869 970.105 131.658 973.258C132.24 975.583 133.485 977.398 135.391 978.706C137.296 980.012 139.936 980.636 143.31 980.576Z" fill="white"/>
<path d="M161.673 987.453L164.385 996.153L144.623 1010.34L168.938 1010.76L171.577 1019.22L138.267 1017.53L132.246 1017.25C130.208 1017.09 128.608 1016.83 127.446 1016.46C126.29 1016.12 125.287 1015.61 124.436 1014.94C123.571 1014.29 122.779 1013.39 122.06 1012.25C121.348 1011.14 120.75 1009.8 120.266 1008.25C119.776 1006.68 119.461 1005.08 119.321 1003.47L125.533 1000.76C125.678 1002.11 125.911 1003.31 126.232 1004.34C126.824 1006.24 127.828 1007.47 129.244 1008.03C130.64 1008.6 132.282 1008.86 134.17 1008.81L161.673 987.453Z" fill="white"/>
<path d="M142.352 1034.14L184.513 1018.74L187.482 1026.78L172.297 1032.32C176.05 1033.76 178.553 1036.18 179.807 1039.57C181.173 1043.27 180.952 1046.83 179.143 1050.23C177.353 1053.63 173.937 1056.25 168.895 1058.1C163.68 1060 159.205 1060.23 155.471 1058.78C151.744 1057.35 149.229 1054.87 147.926 1051.35C147.285 1049.61 147.083 1047.74 147.319 1045.73C147.581 1043.73 148.34 1041.81 149.596 1039.96L145.109 1041.6L142.352 1034.14ZM161.232 1036.3C158.069 1037.45 155.913 1038.8 154.764 1040.35C153.131 1042.52 152.74 1044.76 153.593 1047.07C154.248 1048.84 155.561 1050.07 157.534 1050.76C159.532 1051.46 162.171 1051.21 165.45 1050.01C168.939 1048.73 171.218 1047.19 172.287 1045.37C173.375 1043.55 173.557 1041.65 172.831 1039.69C172.12 1037.76 170.771 1036.44 168.785 1035.71C166.817 1034.98 164.3 1035.18 161.232 1036.3Z" fill="white"/>
<path d="M173.065 1083.79L175.109 1092.19C171.783 1092.41 168.89 1091.75 166.43 1090.22C163.997 1088.69 162.079 1086.29 160.675 1083.02C158.453 1077.85 158.509 1073.3 160.843 1069.37C162.724 1066.25 165.741 1063.81 169.892 1062.05C174.852 1059.95 179.284 1059.59 183.19 1060.98C187.115 1062.36 189.923 1065.02 191.615 1068.96C193.517 1073.39 193.542 1077.5 191.692 1081.31C189.859 1085.12 185.885 1088.25 179.77 1090.71L171.3 1070.99C168.976 1072.04 167.417 1073.46 166.624 1075.23C165.849 1076.99 165.85 1078.78 166.628 1080.59C167.158 1081.82 167.941 1082.72 168.978 1083.27C170.015 1083.82 171.377 1084 173.065 1083.79ZM181.26 1080.84C183.527 1079.81 185.012 1078.49 185.715 1076.86C186.436 1075.23 186.451 1073.61 185.762 1072.01C185.024 1070.29 183.785 1069.14 182.045 1068.55C180.305 1067.96 178.359 1068.14 176.207 1069.07L181.26 1080.84Z" fill="white"/>
<path d="M173.856 1110.2L170.148 1102.47L199.514 1088.54L202.958 1095.71L198.782 1097.69C201.343 1097.99 203.171 1098.47 204.264 1099.14C205.367 1099.84 206.217 1100.81 206.814 1102.05C207.658 1103.81 207.983 1105.74 207.789 1107.83L199.868 1108.65C200.09 1106.95 199.934 1105.54 199.398 1104.42C198.879 1103.34 198.134 1102.57 197.166 1102.11C196.215 1101.64 194.85 1101.55 193.072 1101.85C191.304 1102.18 187.921 1103.52 182.925 1105.89L173.856 1110.2Z" fill="white"/>
<path d="M187.857 1118.06L193.063 1125.03C191.754 1126.14 190.975 1127.38 190.724 1128.78C190.492 1130.17 190.847 1131.75 191.794 1133.52C192.836 1135.48 193.981 1136.76 195.228 1137.37C196.086 1137.77 196.94 1137.74 197.79 1137.3C198.368 1136.99 198.75 1136.56 198.938 1136C199.098 1135.44 198.984 1134.42 198.592 1132.95C196.698 1126.13 195.875 1121.61 196.126 1119.39C196.474 1116.31 198.029 1114.05 200.792 1112.59C203.283 1111.28 205.897 1111.16 208.635 1112.22C211.375 1113.29 213.838 1115.87 216.026 1119.98C218.108 1123.89 219.015 1127.14 218.747 1129.72C218.477 1132.29 217.279 1134.6 215.151 1136.64L210.027 1130.2C210.983 1129.31 211.531 1128.27 211.668 1127.1C211.814 1125.94 211.468 1124.58 210.628 1123C209.567 1121 208.527 1119.72 207.51 1119.16C206.806 1118.79 206.139 1118.77 205.507 1119.11C204.965 1119.39 204.638 1119.89 204.526 1120.59C204.386 1121.54 204.924 1124.26 206.142 1128.77C207.373 1133.29 207.743 1136.7 207.259 1139C206.745 1141.29 205.279 1143.07 202.859 1144.35C200.223 1145.73 197.375 1145.83 194.314 1144.64C191.252 1143.45 188.581 1140.71 186.297 1136.42C184.224 1132.52 183.375 1129.02 183.75 1125.9C184.135 1122.8 185.504 1120.19 187.857 1118.06Z" fill="white"/>
<path d="M216.344 1166.86L219.483 1174.93C216.217 1175.58 213.262 1175.3 210.619 1174.1C208.004 1172.9 205.785 1170.78 203.96 1167.72C201.072 1162.88 200.524 1158.37 202.317 1154.17C203.77 1150.83 206.438 1148.02 210.318 1145.73C214.956 1142.99 219.303 1142.06 223.358 1142.92C227.431 1143.78 230.569 1146.05 232.769 1149.73C235.238 1153.87 235.809 1157.95 234.48 1161.97C233.168 1165.98 229.645 1169.6 223.908 1172.85L212.899 1154.41C210.735 1155.75 209.377 1157.36 208.824 1159.22C208.29 1161.07 208.529 1162.84 209.541 1164.53C210.229 1165.69 211.123 1166.47 212.224 1166.88C213.327 1167.29 214.699 1167.29 216.344 1166.86ZM224.077 1162.86C226.188 1161.55 227.484 1160.04 227.966 1158.34C228.464 1156.63 228.266 1155.02 227.369 1153.52C226.41 1151.91 225.03 1150.93 223.227 1150.58C221.425 1150.23 219.518 1150.65 217.51 1151.86L224.077 1162.86Z" fill="white"/>
<path d="M250.86 1197.11L244.899 1190.91C246.156 1189.74 246.86 1188.5 247.012 1187.18C247.175 1185.88 246.812 1184.56 245.922 1183.23C244.74 1181.45 243.171 1180.43 241.218 1180.18C239.292 1179.94 236.881 1180.77 233.985 1182.68C230.766 1184.79 228.846 1186.82 228.228 1188.76C227.619 1190.72 227.918 1192.61 229.123 1194.42C230.026 1195.77 231.146 1196.63 232.489 1196.99C233.846 1197.34 235.59 1197.07 237.718 1196.18L241.18 1203.98C237.459 1205.38 234.086 1205.59 231.059 1204.61C228.03 1203.63 225.362 1201.41 223.052 1197.94C220.426 1193.99 219.584 1190.02 220.521 1186.01C221.472 1182.03 224.16 1178.58 228.591 1175.67C233.071 1172.72 237.337 1171.61 241.391 1172.33C245.462 1173.04 248.831 1175.4 251.503 1179.41C253.688 1182.7 254.709 1185.78 254.562 1188.65C254.442 1191.53 253.208 1194.34 250.86 1197.11Z" fill="white"/>
<path d="M248.506 1232.53L252.427 1229.66C250.326 1229.74 248.297 1229.29 246.34 1228.33C244.395 1227.39 242.787 1226.05 241.513 1224.34C240.216 1222.59 239.44 1220.74 239.182 1218.78C238.925 1216.83 239.263 1215.03 240.201 1213.38C241.138 1211.74 242.84 1210.01 245.304 1208.2L261.877 1196.05L266.986 1202.94L254.952 1211.77C251.269 1214.46 249.099 1216.24 248.443 1217.1C247.814 1217.97 247.502 1218.91 247.506 1219.95C247.527 1220.97 247.919 1221.99 248.681 1223.02C249.554 1224.2 250.657 1225.02 251.99 1225.48C253.338 1225.93 254.615 1225.98 255.825 1225.62C257.049 1225.25 259.534 1223.69 263.284 1220.95L274.331 1212.85L279.44 1219.74L253.25 1238.93L248.506 1232.53Z" fill="white"/>
<path d="M264.248 1252.58L258.842 1245.91L284.165 1225.6L289.185 1231.79L285.586 1234.68C288.145 1234.37 290.037 1234.42 291.256 1234.82C292.49 1235.24 293.541 1235.99 294.414 1237.06C295.646 1238.58 296.411 1240.38 296.709 1242.47L289.195 1245.09C289.014 1243.38 288.535 1242.04 287.752 1241.08C286.995 1240.15 286.092 1239.57 285.04 1239.34C284.006 1239.1 282.659 1239.33 281 1240.04C279.355 1240.76 276.377 1242.85 272.069 1246.3L264.248 1252.58Z" fill="white"/>
<path d="M302.786 1241.31L308.838 1236.16L314.436 1242.67L308.386 1247.82L302.786 1241.31ZM274.715 1265.2L299.436 1244.17L305.033 1250.67L280.313 1271.7L274.715 1265.2Z" fill="white"/>
<path d="M320.471 1267.84L315.378 1272.42L311.434 1268.08L301.704 1276.81C299.733 1278.58 298.615 1279.66 298.35 1280.03C298.115 1280.41 298.019 1280.83 298.067 1281.31C298.13 1281.8 298.352 1282.26 298.734 1282.68C299.269 1283.27 300.248 1283.94 301.67 1284.68L297.206 1289.68C295.228 1288.77 293.39 1287.39 291.692 1285.52C290.651 1284.37 289.904 1283.17 289.448 1281.91C289.007 1280.64 288.891 1279.51 289.1 1278.53C289.338 1277.55 289.904 1276.5 290.8 1275.4C291.42 1274.6 292.857 1273.18 295.116 1271.15L305.644 1261.7L302.994 1258.78L308.088 1254.21L310.736 1257.13L315.533 1252.82L325.054 1255.84L316.528 1263.5L320.471 1267.84Z" fill="white"/>
<path d="M321.068 1268.7L327.469 1275.22L316.378 1296.8L338.215 1286.16L344.444 1292.5L314.014 1306.08L308.525 1308.56C306.638 1309.34 305.093 1309.83 303.893 1310.03C302.704 1310.25 301.579 1310.25 300.512 1310.03C299.445 1309.85 298.331 1309.41 297.169 1308.72C296.023 1308.05 294.878 1307.13 293.735 1305.97C292.579 1304.79 291.57 1303.52 290.705 1302.14L294.992 1296.91C295.745 1298.06 296.498 1299.01 297.255 1299.78C298.653 1301.21 300.111 1301.85 301.63 1301.71C303.134 1301.58 304.714 1301.07 306.372 1300.17L321.068 1268.7Z" fill="white"/>
<path d="M358.203 1318.64L353.288 1312.45C356.029 1310.68 358.705 1309.94 361.312 1310.23C363.92 1310.52 366.807 1312.06 369.973 1314.84C372.849 1317.37 374.686 1319.6 375.483 1321.52C376.295 1323.43 376.517 1325.16 376.148 1326.7C375.81 1328.25 374.401 1330.41 371.923 1333.2L365.194 1340.62C363.299 1342.75 361.998 1344.41 361.289 1345.6C360.61 1346.79 360.039 1348.22 359.576 1349.87L353.198 1344.26C353.409 1343.68 353.765 1342.87 354.265 1341.82C354.495 1341.35 354.643 1341.03 354.704 1340.87C352.656 1340.96 350.768 1340.72 349.04 1340.15C347.311 1339.58 345.737 1338.67 344.313 1337.42C341.805 1335.21 340.426 1332.79 340.179 1330.16C339.945 1327.54 340.75 1325.2 342.59 1323.13C343.809 1321.76 345.222 1320.83 346.827 1320.35C348.445 1319.85 350.093 1319.83 351.772 1320.31C353.48 1320.78 355.64 1321.78 358.252 1323.32C361.766 1325.41 364.322 1326.72 365.917 1327.26L366.485 1326.62C367.581 1325.39 368.054 1324.25 367.902 1323.19C367.765 1322.12 366.847 1320.84 365.149 1319.34C364.002 1318.33 362.903 1317.77 361.855 1317.67C360.819 1317.54 359.602 1317.87 358.203 1318.64ZM362.2 1331.43C361.131 1330.98 359.532 1330.16 357.404 1328.96C355.276 1327.77 353.774 1327.11 352.898 1326.99C351.529 1326.84 350.439 1327.23 349.627 1328.14C348.829 1329.04 348.473 1330.11 348.564 1331.36C348.656 1332.6 349.22 1333.68 350.261 1334.6C351.424 1335.62 352.871 1336.22 354.603 1336.38C355.898 1336.49 357.039 1336.24 358.03 1335.61C358.684 1335.22 359.695 1334.25 361.062 1332.71L362.2 1331.43Z" fill="white"/>
<path d="M388.173 1372.78L381.444 1367.44L391.803 1354.53C393.994 1351.8 395.264 1349.93 395.614 1348.91C395.977 1347.87 396.009 1346.87 395.711 1345.9C395.429 1344.95 394.832 1344.12 393.923 1343.4C392.758 1342.47 391.457 1341.96 390.022 1341.86C388.586 1341.76 387.272 1342.09 386.08 1342.86C384.903 1343.64 383.182 1345.45 380.914 1348.27L371.722 1359.73L364.993 1354.39L385.287 1329.1L391.539 1334.06L388.557 1337.77C393.07 1336.68 397.009 1337.47 400.379 1340.14C401.864 1341.32 403.005 1342.66 403.799 1344.18C404.609 1345.68 404.993 1347.09 404.953 1348.41C404.929 1349.74 404.617 1351.02 404.016 1352.26C403.43 1353.51 402.354 1355.11 400.787 1357.06L388.173 1372.78Z" fill="white"/>
<path d="M419.862 1395.57L413.354 1390.96L416.13 1387.09C413.97 1387.82 411.884 1388.04 409.87 1387.73C407.885 1387.42 406.143 1386.74 404.647 1385.68C401.605 1383.52 399.867 1380.45 399.433 1376.47C399.028 1372.49 400.394 1368.32 403.525 1363.96C406.731 1359.5 410.218 1356.86 413.991 1356.04C417.776 1355.21 421.281 1355.94 424.505 1358.23C427.464 1360.33 429.147 1363.37 429.552 1367.35L438.951 1354.26L445.957 1359.23L419.862 1395.57ZM411.021 1368.57C409.003 1371.38 407.935 1373.69 407.815 1375.5C407.64 1378.12 408.566 1380.15 410.595 1381.59C412.207 1382.73 414.065 1383.03 416.168 1382.48C418.284 1381.9 420.315 1380.27 422.26 1377.55C424.433 1374.53 425.445 1371.97 425.296 1369.87C425.16 1367.75 424.235 1366.08 422.524 1364.87C420.862 1363.69 418.989 1363.36 416.911 1363.88C414.86 1364.39 412.895 1365.96 411.021 1368.57Z" fill="white"/>
<path d="M442.272 1410.21L465.339 1371.89L477.827 1379.32C482.558 1382.14 485.528 1384.16 486.733 1385.4C488.597 1387.29 489.69 1389.64 490.015 1392.47C490.352 1395.27 489.601 1398.19 487.766 1401.24C486.349 1403.6 484.729 1405.32 482.906 1406.41C481.082 1407.5 479.227 1408.12 477.338 1408.25C475.479 1408.37 473.775 1408.17 472.231 1407.66C470.153 1406.92 467.352 1405.5 463.829 1403.4L458.756 1400.38L450.055 1414.84L442.272 1410.21ZM469.218 1383L462.673 1393.88L466.932 1396.41C469.999 1398.23 472.17 1399.25 473.446 1399.47C474.72 1399.68 475.905 1399.54 476.996 1399.03C478.107 1398.53 479.002 1397.71 479.685 1396.58C480.523 1395.18 480.805 1393.79 480.525 1392.39C480.248 1391 479.546 1389.81 478.42 1388.83C477.595 1388.11 475.781 1386.91 472.979 1385.24L469.218 1383Z" fill="white"/>
<path d="M485.994 1435.28L478.409 1431.23L493.805 1402.73L500.85 1406.5L498.661 1410.55C500.901 1409.28 502.662 1408.59 503.943 1408.49C505.244 1408.41 506.506 1408.69 507.729 1409.34C509.457 1410.26 510.866 1411.62 511.954 1413.43L506.054 1418.75C505.221 1417.24 504.257 1416.2 503.158 1415.61C502.097 1415.04 501.038 1414.86 499.981 1415.06C498.935 1415.24 497.785 1415.97 496.532 1417.26C495.296 1418.56 493.368 1421.63 490.749 1426.48L485.994 1435.28Z" fill="white"/>
<path d="M517.122 1410.01L520.682 1402.93L528.384 1406.76L524.823 1413.84L517.122 1410.01ZM500.606 1442.87L515.15 1413.94L522.851 1417.76L508.307 1446.7L500.606 1442.87Z" fill="white"/>
<path d="M524.661 1454.45L526.186 1419.6L534.414 1423.32L533.122 1440.87L532.446 1446.62C533.455 1445.54 534.109 1444.82 534.408 1444.46C535.049 1443.75 535.706 1443.04 536.385 1442.34L548.889 1429.86L556.951 1433.5L531.717 1457.63L524.661 1454.45Z" fill="white"/>
<path d="M563.169 1446.57L556.424 1442.41C558.4 1439.82 560.663 1438.22 563.213 1437.61C565.762 1437 569.004 1437.47 572.935 1439.02C576.505 1440.42 578.994 1441.89 580.403 1443.43C581.818 1444.95 582.618 1446.5 582.803 1448.08C583.012 1449.65 582.428 1452.16 581.052 1455.61L577.266 1464.87C576.213 1467.51 575.558 1469.51 575.3 1470.87C575.07 1472.23 575.02 1473.76 575.152 1475.47L567.232 1472.35C567.234 1471.74 567.289 1470.86 567.399 1469.7C567.455 1469.17 567.483 1468.82 567.487 1468.65C565.593 1469.43 563.735 1469.85 561.916 1469.9C560.096 1469.94 558.301 1469.62 556.537 1468.92C553.422 1467.7 551.296 1465.89 550.163 1463.5C549.047 1461.11 549.001 1458.64 550.024 1456.07C550.701 1454.37 551.711 1453.02 553.055 1452.02C554.405 1451.01 555.951 1450.43 557.691 1450.31C559.457 1450.18 561.834 1450.39 564.815 1450.95C568.835 1451.73 571.687 1452.1 573.372 1452.06L573.688 1451.27C574.296 1449.74 574.349 1448.51 573.845 1447.56C573.349 1446.6 572.047 1445.71 569.94 1444.88C568.516 1444.32 567.291 1444.16 566.268 1444.42C565.253 1444.65 564.218 1445.37 563.169 1446.57ZM571.307 1457.25C570.145 1457.18 568.36 1456.95 565.951 1456.55C563.54 1456.14 561.902 1456.03 561.039 1456.22C559.701 1456.54 558.807 1457.27 558.356 1458.4C557.911 1459.52 557.946 1460.64 558.457 1461.79C558.97 1462.93 559.872 1463.75 561.163 1464.26C562.606 1464.83 564.171 1464.9 565.857 1464.47C567.112 1464.13 568.097 1463.51 568.816 1462.59C569.295 1461.99 569.915 1460.74 570.674 1458.83L571.307 1457.25Z" fill="white"/>
<path d="M616.072 1465.36L607.544 1464.09C607.82 1462.4 607.613 1460.99 606.922 1459.86C606.251 1458.73 605.152 1457.91 603.624 1457.39C601.593 1456.7 599.729 1456.85 598.03 1457.85C596.358 1458.82 594.963 1460.95 593.845 1464.22C592.601 1467.85 592.331 1470.62 593.036 1472.53C593.761 1474.45 595.158 1475.76 597.227 1476.46C598.773 1476.98 600.188 1476.98 601.471 1476.45C602.758 1475.9 603.971 1474.62 605.109 1472.63L612.65 1476.69C610.568 1480.06 608.029 1482.28 605.031 1483.35C602.034 1484.41 598.554 1484.28 594.59 1482.94C590.084 1481.41 586.971 1478.78 585.25 1475.05C583.548 1471.32 583.554 1466.96 585.263 1461.96C586.994 1456.9 589.684 1453.43 593.331 1451.53C596.988 1449.61 601.106 1449.43 605.688 1450.98C609.44 1452.25 612.142 1454.06 613.794 1456.42C615.471 1458.77 616.23 1461.75 616.072 1465.36Z" fill="white"/>
<path d="M620.436 1456.76L629.243 1459.26L630.369 1483.47L644.031 1463.47L652.602 1465.91L632.94 1492.7L629.407 1497.55C628.158 1499.16 627.062 1500.35 626.119 1501.12C625.195 1501.89 624.218 1502.44 623.185 1502.78C622.166 1503.15 620.982 1503.32 619.628 1503.29C618.297 1503.27 616.844 1503.04 615.274 1502.59C613.682 1502.14 612.168 1501.53 610.733 1500.76L611.851 1494.11C613.074 1494.73 614.207 1495.19 615.247 1495.49C617.171 1496.04 618.759 1495.87 620.006 1495C621.25 1494.15 622.368 1492.93 623.358 1491.33L620.436 1456.76Z" fill="white"/>
<path d="M666.81 1502.62L675.748 1458.86L690.011 1461.74C695.415 1462.83 698.892 1463.76 700.446 1464.53C702.834 1465.69 704.652 1467.55 705.903 1470.11C707.156 1472.64 707.428 1475.65 706.717 1479.13C706.167 1481.82 705.216 1483.98 703.861 1485.61C702.507 1487.24 700.961 1488.43 699.223 1489.18C697.512 1489.91 695.84 1490.29 694.209 1490.31C692.002 1490.3 688.887 1489.89 684.864 1489.08L679.068 1487.91L675.697 1504.42L666.81 1502.62ZM683.124 1468.06L680.587 1480.47L685.451 1481.46C688.954 1482.16 691.342 1482.41 692.618 1482.19C693.892 1481.97 694.958 1481.44 695.818 1480.6C696.698 1479.76 697.27 1478.69 697.535 1477.4C697.86 1475.81 697.658 1474.4 696.928 1473.18C696.198 1471.95 695.141 1471.06 693.751 1470.51C692.732 1470.1 690.619 1469.57 687.417 1468.92L683.124 1468.06Z" fill="white"/>
<path d="M716.444 1511.85L707.937 1510.53L712.932 1478.57L720.832 1479.79L720.123 1484.33C721.81 1482.4 723.243 1481.17 724.419 1480.65C725.616 1480.14 726.9 1479.99 728.273 1480.2C730.21 1480.5 731.994 1481.32 733.623 1482.66L729.838 1489.63C728.548 1488.48 727.29 1487.82 726.058 1487.63C724.867 1487.44 723.806 1487.62 722.875 1488.15C721.947 1488.66 721.108 1489.74 720.357 1491.37C719.627 1493 718.836 1496.54 717.986 1501.98L716.444 1511.85Z" fill="white"/>
<path d="M732.723 1497.57C733.036 1494.74 734.042 1492.08 735.738 1489.59C737.434 1487.1 739.638 1485.3 742.351 1484.19C745.086 1483.08 748.037 1482.71 751.203 1483.05C756.095 1483.6 759.928 1485.62 762.7 1489.14C765.477 1492.63 766.595 1496.79 766.056 1501.61C765.513 1506.47 763.48 1510.34 759.955 1513.2C756.452 1516.04 752.305 1517.19 747.514 1516.67C744.549 1516.34 741.792 1515.36 739.241 1513.73C736.71 1512.1 734.886 1509.93 733.772 1507.21C732.66 1504.48 732.31 1501.26 732.723 1497.57ZM741.441 1498.99C741.085 1502.18 741.574 1504.7 742.907 1506.57C744.241 1508.43 746.025 1509.48 748.257 1509.73C750.489 1509.98 752.452 1509.33 754.144 1507.81C755.855 1506.28 756.892 1503.9 757.253 1500.67C757.603 1497.52 757.112 1495.01 755.779 1493.15C754.465 1491.29 752.693 1490.24 750.459 1489.99C748.227 1489.74 746.253 1490.39 744.542 1491.91C742.831 1493.44 741.796 1495.8 741.441 1498.99Z" fill="white"/>
<path d="M788.432 1486.98L787.928 1493.78L782.062 1493.35L781.1 1506.35C780.904 1508.99 780.842 1510.53 780.91 1510.98C781.001 1511.42 781.23 1511.79 781.595 1512.1C781.982 1512.42 782.46 1512.59 783.03 1512.63C783.825 1512.69 784.996 1512.5 786.544 1512.07L786.787 1518.74C784.728 1519.45 782.435 1519.71 779.91 1519.52C778.362 1519.41 776.986 1519.05 775.78 1518.46C774.576 1517.84 773.709 1517.11 773.179 1516.25C772.669 1515.38 772.354 1514.24 772.234 1512.82C772.124 1511.82 772.181 1509.8 772.405 1506.79L773.445 1492.72L769.503 1492.43L770.007 1485.63L773.949 1485.92L774.424 1479.51L783.408 1475.16L782.566 1486.55L788.432 1486.98Z" fill="white"/>
<path d="M811.361 1509.91L819.889 1511.61C818.685 1514.7 816.864 1517.03 814.422 1518.6C812.002 1520.15 809.005 1520.86 805.432 1520.75C799.778 1520.57 795.652 1518.6 793.054 1514.84C791.006 1511.83 790.054 1508.08 790.2 1503.59C790.373 1498.24 791.917 1494.09 794.832 1491.16C797.747 1488.2 801.36 1486.79 805.666 1486.93C810.505 1487.09 814.27 1488.8 816.965 1492.08C819.659 1495.33 820.84 1500.24 820.505 1506.79L798.947 1506.1C798.926 1508.64 799.557 1510.64 800.837 1512.1C802.118 1513.55 803.75 1514.3 805.731 1514.36C807.077 1514.4 808.222 1514.07 809.165 1513.37C810.108 1512.67 810.84 1511.52 811.361 1509.91ZM812.131 1501.28C812.15 1498.8 811.566 1496.9 810.384 1495.58C809.201 1494.25 807.731 1493.55 805.976 1493.49C804.098 1493.43 802.523 1494.06 801.255 1495.38C799.987 1496.7 799.325 1498.53 799.27 1500.87L812.131 1501.28Z" fill="white"/>
<path d="M855.57 1497.25L847.11 1498.91C846.797 1497.23 846.122 1495.97 845.087 1495.14C844.072 1494.3 842.758 1493.89 841.146 1493.92C839.001 1493.95 837.297 1494.72 836.035 1496.23C834.793 1497.71 834.2 1500.18 834.255 1503.63C834.318 1507.47 835.006 1510.16 836.318 1511.73C837.651 1513.29 839.41 1514.05 841.596 1514.02C843.23 1513.99 844.561 1513.51 845.585 1512.58C846.612 1511.63 847.321 1510.03 847.713 1507.77L856.192 1509.06C855.378 1512.93 853.741 1515.87 851.28 1517.88C848.822 1519.89 845.498 1520.93 841.311 1521C836.554 1521.08 832.73 1519.65 829.842 1516.71C826.974 1513.77 825.499 1509.66 825.413 1504.38C825.326 1499.04 826.678 1494.86 829.467 1491.85C832.256 1488.82 836.073 1487.27 840.912 1487.19C844.874 1487.13 848.033 1487.93 850.39 1489.6C852.765 1491.24 854.492 1493.8 855.57 1497.25Z" fill="white"/>
<path d="M875.937 1486.49L876.316 1493.3L870.44 1493.63L871.161 1506.64C871.307 1509.28 871.444 1510.82 871.57 1511.26C871.716 1511.68 871.992 1512.02 872.395 1512.28C872.817 1512.54 873.315 1512.66 873.886 1512.63C874.682 1512.58 875.82 1512.24 877.297 1511.61L878.4 1518.2C876.447 1519.17 874.207 1519.71 871.678 1519.85C870.129 1519.94 868.718 1519.76 867.446 1519.32C866.172 1518.86 865.217 1518.24 864.58 1517.46C863.964 1516.67 863.504 1515.57 863.202 1514.19C862.964 1513.2 862.761 1511.2 862.593 1508.18L861.814 1494.1L857.868 1494.31L857.492 1487.5L861.437 1487.28L861.082 1480.87L869.433 1475.41L870.064 1486.81L875.937 1486.49Z" fill="white"/>
<path d="M880.923 1481.71L880.271 1473.82L888.852 1473.12L889.504 1481.01L880.923 1481.71ZM883.944 1518.32L881.284 1486.08L889.864 1485.38L892.526 1517.62L883.944 1518.32Z" fill="white"/>
<path d="M897.734 1500.6C897.389 1497.78 897.755 1494.97 898.831 1492.16C899.907 1489.35 901.637 1487.09 904.022 1485.39C906.427 1483.69 909.213 1482.65 912.375 1482.26C917.261 1481.67 921.46 1482.77 924.97 1485.56C928.476 1488.33 930.524 1492.12 931.113 1496.94C931.706 1501.8 930.619 1506.02 927.846 1509.61C925.093 1513.17 921.325 1515.24 916.539 1515.82C913.578 1516.18 910.669 1515.86 907.809 1514.85C904.97 1513.84 902.694 1512.14 900.983 1509.75C899.268 1507.34 898.186 1504.29 897.734 1500.6ZM906.549 1500C906.938 1503.18 907.998 1505.53 909.724 1507.04C911.452 1508.55 913.432 1509.17 915.662 1508.9C917.892 1508.63 919.655 1507.56 920.948 1505.68C922.262 1503.81 922.72 1501.26 922.327 1498.03C921.943 1494.89 920.885 1492.56 919.159 1491.05C917.451 1489.54 915.482 1488.92 913.251 1489.18C911.021 1489.45 909.249 1490.53 907.935 1492.41C906.623 1494.28 906.159 1496.81 906.549 1500Z" fill="white"/>
<path d="M969.438 1506.86L960.96 1508.35L958.071 1492.09C957.459 1488.65 956.885 1486.46 956.345 1485.52C955.801 1484.57 955.067 1483.88 954.143 1483.47C953.24 1483.05 952.213 1482.94 951.067 1483.14C949.599 1483.4 948.353 1484.03 947.328 1485.04C946.304 1486.04 945.687 1487.24 945.48 1488.64C945.292 1490.03 945.514 1492.51 946.148 1496.07L948.711 1510.5L940.232 1511.99L934.572 1480.13L942.446 1478.75L943.278 1483.43C945.435 1479.34 948.635 1476.92 952.879 1476.17C954.748 1475.84 956.518 1475.88 958.187 1476.29C959.855 1476.68 961.173 1477.32 962.14 1478.23C963.131 1479.13 963.894 1480.21 964.43 1481.47C964.987 1482.74 965.483 1484.6 965.921 1487.06L969.438 1506.86Z" fill="white"/>
<path d="M988.209 1490.13L986.486 1483.97L1046.95 1467.27L1048.67 1473.44L988.209 1490.13Z" fill="white"/>
<path d="M1073.28 1478.04L1057.8 1436.12L1066.32 1433.02L1081.8 1474.93L1073.28 1478.04Z" fill="white"/>
<path d="M1117.59 1460.65L1109.63 1463.92L1103.3 1448.65C1101.96 1445.42 1100.93 1443.41 1100.2 1442.61C1099.46 1441.79 1098.6 1441.28 1097.6 1441.07C1096.63 1440.85 1095.61 1440.97 1094.53 1441.41C1093.15 1441.97 1092.07 1442.85 1091.29 1444.06C1090.5 1445.26 1090.16 1446.56 1090.26 1447.97C1090.38 1449.37 1091.13 1451.74 1092.51 1455.08L1098.13 1468.63L1090.17 1471.89L1077.77 1441.99L1085.16 1438.95L1086.98 1443.35C1088.21 1438.89 1090.81 1435.85 1094.79 1434.22C1096.55 1433.5 1098.29 1433.16 1100.01 1433.2C1101.72 1433.22 1103.14 1433.57 1104.29 1434.25C1105.45 1434.91 1106.42 1435.81 1107.22 1436.93C1108.04 1438.05 1108.92 1439.76 1109.88 1442.07L1117.59 1460.65Z" fill="white"/>
<path d="M1108.85 1429.05L1113.19 1427.06L1112.16 1424.85C1111.01 1422.38 1110.42 1420.41 1110.37 1418.96C1110.34 1417.5 1110.86 1416.06 1111.92 1414.66C1112.98 1413.23 1114.6 1412.02 1116.77 1411.02C1119 1410 1121.33 1409.33 1123.77 1409.02L1125.23 1414.92C1123.85 1415.2 1122.59 1415.6 1121.44 1416.13C1120.31 1416.65 1119.61 1417.29 1119.36 1418.05C1119.12 1418.79 1119.35 1419.9 1120.04 1421.4L1121 1423.47L1126.85 1420.79L1129.68 1426.9L1123.84 1429.58L1134.65 1452.84L1126.83 1456.43L1116.03 1433.17L1111.69 1435.16L1108.85 1429.05Z" fill="white"/>
<path d="M1135.85 1434.05C1134.54 1431.52 1133.91 1428.75 1133.94 1425.74C1133.97 1422.74 1134.81 1420.03 1136.46 1417.61C1138.12 1415.19 1140.37 1413.25 1143.2 1411.81C1147.58 1409.57 1151.9 1409.16 1156.17 1410.57C1160.42 1411.96 1163.66 1414.81 1165.89 1419.13C1168.14 1423.48 1168.59 1427.82 1167.23 1432.14C1165.89 1436.43 1163.08 1439.67 1158.79 1441.86C1156.13 1443.21 1153.29 1443.91 1150.26 1443.95C1147.24 1443.98 1144.52 1443.17 1142.08 1441.52C1139.63 1439.84 1137.55 1437.35 1135.85 1434.05ZM1143.91 1430.45C1145.38 1433.3 1147.19 1435.14 1149.34 1435.96C1151.48 1436.79 1153.56 1436.69 1155.56 1435.67C1157.56 1434.65 1158.83 1433.04 1159.4 1430.83C1159.98 1428.62 1159.52 1426.07 1158.03 1423.18C1156.57 1420.36 1154.77 1418.54 1152.62 1417.72C1150.5 1416.88 1148.43 1416.98 1146.43 1418C1144.44 1419.02 1143.15 1420.63 1142.57 1422.85C1141.99 1425.06 1142.44 1427.59 1143.91 1430.45Z" fill="white"/>
<path d="M1186.73 1425.97L1179.25 1430.21L1163.13 1402.11L1170.08 1398.17L1172.37 1402.17C1172.48 1399.6 1172.83 1397.76 1173.43 1396.62C1174.04 1395.48 1174.95 1394.57 1176.16 1393.88C1177.86 1392.92 1179.77 1392.45 1181.89 1392.49L1183.29 1400.29C1181.56 1400.19 1180.16 1400.45 1179.08 1401.07C1178.03 1401.66 1177.31 1402.45 1176.92 1403.45C1176.51 1404.42 1176.53 1405.78 1176.96 1407.52C1177.41 1409.25 1179.01 1412.51 1181.75 1417.29L1186.73 1425.97Z" fill="white"/>
<path d="M1183.16 1391.04L1189.82 1386.75L1192.24 1390.46C1192.75 1386.05 1194.64 1382.78 1197.94 1380.66C1199.69 1379.54 1201.44 1378.92 1203.19 1378.81C1204.94 1378.7 1206.7 1379.1 1208.47 1380.02C1208.72 1377.8 1209.32 1375.89 1210.24 1374.28C1211.16 1372.67 1212.41 1371.35 1213.99 1370.34C1216 1369.05 1217.96 1368.37 1219.88 1368.29C1221.79 1368.2 1223.6 1368.72 1225.31 1369.85C1226.56 1370.68 1228.03 1372.4 1229.71 1374.99L1241.01 1392.36L1233.79 1397.01L1223.69 1381.48C1221.93 1378.79 1220.55 1377.21 1219.54 1376.74C1218.21 1376.15 1216.85 1376.3 1215.46 1377.2C1214.45 1377.85 1213.7 1378.76 1213.2 1379.95C1212.71 1381.14 1212.66 1382.46 1213.04 1383.9C1213.41 1385.34 1214.43 1387.33 1216.09 1389.89L1224.58 1402.93L1217.35 1407.58L1207.66 1392.69C1205.94 1390.05 1204.71 1388.43 1203.95 1387.83C1203.19 1387.23 1202.42 1386.91 1201.62 1386.89C1200.85 1386.86 1200 1387.14 1199.07 1387.73C1197.96 1388.45 1197.15 1389.4 1196.65 1390.57C1196.14 1391.74 1196.06 1393.01 1196.4 1394.39C1196.75 1395.76 1197.78 1397.75 1199.47 1400.35L1208.06 1413.55L1200.83 1418.2L1183.16 1391.04Z" fill="white"/>
<path d="M1240.13 1365L1233.01 1368.49C1231.84 1365.46 1231.67 1362.71 1232.5 1360.23C1233.32 1357.75 1235.43 1355.26 1238.83 1352.76C1241.92 1350.49 1244.49 1349.16 1246.55 1348.79C1248.59 1348.39 1250.34 1348.54 1251.78 1349.22C1253.23 1349.87 1255.07 1351.68 1257.29 1354.67L1263.2 1362.75C1264.9 1365.04 1266.27 1366.65 1267.29 1367.59C1268.33 1368.49 1269.61 1369.34 1271.14 1370.14L1264.3 1375.18C1263.77 1374.85 1263.05 1374.34 1262.12 1373.63C1261.7 1373.31 1261.41 1373.1 1261.27 1373.01C1260.94 1375.02 1260.31 1376.81 1259.39 1378.37C1258.47 1379.93 1257.25 1381.27 1255.72 1382.4C1253.03 1384.38 1250.36 1385.22 1247.72 1384.92C1245.09 1384.6 1242.96 1383.33 1241.3 1381.11C1240.21 1379.64 1239.59 1378.08 1239.45 1376.41C1239.29 1374.74 1239.62 1373.13 1240.43 1371.6C1241.25 1370.03 1242.69 1368.14 1244.74 1365.92C1247.53 1362.93 1249.35 1360.72 1250.21 1359.28L1249.7 1358.6C1248.71 1357.27 1247.68 1356.58 1246.61 1356.51C1245.53 1356.42 1244.08 1357.05 1242.26 1358.39C1241.03 1359.29 1240.25 1360.24 1239.92 1361.24C1239.59 1362.22 1239.65 1363.47 1240.13 1365ZM1253.54 1363.76C1252.88 1364.71 1251.73 1366.09 1250.12 1367.91C1248.5 1369.74 1247.54 1371.06 1247.24 1371.89C1246.81 1373.19 1246.96 1374.33 1247.69 1375.31C1248.41 1376.27 1249.39 1376.84 1250.64 1377.01C1251.88 1377.18 1253.06 1376.85 1254.18 1376.03C1255.43 1375.11 1256.31 1373.83 1256.84 1372.18C1257.21 1370.94 1257.2 1369.78 1256.79 1368.68C1256.53 1367.96 1255.79 1366.78 1254.56 1365.13L1253.54 1363.76Z" fill="white"/>
<path d="M1267.83 1331.23L1272.13 1336.56L1267.54 1340.22L1275.75 1350.38C1277.41 1352.44 1278.42 1353.62 1278.78 1353.9C1279.15 1354.16 1279.57 1354.28 1280.05 1354.25C1280.55 1354.22 1281.02 1354.03 1281.47 1353.67C1282.09 1353.18 1282.81 1352.25 1283.65 1350.88L1288.4 1355.6C1287.38 1357.51 1285.88 1359.25 1283.9 1360.83C1282.69 1361.8 1281.44 1362.47 1280.15 1362.85C1278.84 1363.21 1277.7 1363.26 1276.73 1362.99C1275.76 1362.7 1274.75 1362.08 1273.69 1361.12C1272.92 1360.46 1271.58 1358.95 1269.68 1356.59L1260.8 1345.59L1257.72 1348.05L1253.43 1342.73L1256.51 1340.27L1252.46 1335.26L1256.06 1325.98L1263.25 1334.89L1267.83 1331.23Z" fill="white"/>
<path d="M1269.1 1324.43L1263.96 1318.39L1270.53 1312.86L1275.68 1318.9L1269.1 1324.43ZM1292.98 1352.47L1271.96 1327.78L1278.53 1322.25L1299.55 1346.93L1292.98 1352.47Z" fill="white"/>
<path d="M1293.82 1330.11C1291.89 1328.01 1290.54 1325.51 1289.77 1322.6C1289 1319.69 1289.09 1316.86 1290.04 1314.1C1291 1311.32 1292.65 1308.86 1295 1306.72C1298.63 1303.42 1302.69 1301.89 1307.18 1302.13C1311.65 1302.35 1315.53 1304.25 1318.83 1307.83C1322.16 1311.44 1323.74 1315.51 1323.58 1320.03C1323.43 1324.52 1321.57 1328.38 1318.02 1331.62C1315.82 1333.62 1313.26 1335.04 1310.35 1335.88C1307.45 1336.7 1304.6 1336.63 1301.81 1335.67C1299.01 1334.7 1296.34 1332.85 1293.82 1330.11ZM1300.64 1324.52C1302.81 1326.89 1305.05 1328.18 1307.34 1328.41C1309.63 1328.64 1311.6 1328 1313.25 1326.49C1314.91 1324.99 1315.72 1323.1 1315.68 1320.82C1315.65 1318.54 1314.53 1316.2 1312.32 1313.8C1310.17 1311.46 1307.95 1310.18 1305.66 1309.95C1303.39 1309.71 1301.42 1310.34 1299.76 1311.85C1298.11 1313.36 1297.29 1315.25 1297.32 1317.54C1297.35 1319.83 1298.46 1322.15 1300.64 1324.52Z" fill="white"/>
<path d="M1355.81 1293.77L1349.78 1299.88L1337.93 1288.31C1335.42 1285.87 1333.67 1284.42 1332.69 1283.97C1331.68 1283.5 1330.69 1283.37 1329.69 1283.57C1328.71 1283.75 1327.81 1284.25 1327 1285.08C1325.95 1286.13 1325.31 1287.37 1325.06 1288.78C1324.81 1290.19 1325.02 1291.52 1325.66 1292.78C1326.32 1294.02 1327.95 1295.91 1330.55 1298.44L1341.07 1308.7L1335.04 1314.81L1311.81 1292.16L1317.41 1286.48L1320.82 1289.81C1320.19 1285.23 1321.38 1281.42 1324.4 1278.36C1325.73 1277.01 1327.19 1276.02 1328.79 1275.39C1330.37 1274.74 1331.82 1274.51 1333.14 1274.68C1334.47 1274.84 1335.72 1275.28 1336.9 1276C1338.09 1276.71 1339.58 1277.94 1341.38 1279.69L1355.81 1293.77Z" fill="white"/>
<path d="M1361.31 1266.31L1366.31 1259.03C1368.92 1260.51 1371.28 1261.07 1373.38 1260.73C1375.49 1260.37 1377.43 1259.14 1379.2 1257.03C1381.07 1254.8 1382.01 1252.74 1382.01 1250.83C1382.01 1248.9 1381.38 1247.41 1380.11 1246.35C1379.29 1245.68 1378.4 1245.35 1377.43 1245.36C1376.46 1245.35 1375.26 1245.76 1373.84 1246.59C1372.88 1247.17 1370.83 1248.59 1367.68 1250.88C1363.64 1253.82 1360.32 1255.48 1357.71 1255.86C1354.05 1256.38 1350.85 1255.52 1348.13 1253.25C1346.37 1251.8 1345.14 1249.94 1344.45 1247.7C1343.75 1245.42 1343.78 1243.03 1344.54 1240.51C1345.31 1237.98 1346.8 1235.39 1349.02 1232.76C1352.63 1228.46 1356.29 1226.01 1360.01 1225.42C1363.74 1224.81 1367.23 1225.77 1370.49 1228.29L1364.99 1235.46C1362.97 1234.29 1361.16 1233.87 1359.57 1234.22C1357.97 1234.53 1356.35 1235.66 1354.72 1237.61C1353.03 1239.62 1352.12 1241.54 1352 1243.37C1351.91 1244.55 1352.32 1245.5 1353.21 1246.24C1354.03 1246.92 1355.01 1247.16 1356.17 1246.96C1357.64 1246.69 1360.19 1245.21 1363.82 1242.51C1367.44 1239.81 1370.36 1238.01 1372.57 1237.12C1374.78 1236.2 1377.01 1235.91 1379.26 1236.24C1381.5 1236.55 1383.72 1237.6 1385.9 1239.42C1387.87 1241.05 1389.26 1243.14 1390.07 1245.66C1390.88 1248.18 1390.87 1250.79 1390.04 1253.49C1389.19 1256.17 1387.52 1259 1385.02 1261.98C1381.38 1266.31 1377.58 1268.81 1373.62 1269.47C1369.65 1270.11 1365.55 1269.05 1361.31 1266.31Z" fill="white"/>
<path d="M1403.86 1220.19L1410.15 1214.22C1412.01 1216.97 1412.89 1219.79 1412.78 1222.68C1412.67 1225.53 1411.54 1228.39 1409.4 1231.23C1406.01 1235.74 1402.02 1237.97 1397.44 1237.93C1393.78 1237.87 1390.14 1236.5 1386.53 1233.81C1382.21 1230.6 1379.68 1226.97 1378.93 1222.91C1378.17 1218.84 1379.07 1215.09 1381.66 1211.66C1384.56 1207.81 1388.13 1205.72 1392.37 1205.4C1396.6 1205.07 1401.32 1206.92 1406.53 1210.95L1393.61 1228.12C1395.69 1229.59 1397.7 1230.23 1399.64 1230.02C1401.56 1229.8 1403.12 1228.9 1404.3 1227.33C1405.11 1226.25 1405.5 1225.13 1405.46 1223.96C1405.42 1222.79 1404.89 1221.54 1403.86 1220.19ZM1397.19 1214.62C1395.15 1213.18 1393.26 1212.57 1391.49 1212.78C1389.71 1212.97 1388.29 1213.77 1387.24 1215.17C1386.12 1216.67 1385.74 1218.31 1386.1 1220.1C1386.46 1221.89 1387.59 1223.48 1389.48 1224.86L1397.19 1214.62Z" fill="white"/>
<path d="M1418.77 1176.91L1415.29 1184.75C1413.73 1184.05 1412.3 1183.87 1411.02 1184.24C1409.75 1184.59 1408.66 1185.43 1407.76 1186.75C1406.56 1188.52 1406.22 1190.35 1406.74 1192.24C1407.25 1194.1 1408.94 1196 1411.82 1197.93C1415.02 1200.08 1417.64 1201.06 1419.68 1200.89C1421.73 1200.7 1423.37 1199.7 1424.59 1197.9C1425.51 1196.55 1425.87 1195.2 1425.7 1193.82C1425.5 1192.44 1424.58 1190.95 1422.94 1189.33L1428.87 1183.17C1431.59 1186.05 1433.08 1189.06 1433.33 1192.22C1433.58 1195.37 1432.53 1198.68 1430.19 1202.13C1427.53 1206.05 1424.16 1208.35 1420.08 1209.02C1416.01 1209.67 1411.78 1208.52 1407.38 1205.57C1402.92 1202.58 1400.25 1199.09 1399.37 1195.09C1398.47 1191.08 1399.37 1187.08 1402.08 1183.09C1404.3 1179.83 1406.77 1177.71 1409.49 1176.75C1412.21 1175.75 1415.3 1175.81 1418.77 1176.91Z" fill="white"/>
<path d="M1452.6 1165.48L1448.43 1162.98C1449.3 1164.88 1449.67 1166.91 1449.52 1169.07C1449.39 1171.22 1448.77 1173.21 1447.66 1175.04C1446.54 1176.9 1445.11 1178.32 1443.4 1179.31C1441.68 1180.29 1439.87 1180.67 1437.99 1180.44C1436.1 1180.21 1433.84 1179.31 1431.22 1177.74L1413.58 1167.18L1418.02 1159.85L1430.83 1167.52C1434.75 1169.87 1437.24 1171.18 1438.28 1171.45C1439.33 1171.69 1440.33 1171.62 1441.29 1171.22C1442.23 1170.81 1443.03 1170.06 1443.69 1168.96C1444.45 1167.71 1444.79 1166.38 1444.71 1164.98C1444.61 1163.57 1444.16 1162.38 1443.37 1161.41C1442.56 1160.42 1440.16 1158.74 1436.17 1156.35L1424.41 1149.31L1428.85 1141.98L1456.72 1158.66L1452.6 1165.48Z" fill="white"/>
<path d="M1465.19 1143.31L1461.08 1150.83L1432.49 1135.38L1436.32 1128.39L1440.38 1130.59C1439.11 1128.36 1438.43 1126.6 1438.34 1125.33C1438.26 1124.04 1438.55 1122.78 1439.21 1121.57C1440.15 1119.86 1441.53 1118.46 1443.35 1117.39L1448.67 1123.28C1447.15 1124.11 1446.09 1125.06 1445.5 1126.15C1444.92 1127.2 1444.73 1128.25 1444.92 1129.3C1445.09 1130.35 1445.83 1131.49 1447.12 1132.74C1448.42 1133.98 1451.5 1135.91 1456.36 1138.54L1465.19 1143.31Z" fill="white"/>
<path d="M1439.9 1112.26L1432.79 1108.68L1436.68 1101.05L1443.79 1104.62L1439.9 1112.26ZM1472.87 1128.85L1443.84 1114.24L1447.72 1106.6L1476.75 1121.22L1472.87 1128.85Z" fill="white"/>
<path d="M1457.73 1085.88L1463.93 1088.8L1461.42 1094.09L1473.28 1099.66C1475.68 1100.79 1477.1 1101.4 1477.55 1101.5C1477.99 1101.57 1478.42 1101.49 1478.85 1101.26C1479.28 1101.02 1479.62 1100.64 1479.86 1100.13C1480.2 1099.41 1480.45 1098.26 1480.6 1096.66L1486.95 1098.84C1486.87 1101 1486.29 1103.22 1485.2 1105.5C1484.54 1106.89 1483.71 1108.04 1482.72 1108.95C1481.71 1109.84 1480.7 1110.38 1479.71 1110.57C1478.71 1110.72 1477.53 1110.61 1476.16 1110.21C1475.17 1109.95 1473.3 1109.17 1470.55 1107.88L1457.73 1101.85L1456.04 1105.4L1449.83 1102.49L1451.52 1098.94L1445.68 1096.19L1444.83 1086.29L1455.22 1091.17L1457.73 1085.88Z" fill="white"/>
<path d="M1458.3 1085.03L1461.89 1076.65L1486.19 1078.52L1467.91 1062.58L1471.4 1054.42L1495.71 1077.12L1500.12 1081.2C1501.58 1082.64 1502.63 1083.86 1503.28 1084.89C1503.93 1085.89 1504.37 1086.93 1504.58 1087.99C1504.82 1089.04 1504.84 1090.23 1504.65 1091.56C1504.47 1092.87 1504.05 1094.28 1503.41 1095.77C1502.77 1097.28 1501.97 1098.7 1501.03 1100.02L1494.53 1098.1C1495.3 1096.97 1495.89 1095.91 1496.32 1094.92C1497.1 1093.09 1497.14 1091.51 1496.42 1090.17C1495.73 1088.83 1494.64 1087.58 1493.17 1086.41L1458.3 1085.03Z" fill="white"/>
<path d="M1509.89 1045.07L1467.2 1031.18L1471.43 1018.35L1503.08 1020.13L1476.47 1003.04L1480.7 990.188L1523.39 1004.07L1520.77 1012.04L1487.16 1001.1L1517.99 1020.46L1515.28 1028.71L1478.91 1026.17L1512.51 1037.11L1509.89 1045.07Z" fill="white"/>
<path d="M1505.58 982.954L1502.25 990.118C1499.43 988.485 1497.55 986.447 1496.63 984.005C1495.71 981.563 1495.78 978.308 1496.85 974.239C1497.82 970.546 1498.98 967.911 1500.35 966.332C1501.69 964.75 1503.14 963.771 1504.69 963.396C1506.23 962.999 1508.81 963.268 1512.43 964.204L1522.13 966.81C1524.89 967.527 1526.97 967.929 1528.37 968.016C1529.74 968.081 1531.28 967.943 1532.97 967.604L1530.82 975.799C1530.21 975.871 1529.32 975.924 1528.15 975.958C1527.62 975.967 1527.27 975.98 1527.1 975.999C1528.11 977.772 1528.75 979.553 1529.02 981.343C1529.29 983.135 1529.19 984.945 1528.71 986.771C1527.86 989.994 1526.32 992.311 1524.07 993.721C1521.83 995.115 1519.36 995.462 1516.67 994.765C1514.89 994.306 1513.42 993.472 1512.26 992.27C1511.08 991.062 1510.32 989.606 1509.99 987.903C1509.64 986.175 1509.56 983.807 1509.76 980.793C1510.04 976.733 1510.06 973.875 1509.82 972.217L1508.99 972.001C1507.39 971.587 1506.15 971.686 1505.27 972.298C1504.37 972.905 1503.64 974.298 1503.07 976.48C1502.68 977.954 1502.68 979.181 1503.05 980.16C1503.41 981.134 1504.25 982.066 1505.58 982.954ZM1515.25 973.621C1515.32 974.774 1515.31 976.565 1515.2 978.992C1515.09 981.419 1515.18 983.049 1515.47 983.878C1515.96 985.16 1516.8 985.952 1517.98 986.26C1519.15 986.563 1520.27 986.391 1521.35 985.746C1522.42 985.101 1523.14 984.111 1523.49 982.774C1523.88 981.281 1523.76 979.729 1523.12 978.117C1522.64 976.92 1521.89 976.024 1520.88 975.428C1520.23 975.028 1518.9 974.568 1516.91 974.052L1515.25 973.621Z" fill="white"/>
<path d="M1540.56 931.876L1538.82 940.26L1522.56 936.925C1519.11 936.22 1516.86 935.944 1515.78 936.097C1514.69 936.246 1513.78 936.67 1513.05 937.371C1512.32 938.052 1511.84 938.959 1511.61 940.093C1511.31 941.545 1511.43 942.929 1512 944.246C1512.56 945.564 1513.45 946.577 1514.68 947.284C1515.92 947.974 1518.31 948.683 1521.87 949.413L1536.31 952.371L1534.57 960.753L1502.7 954.222L1504.32 946.435L1509 947.396C1505.97 943.893 1504.89 940.042 1505.76 935.846C1506.14 933.997 1506.83 932.377 1507.83 930.984C1508.81 929.589 1509.9 928.609 1511.1 928.046C1512.31 927.464 1513.6 927.159 1514.98 927.131C1516.37 927.084 1518.29 927.313 1520.75 927.817L1540.56 931.876Z" fill="white"/>
<path d="M1520.76 913.103L1518.18 920.568C1515.21 919.231 1513.14 917.394 1511.97 915.059C1510.8 912.724 1510.54 909.479 1511.18 905.324C1511.76 901.551 1512.65 898.809 1513.84 897.101C1515.01 895.39 1516.35 894.269 1517.86 893.74C1519.35 893.186 1521.94 893.191 1525.64 893.755L1535.56 895.36C1538.38 895.791 1540.49 895.978 1541.89 895.923C1543.26 895.845 1544.77 895.552 1546.42 895.044L1545.13 903.414C1544.53 903.549 1543.65 903.692 1542.49 903.844C1541.97 903.908 1541.62 903.957 1541.45 903.993C1542.64 905.653 1543.46 907.36 1543.91 909.114C1544.37 910.868 1544.45 912.677 1544.16 914.545C1543.65 917.836 1542.35 920.299 1540.26 921.93C1538.17 923.543 1535.76 924.14 1533.01 923.723C1531.19 923.445 1529.64 922.768 1528.37 921.689C1527.06 920.607 1526.16 919.237 1525.65 917.577C1525.13 915.895 1524.81 913.545 1524.69 910.528C1524.56 906.46 1524.28 903.615 1523.87 901.991L1523.02 901.861C1521.39 901.611 1520.17 901.836 1519.35 902.534C1518.53 903.229 1517.94 904.69 1517.59 906.919C1517.36 908.424 1517.48 909.645 1517.96 910.579C1518.41 911.513 1519.35 912.354 1520.76 913.103ZM1529.41 902.836C1529.61 903.974 1529.78 905.757 1529.92 908.182C1530.06 910.607 1530.32 912.218 1530.69 913.016C1531.31 914.239 1532.22 914.944 1533.44 915.127C1534.63 915.31 1535.73 915.025 1536.73 914.275C1537.74 913.524 1538.34 912.465 1538.55 911.101C1538.79 909.575 1538.51 908.044 1537.71 906.505C1537.1 905.363 1536.27 904.549 1535.21 904.057C1534.51 903.726 1533.15 903.405 1531.11 903.093L1529.41 902.836Z" fill="white"/>
<path d="M1549.35 889.014L1551.53 879.405C1552.68 879.36 1553.51 879.065 1553.99 878.522C1554.68 877.776 1555.12 876.534 1555.3 874.796C1555.52 872.573 1555.36 870.874 1554.8 869.694C1554.43 868.902 1553.77 868.263 1552.81 867.779C1552.13 867.445 1550.83 867.18 1548.92 866.987L1544.2 866.509C1547.43 869.407 1548.85 872.796 1548.45 876.675C1548.01 880.999 1545.82 884.237 1541.88 886.39C1538.78 888.076 1535.06 888.7 1530.73 888.263C1525.3 887.713 1521.29 886 1518.69 883.125C1516.09 880.229 1514.99 876.853 1515.38 872.993C1515.79 869.014 1517.89 865.908 1521.67 863.679L1517.12 863.22L1517.94 855.25L1546.99 858.188C1550.81 858.573 1553.63 859.176 1555.46 859.993C1557.28 860.811 1558.68 861.84 1559.64 863.08C1560.6 864.32 1561.29 865.921 1561.7 867.881C1562.12 869.823 1562.18 872.237 1561.89 875.125C1561.33 880.581 1559.99 884.354 1557.86 886.445C1555.76 888.539 1553.26 889.439 1550.38 889.148C1550.09 889.12 1549.75 889.074 1549.35 889.014ZM1531.14 879.486C1534.57 879.832 1537.16 879.431 1538.89 878.28C1540.62 877.108 1541.58 875.551 1541.78 873.611C1541.99 871.532 1541.36 869.69 1539.88 868.093C1538.38 866.492 1536.02 865.528 1532.81 865.205C1529.46 864.864 1526.9 865.299 1525.13 866.509C1523.37 867.719 1522.38 869.373 1522.16 871.475C1521.95 873.515 1522.58 875.284 1524.05 876.779C1525.5 878.252 1527.86 879.156 1531.14 879.486Z" fill="white"/>
<path d="M1541.51 830.397L1543.3 821.934C1546.4 823.157 1548.73 824.991 1550.28 827.431C1551.81 829.853 1552.51 832.838 1552.36 836.388C1552.13 842.008 1550.11 846.093 1546.31 848.639C1543.26 850.65 1539.48 851.562 1534.97 851.378C1529.58 851.159 1525.43 849.586 1522.5 846.664C1519.56 843.737 1518.17 840.134 1518.35 835.855C1518.55 831.046 1520.3 827.316 1523.62 824.667C1526.92 822.017 1531.87 820.889 1538.45 821.278L1537.57 842.705C1540.12 842.749 1542.14 842.14 1543.62 840.879C1545.08 839.616 1545.86 838.002 1545.94 836.034C1545.99 834.696 1545.67 833.554 1544.98 832.611C1544.28 831.667 1543.12 830.93 1541.51 830.397ZM1532.84 829.556C1530.34 829.514 1528.43 830.076 1527.09 831.242C1525.74 832.405 1525.02 833.86 1524.95 835.605C1524.87 837.471 1525.49 839.042 1526.81 840.314C1528.13 841.588 1529.96 842.263 1532.31 842.339L1532.84 829.556Z" fill="white"/>
<path d="M1520.27 815.342L1520.18 807.453L1524.62 807.402C1521.14 804.62 1519.38 801.277 1519.33 797.38C1519.31 795.308 1519.72 793.506 1520.56 791.973C1521.4 790.442 1522.68 789.177 1524.41 788.183C1522.65 786.782 1521.34 785.264 1520.46 783.629C1519.59 781.994 1519.14 780.242 1519.12 778.374C1519.09 775.998 1519.56 773.983 1520.52 772.327C1521.46 770.671 1522.86 769.427 1524.74 768.593C1526.12 767.988 1528.36 767.669 1531.46 767.635L1552.27 767.398L1552.36 775.958L1533.77 776.168C1530.54 776.204 1528.46 776.521 1527.53 777.121C1526.31 777.928 1525.71 779.153 1525.73 780.797C1525.74 781.996 1526.12 783.119 1526.87 784.166C1527.62 785.213 1528.71 785.962 1530.15 786.414C1531.56 786.863 1533.8 787.073 1536.86 787.037L1552.49 786.862L1552.59 795.421L1534.76 795.621C1531.59 795.657 1529.55 795.833 1528.63 796.147C1527.72 796.463 1527.04 796.947 1526.6 797.603C1526.16 798.236 1525.94 799.102 1525.95 800.198C1525.97 801.519 1526.34 802.703 1527.07 803.75C1527.79 804.797 1528.83 805.548 1530.19 806C1531.54 806.431 1533.78 806.629 1536.9 806.593L1552.71 806.415L1552.81 814.975L1520.27 815.342Z" fill="white"/>
<path d="M1539.8 740.371L1540.59 731.76C1543.81 732.621 1546.34 734.174 1548.16 736.42C1549.97 738.649 1551.01 741.536 1551.27 745.078C1551.69 750.689 1550.16 754.976 1546.68 757.944C1543.88 760.288 1540.24 761.628 1535.73 761.963C1530.36 762.362 1526.05 761.277 1522.8 758.708C1519.53 756.14 1517.74 752.719 1517.42 748.447C1517.06 743.647 1518.37 739.742 1521.36 736.73C1524.33 733.721 1529.11 732.031 1535.7 731.664L1537.31 753.05C1539.85 752.798 1541.78 751.963 1543.11 750.541C1544.42 749.12 1544.99 747.428 1544.85 745.464C1544.75 744.127 1544.3 743.031 1543.49 742.174C1542.69 741.316 1541.46 740.717 1539.8 740.371ZM1531.08 740.53C1528.6 740.774 1526.77 741.552 1525.57 742.863C1524.36 744.174 1523.82 745.702 1523.95 747.443C1524.09 749.305 1524.89 750.794 1526.35 751.908C1527.8 753.021 1529.7 753.481 1532.04 753.288L1531.08 740.53Z" fill="white"/>
<path d="M1544.97 694.023L1546.05 702.515L1529.57 704.587C1526.09 705.025 1523.86 705.488 1522.89 705.98C1521.91 706.471 1521.18 707.167 1520.72 708.065C1520.25 708.942 1520.1 709.953 1520.24 711.103C1520.43 712.574 1521 713.842 1521.96 714.908C1522.92 715.974 1524.1 716.645 1525.49 716.921C1526.88 717.175 1529.38 717.076 1532.99 716.623L1547.61 714.783L1548.69 723.275L1516.41 727.335L1515.4 719.449L1520.15 718.851C1516.14 716.509 1513.87 713.214 1513.33 708.963C1513.09 707.09 1513.22 705.333 1513.71 703.696C1514.18 702.061 1514.89 700.783 1515.85 699.865C1516.8 698.927 1517.92 698.222 1519.22 697.753C1520.52 697.262 1522.41 696.859 1524.91 696.547L1544.97 694.023Z" fill="white"/>
<path d="M1508.88 675.815L1515.65 674.677L1516.63 680.442L1529.56 678.268C1532.18 677.828 1533.7 677.52 1534.13 677.346C1534.53 677.155 1534.84 676.845 1535.06 676.418C1535.27 675.97 1535.33 675.465 1535.23 674.905C1535.1 674.123 1534.64 673.038 1533.84 671.648L1540.3 669.82C1541.48 671.639 1542.29 673.792 1542.71 676.274C1542.97 677.796 1542.95 679.21 1542.65 680.516C1542.34 681.824 1541.82 682.837 1541.12 683.554C1540.39 684.253 1539.35 684.83 1537.99 685.283C1537.04 685.629 1535.06 686.055 1532.06 686.559L1518.07 688.911L1518.73 692.786L1511.96 693.924L1511.31 690.049L1504.93 691.121L1498.54 683.486L1509.86 681.58L1508.88 675.815Z" fill="white"/>
<path d="M1522.7 652.431L1519.8 644.102C1522.56 642.9 1524.42 641.358 1525.39 639.475C1526.36 637.571 1526.52 635.288 1525.88 632.622C1525.19 629.8 1524.08 627.819 1522.55 626.683C1520.99 625.531 1519.4 625.15 1517.79 625.535C1516.76 625.781 1515.96 626.297 1515.39 627.08C1514.8 627.847 1514.42 629.046 1514.25 630.675C1514.14 631.787 1514.07 634.278 1514.04 638.15C1514.01 643.129 1513.37 646.772 1512.12 649.076C1510.36 652.316 1507.76 654.35 1504.3 655.176C1502.08 655.709 1499.85 655.584 1497.62 654.802C1495.37 654.004 1493.45 652.552 1491.87 650.445C1490.29 648.318 1489.09 645.586 1488.28 642.25C1486.96 636.802 1487.17 632.418 1488.91 629.099C1490.64 625.758 1493.49 623.539 1497.47 622.441L1499.98 631.114C1497.83 632.027 1496.42 633.221 1495.75 634.698C1495.05 636.159 1495 638.123 1495.6 640.592C1496.22 643.138 1497.22 645.006 1498.63 646.195C1499.53 646.963 1500.54 647.21 1501.67 646.938C1502.71 646.692 1503.48 646.046 1504.01 645C1504.68 643.671 1505 640.755 1504.98 636.248C1504.96 631.741 1505.25 628.339 1505.85 626.044C1506.42 623.736 1507.51 621.781 1509.12 620.186C1510.71 618.573 1512.88 617.437 1515.64 616.775C1518.14 616.176 1520.65 616.307 1523.17 617.167C1525.69 618.025 1527.79 619.59 1529.48 621.86C1531.14 624.135 1532.43 627.157 1533.34 630.928C1534.67 636.416 1534.42 640.936 1532.59 644.486C1530.74 648.042 1527.45 650.69 1522.7 652.431Z" fill="white"/>
<path d="M1496.11 619.102L1493.48 610.376L1513.39 596.384L1489.08 595.728L1486.52 587.234L1519.81 589.259L1525.83 589.599C1527.87 589.779 1529.47 590.057 1530.62 590.433C1531.78 590.79 1532.77 591.308 1533.62 591.991C1534.48 592.646 1535.26 593.548 1535.97 594.694C1536.67 595.82 1537.25 597.163 1537.72 598.718C1538.2 600.295 1538.49 601.89 1538.62 603.507L1532.38 606.157C1532.25 604.796 1532.03 603.601 1531.72 602.571C1531.14 600.663 1530.15 599.422 1528.74 598.845C1527.35 598.263 1525.71 597.987 1523.82 598.019L1496.11 619.102Z" fill="white"/>
<path d="M1508 578.215L1503.88 570.553C1505.34 569.653 1506.29 568.532 1506.74 567.188C1507.18 565.85 1507.06 564.234 1506.38 562.34C1505.64 560.253 1504.7 558.818 1503.55 558.035C1502.76 557.517 1501.91 557.415 1501.01 557.735C1500.39 557.95 1499.95 558.321 1499.68 558.846C1499.44 559.385 1499.4 560.41 1499.57 561.922C1500.44 568.939 1500.59 573.529 1500.02 575.689C1499.22 578.686 1497.35 580.699 1494.4 581.735C1491.74 582.669 1489.14 582.411 1486.59 580.96C1484.03 579.51 1481.98 576.593 1480.42 572.207C1478.94 568.033 1478.52 564.693 1479.16 562.183C1479.81 559.672 1481.33 557.565 1483.74 555.858L1487.86 562.971C1486.78 563.716 1486.09 564.659 1485.78 565.801C1485.46 566.926 1485.6 568.328 1486.2 570.014C1486.96 572.139 1487.8 573.555 1488.72 574.266C1489.36 574.729 1490.02 574.842 1490.7 574.606C1491.27 574.402 1491.67 573.962 1491.88 573.283C1492.16 572.366 1492.03 569.591 1491.49 564.958C1490.94 560.304 1491.07 556.875 1491.89 554.67C1492.74 552.478 1494.45 550.929 1497.03 550.022C1499.84 549.033 1502.68 549.351 1505.53 550.977C1508.38 552.602 1510.62 555.703 1512.25 560.277C1513.73 564.432 1514.05 568.024 1513.22 571.05C1512.38 574.058 1510.64 576.447 1508 578.215Z" fill="white"/>
<path d="M1467.93 537.513L1474.3 534.988L1476.48 540.421L1488.66 535.597C1491.13 534.619 1492.55 534.001 1492.93 533.742C1493.28 533.47 1493.52 533.103 1493.64 532.64C1493.76 532.156 1493.71 531.651 1493.5 531.124C1493.2 530.387 1492.52 529.423 1491.45 528.23L1497.38 525.094C1498.92 526.627 1500.16 528.563 1501.09 530.903C1501.67 532.336 1501.95 533.721 1501.94 535.062C1501.9 536.408 1501.62 537.504 1501.08 538.351C1500.51 539.188 1499.62 539.969 1498.39 540.695C1497.53 541.234 1495.68 542.062 1492.86 543.181L1479.68 548.4L1481.14 552.05L1474.76 554.576L1473.3 550.926L1467.29 553.304L1459.43 547.173L1470.1 542.946L1467.93 537.513Z" fill="white"/>
<path d="M1478.63 506.74L1476.46 498.366C1479.79 498.097 1482.69 498.715 1485.17 500.218C1487.63 501.712 1489.58 504.082 1491.03 507.328C1493.33 512.47 1493.34 517.02 1491.06 520.98C1489.23 524.124 1486.25 526.608 1482.12 528.43C1477.2 530.608 1472.77 531.029 1468.84 529.698C1464.9 528.373 1462.05 525.753 1460.3 521.838C1458.34 517.441 1458.25 513.322 1460.04 509.487C1461.82 505.657 1465.75 502.468 1471.83 499.914L1480.58 519.511C1482.89 518.424 1484.43 516.989 1485.2 515.205C1485.95 513.43 1485.92 511.644 1485.11 509.842C1484.57 508.619 1483.77 507.736 1482.72 507.199C1481.68 506.661 1480.32 506.507 1478.63 506.74ZM1470.48 509.808C1468.23 510.87 1466.76 512.216 1466.09 513.85C1465.39 515.49 1465.4 517.11 1466.11 518.706C1466.87 520.413 1468.13 521.547 1469.88 522.109C1471.62 522.668 1473.57 522.466 1475.71 521.498L1470.48 509.808Z" fill="white"/>
<path d="M1452.81 502.964L1449.14 495.973L1453.07 493.926C1448.7 493.015 1445.6 490.833 1443.78 487.378C1442.82 485.542 1442.36 483.752 1442.41 482.007C1442.46 480.262 1443.03 478.559 1444.11 476.896C1441.91 476.434 1440.05 475.675 1438.52 474.612C1436.99 473.55 1435.8 472.191 1434.93 470.535C1433.82 468.431 1433.31 466.423 1433.42 464.514C1433.5 462.614 1434.19 460.871 1435.47 459.285C1436.43 458.124 1438.28 456.828 1441.03 455.397L1459.47 445.812L1463.46 453.397L1446.98 461.966C1444.12 463.451 1442.41 464.673 1441.85 465.627C1441.13 466.894 1441.16 468.257 1441.93 469.714C1442.48 470.775 1443.34 471.605 1444.48 472.202C1445.62 472.797 1446.94 472.975 1448.42 472.729C1449.89 472.493 1451.98 471.671 1454.69 470.259L1468.54 463.058L1472.53 470.644L1456.73 478.86C1453.92 480.319 1452.18 481.395 1451.51 482.088C1450.84 482.78 1450.46 483.519 1450.36 484.302C1450.26 485.068 1450.46 485.935 1450.97 486.907C1451.59 488.077 1452.46 488.964 1453.58 489.571C1454.71 490.177 1455.98 490.376 1457.39 490.17C1458.79 489.945 1460.88 489.111 1463.65 487.671L1477.66 480.387L1481.65 487.971L1452.81 502.964Z" fill="white"/>
</g>
</svg>
