<svg width="96" height="96" viewBox="0 0 96 96" fill="none" xmlns="http://www.w3.org/2000/svg">
<g clip-path="url(#clip0_239_19694)">
<path d="M95.2619 43.5606C95.2269 43.4154 95.1743 43.2774 95.1037 43.1502C95.1037 43.1497 95.1035 43.1493 95.1035 43.1493L82.3691 20.0713C82.3673 20.0678 82.3654 20.0644 82.3636 20.0609L82.3608 20.056C82.3564 20.0479 82.3511 20.0409 82.3466 20.0331C82.3427 20.0266 82.3385 20.0201 82.3348 20.0136C82.3213 19.9909 82.3079 19.9677 82.2931 19.9452C82.2877 19.9368 82.2824 19.9283 82.2766 19.9202C82.2664 19.9051 82.2551 19.8911 82.2444 19.8768C82.2291 19.8555 82.2136 19.8341 82.1968 19.8135C82.1913 19.8068 82.1859 19.7998 82.1801 19.7931C82.1664 19.7764 82.1516 19.7609 82.1372 19.7451C82.1214 19.7274 82.1059 19.71 82.0894 19.6931C82.0836 19.6874 82.0778 19.6815 82.0718 19.6757C82.0541 19.6583 82.0356 19.6419 82.0173 19.6254C82.0023 19.6118 81.9876 19.5979 81.9721 19.5849C81.9651 19.5793 81.9584 19.5738 81.9516 19.5682C81.9301 19.5508 81.9079 19.5348 81.8858 19.5186C81.8719 19.5085 81.8589 19.4979 81.8446 19.4882C81.8367 19.4826 81.8283 19.4772 81.82 19.4717C81.7968 19.4566 81.7729 19.4427 81.749 19.4288C81.743 19.4251 81.737 19.4211 81.7309 19.4177C81.7231 19.4132 81.7161 19.4079 81.7084 19.4037C81.7077 19.4032 81.7068 19.403 81.7061 19.4026C81.6971 19.3977 81.6878 19.3931 81.6787 19.3884C81.6581 19.3775 81.6365 19.3678 81.6154 19.3578C81.5874 19.3446 81.5593 19.3314 81.5306 19.3196C81.5116 19.3117 81.4918 19.3052 81.4723 19.2982C81.4413 19.2869 81.4104 19.2758 81.3784 19.2662C81.3575 19.26 81.3362 19.2554 81.3153 19.25C81.2902 19.2435 81.2657 19.2358 81.2402 19.2308C81.2344 19.2294 81.2284 19.2289 81.2224 19.228C81.1996 19.2234 81.1764 19.2206 81.1535 19.2173C81.1275 19.2132 81.1015 19.2081 81.0756 19.2055C81.0756 19.2055 81.074 19.2055 81.0732 19.2053C81.0705 19.2053 81.0677 19.2053 81.0649 19.2048C81.0371 19.2022 81.0088 19.2015 80.9805 19.2002C80.9569 19.1992 80.9334 19.1971 80.91 19.1971L80.9054 19.1969H80.9008C80.8961 19.1969 80.8917 19.1969 80.8873 19.1969H49.6648V12.1404C52.1243 11.4199 53.9262 9.1448 53.9262 6.45525C53.9262 3.1888 51.2687 0.53125 48.0022 0.53125C44.7358 0.53125 42.0783 3.1888 42.0783 6.45525C42.0783 9.14501 43.8806 11.4204 46.3406 12.1409V19.1968H15.1148C15.1148 19.1968 15.1115 19.1968 15.1099 19.1968H15.0999H15.0976C15.0633 19.1968 15.029 19.1996 14.9946 19.2017C14.9784 19.2027 14.9619 19.2029 14.9457 19.2043C14.9053 19.208 14.8652 19.2145 14.8253 19.221C14.8128 19.2233 14.8005 19.2244 14.7883 19.2267C14.75 19.2341 14.7122 19.2439 14.6741 19.2539C14.6597 19.2578 14.6449 19.2608 14.6306 19.265C14.5932 19.2761 14.5569 19.2891 14.5206 19.3026C14.5067 19.3079 14.4924 19.3123 14.4787 19.3179C14.4448 19.3318 14.4121 19.3471 14.3792 19.3628C14.363 19.3707 14.3463 19.3781 14.3303 19.3865C14.3198 19.3918 14.3094 19.3969 14.2992 19.4025C14.2985 19.4029 14.2976 19.4031 14.2969 19.4036C14.2892 19.4077 14.2823 19.4131 14.2744 19.4175C14.2651 19.4228 14.2563 19.4286 14.2473 19.434C14.2276 19.4458 14.2076 19.4572 14.1886 19.4697C14.1793 19.4757 14.1698 19.4818 14.1608 19.488C14.1448 19.4989 14.1301 19.5107 14.1148 19.5221C14.0951 19.5367 14.0752 19.5506 14.0562 19.5661C14.0485 19.5724 14.0409 19.5784 14.0332 19.5847C14.0165 19.5989 14.0007 19.6137 13.9845 19.6285C13.9678 19.6434 13.9511 19.6582 13.9351 19.674C13.9286 19.6802 13.9224 19.6865 13.9158 19.693C13.8985 19.7106 13.8822 19.7292 13.8658 19.7475C13.8525 19.7621 13.8389 19.7764 13.8264 19.7918C13.8203 19.7987 13.8142 19.8062 13.8085 19.8133C13.7913 19.8346 13.7753 19.8567 13.7596 19.8785C13.7494 19.8922 13.7389 19.9052 13.7294 19.9193C13.7234 19.9277 13.7178 19.9365 13.7123 19.9451C13.6974 19.9676 13.684 19.9907 13.6706 20.0135C13.6664 20.0204 13.6622 20.0271 13.658 20.0341C13.6539 20.0418 13.6488 20.0483 13.6446 20.0559L13.6418 20.0608C13.64 20.0643 13.6381 20.0678 13.6363 20.0713L0.902139 43.149C0.901926 43.1492 0.901713 43.1497 0.901713 43.1501C0.831206 43.2774 0.778566 43.4154 0.743579 43.5605C0.712272 43.6895 0.695579 43.8198 0.695312 43.9497C0.695312 43.9503 0.695312 43.951 0.695312 43.9517C0.695312 51.8948 7.15729 58.3568 15.1002 58.3568C23.0429 58.3568 29.5048 51.8948 29.5048 43.9517C29.5048 43.951 29.5046 43.9503 29.5046 43.9497C29.5046 43.8198 29.4879 43.6895 29.4566 43.5605C29.4216 43.4154 29.3687 43.2774 29.2985 43.1501C29.2982 43.1497 29.2982 43.1492 29.2982 43.1492L17.9154 22.5211H46.3406V72.3046C46.3406 72.4836 46.3699 72.6556 46.4222 72.8175C40.224 73.4761 35.2978 77.9656 34.3515 83.7982H23.1854C22.2675 83.7982 21.5233 84.5421 21.5233 85.4603V93.7995C21.5233 94.7173 22.2674 95.4616 23.1854 95.4616H72.8197C73.7378 95.4616 74.4818 94.7173 74.4818 93.7995V85.4603C74.4818 84.5421 73.7378 83.7982 72.8197 83.7982H61.6538C60.7073 77.9657 55.7813 73.4765 49.5832 72.8175C49.6356 72.6556 49.6648 72.4836 49.6648 72.3046V22.5211H78.0901L66.7075 43.149C66.7075 43.149 66.7073 43.1497 66.7071 43.1501C66.6368 43.2774 66.5839 43.4154 66.5489 43.5605C66.5176 43.6895 66.5009 43.8198 66.5009 43.9497C66.5009 43.9503 66.5007 43.951 66.5007 43.9517C66.5007 51.8948 72.9626 58.3568 80.9053 58.3568C88.8483 58.3568 95.3102 51.8948 95.3102 43.9517C95.3102 43.951 95.3102 43.9503 95.3102 43.9497C95.3099 43.8198 95.2932 43.6895 95.2619 43.5606ZM15.0999 24.2994L25.027 42.2897H5.17281L15.0999 24.2994ZM15.1002 55.0326C9.55483 55.0326 4.9479 50.9386 4.14374 45.6139H26.0563C25.2522 50.9386 20.6452 55.0326 15.1002 55.0326ZM45.4025 6.4553C45.4025 5.02186 46.5688 3.85552 48.0022 3.85552C49.4357 3.85552 50.602 5.02186 50.602 6.4553C50.602 7.88901 49.4357 9.05557 48.0022 9.05557C46.5688 9.05552 45.4025 7.88896 45.4025 6.4553ZM71.1577 92.1374H24.8475V87.1225H35.852H60.1533H71.1577V92.1374ZM58.273 83.7982H37.7322C38.7298 79.3402 42.9339 76.0549 48.0025 76.0549C53.071 76.0549 57.2752 79.3402 58.273 83.7982ZM90.8326 42.2897H70.9785L80.9056 24.2994L90.8326 42.2897ZM80.9053 55.0326C75.3602 55.0326 70.7533 50.9386 69.9491 45.6139H91.8617C91.0576 50.9386 86.4506 55.0326 80.9053 55.0326Z" fill="#444444"/>
</g>
<defs>
<clipPath id="clip0_239_19694">
<rect width="96" height="96" fill="white"/>
</clipPath>
</defs>
</svg>
