<svg width="96" height="96" viewBox="0 0 96 96" fill="none" xmlns="http://www.w3.org/2000/svg">
<path d="M48 64.5028C47.7543 64.5046 47.5166 64.4159 47.3321 64.2535C47.1477 64.0912 47.0295 63.8667 47 63.6228V15.8828C47 15.6176 47.1054 15.3632 47.2929 15.1757C47.4804 14.9882 47.7348 14.8828 48 14.8828C48.2652 14.8828 48.5196 14.9882 48.7071 15.1757C48.8946 15.3632 49 15.6176 49 15.8828V63.6228C48.9705 63.8667 48.8523 64.0912 48.6679 64.2535C48.4834 64.4159 48.2457 64.5046 48 64.5028Z" fill="#444444"/>
<path d="M47.1472 51.5096L45.7872 50.9996C43.6755 50.2424 41.6146 49.3506 39.6172 48.3296C35.4172 46.1096 31.3772 38.7796 31.2072 38.4696L30.1172 36.4696L32.3072 35.9996C32.5272 35.9396 37.8272 34.6696 44.3772 38.8696C50.4672 42.7696 48.9672 48.4496 47.8772 50.2996L47.1472 51.5096ZM33.1472 37.8296C33.9372 39.2096 37.3372 44.8296 40.5772 46.5796C42.4234 47.5175 44.3234 48.3456 46.2672 49.0596C46.7272 48.0596 48.4172 43.7796 43.2672 40.5096C38.1172 37.2396 34.2872 37.6396 33.1272 37.8296H33.1472Z" fill="#444444"/>
<path d="M48.4679 51.5068L47.7379 50.2568C46.6379 48.4168 45.1179 42.7468 51.2379 38.8268C57.6779 34.6968 62.7479 35.8268 63.3079 35.9568L65.4979 36.5068L64.4079 38.5068C64.2379 38.8168 60.1979 46.1468 55.9979 48.3668C54.0016 49.3715 51.9443 50.2499 49.8379 50.9968L48.4679 51.5068ZM60.9979 37.7168C57.9063 37.7956 54.903 38.7643 52.3479 40.5068C47.2579 43.7768 48.9279 48.0868 49.3479 49.0568C51.2925 48.3446 53.1926 47.5165 55.0379 46.5768C58.2779 44.8668 61.6779 39.1968 62.4679 37.8268C61.9814 37.7528 61.49 37.716 60.9979 37.7168Z" fill="#444444"/>
<path d="M47.3472 35.2529L46.0972 34.8129C44.3714 34.1811 42.6851 33.4465 41.0472 32.6129C37.6472 30.8229 34.4672 25.1529 34.1172 24.5129L33.1172 22.6929L35.1172 22.1829C35.3072 22.1329 39.6872 21.0729 45.1172 24.5429C50.2072 27.8029 48.9472 32.5429 48.0372 34.1029L47.3472 35.2529ZM36.1472 24.0029C37.3572 26.1029 39.8072 29.6729 41.9872 30.8129C43.4302 31.5729 44.9199 32.2409 46.4472 32.8129C46.8972 31.8129 47.8672 28.6929 44.0272 26.2329C41.7374 24.6009 38.9527 23.8128 36.1472 24.0029Z" fill="#444444"/>
<path d="M48.2713 35.2491L47.5913 34.0991C46.6713 32.5591 45.3913 27.8191 50.5113 24.5391C55.8113 21.1391 60.0213 22.0591 60.5113 22.1791L62.5113 22.6891L61.5113 24.5091C61.1613 25.1491 57.9813 30.8191 54.5813 32.6091C52.96 33.4414 51.2904 34.1761 49.5813 34.8091L48.2713 35.2491ZM58.5313 23.9991C56.0508 24.0633 53.6413 24.841 51.5913 26.2391C47.7613 28.6991 48.7213 31.8091 49.1813 32.8191C50.7037 32.2428 52.1897 31.5749 53.6313 30.8191C55.8113 29.6791 58.2613 26.1091 59.4713 24.0091C59.1585 23.9866 58.8446 23.9832 58.5313 23.9991Z" fill="#444444"/>
<path d="M47.3472 20.2702L46.0972 19.8202C44.3706 19.1942 42.6841 18.4628 41.0472 17.6302C37.6472 15.8402 34.4672 10.1702 34.1172 9.53022L33.1172 7.71022L35.1172 7.20022C35.3072 7.20022 39.6872 6.09022 45.1172 9.56022C50.2072 12.8202 48.9472 17.5602 48.0372 19.1202L47.3472 20.2702ZM36.1472 9.05022C37.3572 11.1502 39.8072 14.7202 41.9872 15.8602C43.4302 16.6202 44.9199 17.2882 46.4472 17.8602C46.8972 16.8602 47.8672 13.7402 44.0272 11.2802C41.7396 9.64358 38.9532 8.85505 36.1472 9.05022Z" fill="#444444"/>
<path d="M48.2713 20.2725L47.5913 19.1225C46.6713 17.5825 45.3913 12.8425 50.5113 9.5625C55.8113 6.1625 60.0213 7.0825 60.5113 7.2025L62.5113 7.7125L61.5113 9.5325C61.1613 10.1725 57.9813 15.8425 54.5813 17.6325C52.9608 18.4637 51.2911 19.195 49.5813 19.8225L48.2713 20.2725ZM58.5313 9.0025C56.0501 9.07135 53.641 9.85239 51.5913 11.2525C47.7613 13.7125 48.7213 16.8225 49.1813 17.8325C50.7018 17.2518 52.1876 16.584 53.6313 15.8325C55.8113 14.6925 58.2613 11.1225 59.4713 9.0225C59.1587 8.99589 58.8448 8.98921 58.5313 9.0025Z" fill="#444444"/>
<path d="M69.0025 91.9967H52.0025V86.9967C52.0025 86.4467 50.9525 71.5167 62.2125 63.1867C63.6282 62.1746 64.9263 61.0073 66.0825 59.7067L79.0225 44.7067C79.7925 43.8097 80.8553 43.2144 82.0225 43.0267V19.9967C82.021 18.7112 82.5147 17.4745 83.4011 16.5434C84.2875 15.6123 85.4985 15.0584 86.7825 14.9967C87.4418 14.9683 88.1 15.0742 88.7172 15.308C89.3343 15.5418 89.8975 15.8986 90.3725 16.3567C90.8902 16.8592 91.3014 17.4608 91.5815 18.1258C91.8615 18.7907 92.0047 19.5052 92.0025 20.2267V50.2267C92.0045 51.6663 92.1148 53.1037 92.3325 54.5267C92.7725 57.5267 92.9325 63.3067 88.9625 67.7267C83.4625 73.8767 78.8025 78.6067 73.8725 83.6067L71.7025 85.7867L69.0025 87.5367V91.9967ZM54.0025 89.9967H67.0025V86.4567L70.4825 84.1767L72.4225 82.1767C77.3325 77.1767 81.9725 72.4767 87.4225 66.3467C90.8525 62.5367 90.6925 57.4667 90.3025 54.7767C90.091 53.2661 89.9907 51.742 90.0025 50.2167V20.2167C90.0067 19.7684 89.9202 19.3238 89.7484 18.9097C89.5765 18.4955 89.3228 18.1204 89.0025 17.8067C88.7239 17.5359 88.3933 17.3245 88.0306 17.1852C87.6679 17.046 87.2807 16.9819 86.8925 16.9967C86.1161 17.0252 85.381 17.3538 84.8419 17.9133C84.3029 18.4729 84.002 19.2197 84.0025 19.9967V43.1567C84.7414 43.3525 85.4256 43.7151 86.0025 44.2167C86.5009 44.6406 86.9097 45.1596 87.205 45.7434C87.5003 46.3272 87.6763 46.9641 87.7225 47.6167C87.7225 47.7467 87.7225 47.8667 87.7225 47.9967C87.7218 49.1978 87.2887 50.3586 86.5025 51.2667L73.2825 66.6967C73.1062 66.8876 72.8625 67.0025 72.6031 67.0169C72.3436 67.0313 72.0887 66.9441 71.8924 66.7738C71.6961 66.6035 71.5738 66.3634 71.5514 66.1045C71.529 65.8456 71.6083 65.5882 71.7725 65.3867L85.1025 49.9967C85.588 49.4451 85.8486 48.7313 85.8325 47.9967V47.7967C85.7694 47.0261 85.4111 46.3096 84.8325 45.7967C84.3375 45.3203 83.6884 45.0365 83.0025 44.9967H82.8025C82.3798 44.9961 81.9617 45.0849 81.5756 45.2573C81.1896 45.4296 80.8443 45.6816 80.5625 45.9967L67.6225 60.9967C66.3698 62.4076 64.9645 63.6753 63.4325 64.7767C53.0725 72.4567 54.0025 86.7767 54.0025 86.9167V89.9967Z" fill="#444444"/>
<path d="M44.5409 92.0039H27.5409V87.5439L24.7109 85.6539L22.7109 83.6539C17.7809 78.6539 13.1209 73.9239 7.59088 67.7639C3.59088 63.3439 3.77088 57.5939 4.22088 54.5639C4.43038 53.14 4.53732 51.703 4.54088 50.2639V20.2639C4.54043 19.537 4.68729 18.8175 4.9726 18.1489C5.25791 17.4803 5.67574 16.8765 6.20088 16.3739C6.67356 15.9147 7.23468 15.5565 7.85011 15.321C8.46555 15.0855 9.12245 14.9776 9.78088 15.0039C11.021 15.0558 12.1958 15.5736 13.0709 16.4539C13.5379 16.9194 13.9082 17.4728 14.1605 18.082C14.4128 18.6913 14.5421 19.3444 14.5409 20.0039V43.0839C15.708 43.2716 16.7709 43.8668 17.5409 44.7639L30.4809 59.7639C31.6371 61.0645 32.9352 62.2318 34.3509 63.2439C45.6109 71.5739 44.6009 86.5039 44.5509 87.1339L44.5409 92.0039ZM29.5409 90.0039H42.5409V87.0039C42.5409 86.7839 43.5409 72.4639 33.1509 64.8039C31.6297 63.6965 30.2377 62.4218 29.0009 61.0039L16.0009 46.0639C15.7179 45.7475 15.3711 45.4948 14.9832 45.3224C14.5953 45.15 14.1753 45.0619 13.7509 45.0639H13.5709C12.9066 45.0927 12.2718 45.3466 11.7709 45.7839C11.1923 46.2967 10.834 47.0132 10.7709 47.7839C10.7709 47.8639 10.7709 47.9339 10.7709 48.0139C10.7528 48.7423 11.0058 49.4514 11.4809 50.0039L24.8109 65.3939C24.9751 65.5953 25.0544 65.8528 25.032 66.1117C25.0096 66.3706 24.8873 66.6106 24.691 66.7809C24.4947 66.9512 24.2398 67.0384 23.9803 67.024C23.7208 67.0097 23.4772 66.8948 23.3009 66.7039L10.0009 51.3039C9.19337 50.3938 8.74539 49.2205 8.74088 48.0039C8.74088 47.8739 8.74088 47.7539 8.74088 47.6239C8.84041 46.3044 9.45892 45.0781 10.4609 44.2139C11.0508 43.6957 11.7577 43.3285 12.5209 43.1439V20.0039C12.5219 19.6083 12.4446 19.2165 12.2936 18.851C12.1426 18.4854 11.9207 18.1534 11.6409 17.8739C11.107 17.3432 10.3931 17.0327 9.64088 17.0039C9.25175 16.9886 8.86364 17.0535 8.50065 17.1945C8.13767 17.3356 7.80757 17.5498 7.53088 17.8239C7.211 18.1379 6.95761 18.5131 6.78581 18.9272C6.61401 19.3412 6.52731 19.7856 6.53088 20.2339V50.2339C6.53097 51.7702 6.41732 53.3043 6.19088 54.8239C5.79088 57.5139 5.64088 62.5839 9.07088 66.3939C14.5709 72.5239 19.2109 77.2339 24.1209 82.2239L26.0609 84.2239L29.5309 86.5039L29.5409 90.0039Z" fill="#444444"/>
</svg>
