<svg width="21" height="21" viewBox="0 0 21 21" fill="none" xmlns="http://www.w3.org/2000/svg">
<path d="M10.8416 11.1176C12.2212 11.1176 13.3395 9.99998 13.3395 8.62131C13.3395 7.24263 12.2212 6.125 10.8416 6.125C9.4621 6.125 8.34375 7.24263 8.34375 8.62131C8.34375 9.99998 9.4621 11.1176 10.8416 11.1176Z" stroke="#5563FF" stroke-width="2" stroke-linecap="round" stroke-linejoin="round"/>
<path d="M17.091 8.62358C17.091 14.2403 10.8463 18.6088 10.8463 18.6088C10.8463 18.6088 4.60156 14.2403 4.60156 8.62358C4.60156 6.96843 5.25949 5.38106 6.4306 4.21069C7.60172 3.04032 9.19009 2.38281 10.8463 2.38281C12.5025 2.38281 14.0909 3.04032 15.262 4.21069C16.4331 5.38106 17.091 6.96843 17.091 8.62358V8.62358Z" stroke="#5563FF" stroke-width="2" stroke-linecap="round" stroke-linejoin="round"/>
</svg>
