<svg width="21" height="21" viewBox="0 0 21 21" fill="none" xmlns="http://www.w3.org/2000/svg">
<path d="M8.02595 10.2465C8.67371 11.57 9.74718 12.6379 11.0744 13.2792C11.1715 13.3252 11.2789 13.3451 11.3861 13.337C11.4932 13.3289 11.5964 13.2931 11.6855 13.233L13.6398 11.9307C13.7262 11.8731 13.8257 11.8379 13.9291 11.8285C14.0326 11.819 14.1367 11.8354 14.2322 11.8763L17.8883 13.4422C18.0125 13.4949 18.1162 13.5865 18.1837 13.7033C18.2513 13.82 18.2791 13.9555 18.2628 14.0894C18.1473 14.9931 17.7061 15.8237 17.0219 16.4257C16.3377 17.0276 15.4573 17.3598 14.5457 17.3598C11.7302 17.3598 9.02995 16.242 7.03906 14.2524C5.04816 12.2628 3.92969 9.56426 3.92969 6.7505C3.92974 5.83948 4.26206 4.95972 4.86443 4.27593C5.46681 3.59215 6.29792 3.15124 7.20216 3.03576C7.33612 3.01955 7.47173 3.0473 7.58854 3.11481C7.70535 3.18232 7.79704 3.28595 7.8498 3.41006L9.41805 7.06699C9.45861 7.16158 9.47514 7.26472 9.46616 7.36724C9.45718 7.46976 9.42297 7.56847 9.36658 7.65458L8.06796 9.63756C8.00885 9.72676 7.97391 9.82976 7.96655 9.9365C7.95918 10.0432 7.97965 10.1501 8.02595 10.2465V10.2465Z" stroke="#5563FF" stroke-width="2" stroke-linecap="round" stroke-linejoin="round"/>
</svg>
