<svg width="54" height="38" viewBox="0 0 54 38" fill="none" xmlns="http://www.w3.org/2000/svg">
<path d="M30.5 23C30.5 19.1 31.1 15.75 32.3 12.95C33.5 10.05 35.05 7.7 36.95 5.9C38.85 4 41 2.65 43.4 1.84999C45.9 0.949994 48.35 0.499994 50.75 0.499994V5.75C48.15 5.75 45.7 6.65 43.4 8.45C41.2 10.15 39.9 12.5 39.5 15.5C39.8 15.4 40.15 15.3 40.55 15.2C40.85 15.1 41.2 15 41.6 14.9C42.1 14.8 42.65 14.75 43.25 14.75C46.25 14.75 48.75 15.9 50.75 18.2C52.75 20.4 53.75 23 53.75 26C53.75 29 52.7 31.65 50.6 33.95C48.6 36.15 45.9 37.25 42.5 37.25C38.7 37.25 35.75 35.85 33.65 33.05C31.55 30.15 30.5 26.8 30.5 23ZM0.5 23C0.5 19.1 1.1 15.75 2.3 12.95C3.5 10.05 5.05 7.7 6.95 5.9C8.85 4 11 2.65 13.4 1.84999C15.9 0.949994 18.35 0.499994 20.75 0.499994V5.75C18.15 5.75 15.7 6.65 13.4 8.45C11.2 10.15 9.9 12.5 9.5 15.5C9.8 15.4 10.15 15.3 10.55 15.2C10.85 15.1 11.2 15 11.6 14.9C12.1 14.8 12.65 14.75 13.25 14.75C16.25 14.75 18.75 15.9 20.75 18.2C22.75 20.4 23.75 23 23.75 26C23.75 29 22.7 31.65 20.6 33.95C18.6 36.15 15.9 37.25 12.5 37.25C8.7 37.25 5.75 35.85 3.65 33.05C1.55 30.15 0.5 26.8 0.5 23Z" fill="#D2D6FF"/>
</svg>
