<svg width="96" height="96" viewBox="0 0 96 96" fill="none" xmlns="http://www.w3.org/2000/svg">
<g clip-path="url(#clip0_239_19691)">
<path d="M80.9994 55.9236C77.0934 55.9236 73.9194 59.1006 73.9194 63.0036C73.9194 66.9066 77.0964 70.0836 80.9994 70.0836C84.9024 70.0836 88.0794 66.9066 88.0794 63.0036C88.0794 59.1006 84.9054 55.9236 80.9994 55.9236ZM80.9994 67.9236C78.2874 67.9236 76.0794 65.7186 76.0794 63.0036C76.0794 60.2886 78.2844 58.0836 80.9994 58.0836C83.7144 58.0836 85.9194 60.2886 85.9194 63.0036C85.9194 65.7186 83.7114 67.9236 80.9994 67.9236ZM59.9994 55.9236C56.0934 55.9236 52.9194 59.1006 52.9194 63.0036C52.9194 66.9066 56.0964 70.0836 59.9994 70.0836C63.9024 70.0836 67.0794 66.9066 67.0794 63.0036C67.0794 59.1006 63.9054 55.9236 59.9994 55.9236ZM59.9994 67.9236C57.2874 67.9236 55.0794 65.7186 55.0794 63.0036C55.0794 60.2886 57.2844 58.0836 59.9994 58.0836C62.7144 58.0836 64.9194 60.2886 64.9194 63.0036C64.9194 65.7186 62.7114 67.9236 59.9994 67.9236ZM59.9994 76.9236C56.0934 76.9236 52.9194 80.1006 52.9194 84.0036C52.9194 87.9066 56.0964 91.0836 59.9994 91.0836C63.9024 91.0836 67.0794 87.9066 67.0794 84.0036C67.0794 80.1006 63.9054 76.9236 59.9994 76.9236ZM59.9994 88.9236C57.2874 88.9236 55.0794 86.7186 55.0794 84.0036C55.0794 81.2886 57.2844 79.0836 59.9994 79.0836C62.7144 79.0836 64.9194 81.2886 64.9194 84.0036C64.9194 86.7186 62.7114 88.9236 59.9994 88.9236ZM38.9994 70.0836C42.9024 70.0836 46.0794 66.9066 46.0794 63.0036C46.0794 59.1006 42.9024 55.9236 38.9994 55.9236C35.0964 55.9236 31.9194 59.1006 31.9194 63.0036C31.9194 66.9066 35.0964 70.0836 38.9994 70.0836ZM38.9994 58.0836C41.7114 58.0836 43.9194 60.2886 43.9194 63.0036C43.9194 65.7186 41.7114 67.9236 38.9994 67.9236C36.2874 67.9236 34.0794 65.7186 34.0794 63.0036C34.0794 60.2886 36.2874 58.0836 38.9994 58.0836ZM32.2374 17.2416L37.4724 12.0036L32.2344 6.76556L33.7614 5.23856L38.9994 10.4766L44.2374 5.23856L45.7644 6.76556L40.5264 12.0036L45.7644 17.2416L44.2374 18.7686L38.9994 13.5306L33.7614 18.7686L32.2374 17.2416ZM53.2344 47.2416L58.4724 42.0036L53.2344 36.7656L54.7644 35.2386L59.9994 40.4766L65.2344 35.2416L66.7644 36.7686L61.5264 42.0036L66.7644 47.2416L65.2344 48.7686L59.9994 43.5306L54.7644 48.7656L53.2344 47.2416ZM80.9994 31.4766L86.2344 26.2416L87.7644 27.7686L82.5264 33.0036L87.7644 38.2416L86.2344 39.7686L80.9994 34.5306L75.7644 39.7656L74.2344 38.2386L79.4724 33.0036L74.2344 27.7656L75.7644 26.2386L80.9994 31.4766ZM29.9994 82.9236H47.9994V85.0866H29.9994C29.8374 85.0866 13.9194 84.9006 13.9194 69.0066V17.6076L9.76438 21.7656L8.23438 20.2386L14.9904 13.4736L21.7614 20.2356L20.2344 21.7656L16.0794 17.6136V69.0036C16.0794 82.7646 29.4324 82.9236 29.9994 82.9236ZM73.0494 8.58056L73.0794 14.9976C73.0794 22.9776 66.4854 25.0836 62.9994 25.0836H50.9994C40.2474 25.0836 40.0794 35.5596 40.0794 36.0066V51.0066H37.9194V36.0066C37.9194 35.8776 38.0694 22.9266 50.9994 22.9266H62.9994C63.3174 22.9266 70.9194 22.7946 70.9194 15.0066L70.8894 8.64656L66.7674 12.7686L65.2374 11.2416L71.9994 4.47656L78.7644 11.2416L77.2344 12.7686L73.0494 8.58056Z" fill="black"/>
</g>
<defs>
<clipPath id="clip0_239_19691">
<rect width="96" height="96" fill="white"/>
</clipPath>
</defs>
</svg>
