<svg width="96" height="96" viewBox="0 0 96 96" fill="none" xmlns="http://www.w3.org/2000/svg">
<path d="M19.9469 55.7969C17.5469 58.9469 15.8969 61.0469 15.8969 61.0469C14.8469 62.0969 14.8469 63.8969 15.8969 64.9469L37.3469 86.3969C38.3969 87.4469 40.1969 87.4469 41.2469 86.3969C41.2469 86.3969 43.3469 85.0469 46.9469 82.1969" stroke="#444444" stroke-width="2"/>
<path d="M40.3469 75.6016L33.2969 82.5016" stroke="#444444" stroke-width="2"/>
<path d="M33.4469 68.6953L26.5469 75.7453" stroke="#444444" stroke-width="2"/>
<path d="M26.6969 61.9453L19.7969 68.8453" stroke="#444444" stroke-width="2"/>
<path d="M59.1017 38.0986C61.0517 40.0486 78.4517 61.0486 78.4517 61.0486C79.5017 62.0986 79.5017 63.8986 78.4517 64.9486L57.0017 86.3986C55.9517 87.4486 54.1517 87.4486 53.1017 86.3986C53.1017 86.3986 40.5017 77.6986 22.9517 60.1486C16.2017 53.3986 13.2017 44.6986 14.2517 43.6486L35.7017 22.1986C36.4517 21.4486 41.7017 22.6486 46.5017 25.0486" stroke="#444444" stroke-width="2" stroke-linecap="round"/>
<path d="M74.85 55.9457C79.05 50.2457 80.85 44.5457 79.95 43.6457L58.5 22.1957C57.45 21.1457 47.85 23.0957 40.95 29.9957C38.1 32.8457 31.65 37.3457 28.5 44.6957C28.5 44.6957 30.15 47.5457 34.5 45.8957C41.7 43.1957 46.65 40.4957 46.65 40.4957C46.65 40.4957 54.15 43.4957 58.8 38.2457" stroke="#444444" stroke-width="2" stroke-linecap="round"/>
<path d="M39.7484 14.0984C40.7984 15.1484 40.7984 16.9484 39.7484 17.9984L11.9984 45.7484C10.9484 46.7984 9.14844 46.7984 8.09844 45.7484L2.24844 39.8984C1.19844 38.8484 1.19844 37.0484 2.24844 35.9984L29.9984 8.24844C31.0484 7.19844 32.8484 7.19844 33.8984 8.24844L39.7484 14.0984Z" stroke="#444444" stroke-width="2"/>
<path d="M55.0453 14.7C53.9953 15.75 53.9953 17.55 55.0453 18.6L82.9453 46.5C83.9953 47.55 85.7953 47.55 86.8453 46.5L92.6953 40.65C93.7453 39.6 93.7453 37.8 92.6953 36.75L64.7953 8.85C63.7453 7.8 61.9453 7.8 60.8953 8.85L55.0453 14.7Z" stroke="#444444" stroke-width="2"/>
<path d="M43.3516 65.1016L60.9016 82.5016" stroke="#444444" stroke-width="2"/>
<path d="M50.25 58.1953L67.65 75.7453" stroke="#444444" stroke-width="2"/>
<path d="M57 51.4453L74.4 68.8453" stroke="#444444" stroke-width="2"/>
</svg>
